<svg width="13" height="11" viewBox="0 0 13 11" fill="none" xmlns="http://www.w3.org/2000/svg">
<path fill-rule="evenodd" clip-rule="evenodd" d="M10.0214 0.129313C9.81494 0.228021 9.32577 0.690083 7.83309 2.19632C6.57799 3.46288 5.83657 4.2526 5.69721 4.47141C5.39009 4.95353 5.20601 5.52935 5.17124 6.11685C5.14492 6.56162 5.15204 6.61311 5.25429 6.71571C5.31581 6.77745 5.43215 6.84462 5.51281 6.8649C5.72331 6.91793 6.48978 6.79489 6.88957 6.6439C7.5524 6.3935 7.86085 6.13013 9.89725 4.07561C11.7529 2.20347 11.8509 2.09473 11.931 1.81888C12.0363 1.45686 12.0365 1.31947 11.9325 0.968066C11.7004 0.183949 10.7654 -0.226463 10.0214 0.129313ZM10.8424 0.986634C11.0485 1.09361 11.1322 1.34396 11.036 1.56634C10.9465 1.77347 7.46451 5.25312 7.10263 5.49712C6.81795 5.68899 6.14932 5.94654 6.12407 5.87397C6.09503 5.79047 6.31974 5.22244 6.48111 4.97135C6.56884 4.83481 7.4978 3.86475 8.54543 2.81567C9.92836 1.43077 10.4832 0.908201 10.5707 0.908201C10.637 0.908201 10.7593 0.943469 10.8424 0.986634ZM1.7929 1.33964C1.00076 1.52697 0.289327 2.28788 0.111044 3.13842C0.0715375 3.32687 0.0517578 4.41378 0.0517578 6.3968C0.0517578 9.73106 0.0535125 9.74942 0.413641 10.1503C0.684123 10.4514 1.05797 10.6181 1.46079 10.6172C1.87904 10.6164 2.11735 10.5027 2.61674 10.0657L3.02094 9.71191H5.46123C6.99905 9.71191 8.01824 9.69035 8.21704 9.65359C9.1411 9.48275 9.89943 8.73496 10.095 7.80182C10.1842 7.37626 10.1721 6.27302 10.0761 6.08686C9.92612 5.7957 9.44551 5.77276 9.2902 6.0493C9.25202 6.11733 9.21379 6.49909 9.19598 6.99076C9.16306 7.89765 9.12882 8.01626 8.80565 8.3405C8.41122 8.7363 8.53017 8.72178 5.443 8.7515L2.67251 8.77818L2.31701 9.09832C1.8163 9.54917 1.59351 9.71191 1.47685 9.71191C1.27049 9.71191 1.06754 9.55606 1.0074 9.35144C0.966834 9.21325 0.953913 8.2474 0.965504 6.2171C0.984274 2.92932 0.964069 3.10235 1.38194 2.64744C1.52938 2.48695 1.70065 2.36967 1.89313 2.29743C2.16685 2.19466 2.29978 2.18874 4.33645 2.18874H6.49031L6.62079 2.05775C6.79838 1.8796 6.79838 1.59084 6.62079 1.41268L6.49031 1.28169L4.24138 1.28703C3.00451 1.29002 1.9027 1.31365 1.7929 1.33964ZM2.20099 4.12998C1.90456 4.263 1.84086 4.67288 2.08247 4.8926C2.17504 4.97679 2.30701 4.99221 3.06183 5.00683L3.93426 5.0238L4.0933 4.86421C4.29173 4.66509 4.30263 4.4411 4.12408 4.23259L3.99589 4.08287L3.1803 4.06969C2.57866 4.05998 2.32174 4.07577 2.20099 4.12998ZM2.13761 6.0127C2.10044 6.02774 2.03313 6.11162 1.98804 6.19912C1.88265 6.40358 1.93173 6.63589 2.11012 6.7767C2.23348 6.87407 2.32493 6.88405 3.09379 6.88405H3.94144L4.09686 6.72809C4.29519 6.52907 4.30471 6.29153 4.12175 6.10799C3.99318 5.97892 3.97808 5.97706 3.0982 5.98122C2.60706 5.98351 2.17478 5.9977 2.13761 6.0127Z" fill="black"/>
</svg>
