<svg width="16" height="18" viewBox="0 0 16 18" fill="none" xmlns="http://www.w3.org/2000/svg">
<path fill-rule="evenodd" clip-rule="evenodd" d="M6.99048 0.0889856C6.87277 0.157778 6.84292 0.291979 6.84292 0.752035V1.32886L6.43075 1.5008L6.01858 1.67265L5.6118 1.25821C5.38801 1.03025 5.16472 0.843758 5.11565 0.843758C4.98849 0.843758 3.63865 2.22139 3.63865 2.3511C3.63865 2.41025 3.81311 2.6459 4.02636 2.8747L4.41416 3.29068L4.26795 3.67492L4.12165 4.05916H3.55972C3.23508 4.05916 2.95504 4.10206 2.8966 4.16069C2.76944 4.2883 2.75806 5.94643 2.88269 6.18013C2.95605 6.31755 3.06289 6.34378 3.55027 6.34378H4.13067L4.27739 6.72929L4.42403 7.1148L4.03134 7.51486C3.81539 7.73495 3.63865 7.97357 3.63865 8.04515C3.63865 8.17749 4.9927 9.55918 5.12239 9.55918C5.16143 9.55918 5.38649 9.36769 5.6226 9.13373L6.05188 8.70828L6.44373 8.88225L6.83558 9.05614L6.86037 9.66732L6.88508 10.2784L7.93246 10.3023C8.71371 10.3201 8.99728 10.2986 9.04847 10.2177C9.08616 10.158 9.11761 9.87268 9.11837 9.58355L9.11964 9.05792L9.47801 8.89799L9.83638 8.73815L10.274 9.14871C10.5148 9.37446 10.7433 9.55918 10.7818 9.55918C10.9042 9.55918 12.2396 8.16497 12.2396 8.0372C12.2396 7.97001 12.0701 7.74231 11.863 7.53128L11.4864 7.14763L11.6304 6.74571L11.7745 6.34378L12.3232 6.34251C12.625 6.34175 12.9207 6.31019 12.9801 6.27237C13.0608 6.221 13.0822 5.93644 13.0644 5.15248L13.0407 4.10146L12.4247 4.0765L11.8087 4.05154L11.6414 3.65977L11.474 3.26791L11.8568 2.87792C12.0673 2.66342 12.2396 2.41854 12.2396 2.33376C12.2396 2.15344 11.1112 0.956382 10.8682 0.878958C10.7449 0.839697 10.5921 0.933705 10.2695 1.24738L9.83638 1.66842L9.47801 1.50672L9.11964 1.34502V0.804327C9.11964 0.040247 9.05918 -0.00299166 7.99637 0.000139119C7.52425 0.00157759 7.07169 0.0415162 6.99048 0.0889856ZM8.52938 1.13492C8.52938 1.73696 8.51428 1.71725 9.20396 2.01399C10.0066 2.35931 10.0372 2.35677 10.422 1.91161L10.7648 1.5151L11.1796 1.93767L11.5943 2.36016L11.2014 2.78163L10.8085 3.2031L11.0602 3.73686C11.1986 4.03047 11.3119 4.31698 11.3119 4.3735C11.3121 4.54587 11.6142 4.65147 12.1075 4.65147H12.5769V5.20147V5.75147L12.0499 5.75274C11.76 5.7535 11.4809 5.78202 11.4297 5.8162C11.3784 5.85039 11.2879 6.0307 11.2286 6.21686C11.1691 6.40301 11.0488 6.69866 10.961 6.87381L10.8015 7.19222L11.1989 7.61852L11.5962 8.04481L11.2024 8.44005L10.8085 8.83529L10.4345 8.46688C10.0171 8.05581 9.98327 8.0537 9.20396 8.38894C8.51386 8.68586 8.52938 8.66555 8.52938 9.27191V9.82073L7.9602 9.79577L7.39102 9.77072L7.34886 9.19474L7.30669 8.61876L6.80076 8.40409C5.97161 8.05226 5.94791 8.05344 5.52934 8.46569L5.15646 8.83284L4.75753 8.45562C4.53803 8.24814 4.34763 8.0746 4.33439 8.06986C4.32116 8.0652 4.48626 7.88472 4.70128 7.66895C4.96454 7.40478 5.07779 7.22785 5.04785 7.12749C4.99768 6.95902 4.66165 6.11413 4.56788 5.9207C4.52446 5.83101 4.3419 5.78642 3.94609 5.76873L3.38568 5.74377V5.19758V4.65147L3.87053 4.6502C4.13716 4.64944 4.40708 4.61601 4.47032 4.57582C4.53348 4.53563 4.65212 4.31732 4.73383 4.09055C4.81563 3.86386 4.93368 3.55417 4.99625 3.40228C5.10831 3.13024 5.10418 3.12043 4.7125 2.72739L4.315 2.32851L4.71166 1.92447L5.10823 1.52043L5.51222 1.91973C5.90946 2.31235 5.92076 2.31709 6.18984 2.20548C6.34035 2.14303 6.65319 2.0233 6.88508 1.93936L7.30669 1.7868L7.33149 1.18831L7.35628 0.589911H7.94283H8.52938V1.13492ZM7.68615 2.32453C7.68615 2.60656 7.70023 2.62069 7.98128 2.62069C8.26233 2.62069 8.27641 2.60656 8.27641 2.32453C8.27641 2.04251 8.26233 2.02838 7.98128 2.02838C7.70023 2.02838 7.68615 2.04251 7.68615 2.32453ZM7.40257 3.59081C6.50807 3.91074 6.02726 4.96158 6.38361 5.81764C6.82226 6.87144 8.00464 7.21888 8.95808 6.57419C9.82938 5.98493 9.86075 4.49433 9.01499 3.8642C8.48595 3.47006 7.98001 3.38426 7.40257 3.59081ZM8.57373 4.22974C9.05252 4.52666 9.24756 5.17465 9.00116 5.64993C8.56564 6.48983 7.47433 6.578 7.00819 5.81079C6.38757 4.78947 7.5627 3.60274 8.57373 4.22974ZM7.57273 4.80623C7.38748 5.01159 7.39523 5.43695 7.58741 5.61143C7.92672 5.9196 8.52938 5.65729 8.52938 5.20147C8.52938 4.73811 7.87714 4.46861 7.57273 4.80623ZM4.81917 5.20147C4.81917 5.48349 4.83325 5.49762 5.1143 5.49762C5.39535 5.49762 5.40943 5.48349 5.40943 5.20147C5.40943 4.91944 5.39535 4.90531 5.1143 4.90531C4.83325 4.90531 4.81917 4.91944 4.81917 5.20147ZM10.5531 5.20147C10.5531 5.4741 10.5732 5.49762 10.8061 5.49762C11.039 5.49762 11.0591 5.4741 11.0591 5.20147C11.0591 4.92884 11.039 4.90531 10.8061 4.90531C10.5732 4.90531 10.5531 4.92884 10.5531 5.20147ZM7.68615 8.08374C7.68615 8.37295 7.69736 8.38421 7.9602 8.35874C8.20119 8.33547 8.23745 8.29908 8.26064 8.05725C8.28602 7.7935 8.27481 7.78225 7.98659 7.78225C7.69846 7.78225 7.68615 7.7946 7.68615 8.08374ZM12.8081 10.5527L11.4793 11.8894L11.668 12.0788L11.8567 12.2682L13.0086 11.1144C13.6462 10.4758 14.2009 9.98581 14.2509 10.0169C14.3007 10.0478 14.3777 10.2049 14.422 10.3661C14.5909 10.9798 14.4707 11.1538 12.5083 13.1342L10.6847 14.9746H7.68741H4.69015L3.65576 16.015L2.62146 17.0555L2.81717 17.24L3.01288 17.4245L3.97788 16.4534L4.94287 15.4823H7.95876H10.9746L12.8508 13.5741C13.8828 12.5246 14.7947 11.5251 14.8771 11.353C15.1024 10.8832 15.037 10.1886 14.719 9.67146C14.5787 9.44334 14.3947 9.25262 14.3023 9.2395C14.1853 9.22283 13.7477 9.60741 12.8081 10.5527ZM1.78717 12.9824L0.0622559 14.7149L0.265727 14.9323L0.469198 15.1497L2.16013 13.4544L3.85097 11.7592H7.15989C10.7607 11.7592 10.5917 11.7346 10.368 12.2269C10.1797 12.6417 9.94912 12.69 8.15414 12.69H6.50563V12.9438V13.1977H8.30609C10.0344 13.1977 10.1181 13.19 10.3931 13.0066C10.7875 12.7435 11.0712 12.1602 11.0408 11.6746L11.0169 11.2938L7.26453 11.2718L3.51216 11.2498L1.78717 12.9824ZM5.40943 12.9438C5.40943 13.1695 5.43751 13.1977 5.6624 13.1977C5.88729 13.1977 5.91537 13.1695 5.91537 12.9438C5.91537 12.7181 5.88729 12.69 5.6624 12.69C5.43751 12.69 5.40943 12.7181 5.40943 12.9438Z" fill="black"/>
</svg>
