<svg width="13" height="13" viewBox="0 0 13 13" fill="none" xmlns="http://www.w3.org/2000/svg">
<path fill-rule="evenodd" clip-rule="evenodd" d="M6.29865 0.0649408C6.06838 0.197485 6.04295 0.292251 6.04105 1.02475C6.03926 1.72085 6.04249 1.73925 6.19176 1.8781C6.28775 1.96737 6.41286 2.01996 6.52927 2.01996C6.64567 2.01996 6.77078 1.96737 6.86677 1.8781C7.01604 1.73925 7.01927 1.72085 7.01748 1.02475C7.01558 0.284267 6.98952 0.190774 6.74928 0.0623374C6.59211 -0.0216094 6.44763 -0.0207995 6.29865 0.0649408ZM2.00341 1.74769C1.8158 1.84292 1.69404 2.1009 1.74316 2.29905C1.76426 2.38421 1.99528 2.66862 2.25651 2.93116C2.80901 3.48634 2.97892 3.53771 3.27624 3.23936C3.56186 2.95274 3.51649 2.77623 3.02677 2.26856C2.4651 1.68637 2.29491 1.59976 2.00341 1.74769ZM10.5651 1.77842C10.4699 1.83899 10.217 2.0718 10.0029 2.29575C9.54435 2.77559 9.50175 2.95784 9.78229 3.23936C10.0679 3.52597 10.2438 3.48043 10.7497 2.98902C10.9872 2.75835 11.2196 2.4961 11.2661 2.40625C11.4996 1.95545 10.9958 1.50424 10.5651 1.77842ZM5.9239 2.97901C5.84462 2.99324 5.62473 3.03305 5.43522 3.06747C3.93794 3.33985 1.96807 4.47426 0.349424 5.99635C-0.0489092 6.37096 -0.0476408 6.63732 0.354325 7.01546C1.95803 8.52436 3.80066 9.58952 5.43384 9.9518C5.62409 9.99403 6.11704 10.0286 6.52927 10.0286C6.94149 10.0286 7.43444 9.99403 7.6247 9.9518C9.25994 9.58905 11.0983 8.52575 12.7091 7.011C13.1074 6.63639 13.1062 6.37003 12.7042 5.9919C12.1617 5.48145 11.3919 4.8668 10.8245 4.49098C9.33628 3.50531 8.02228 3.01881 6.73106 2.97548C6.36639 2.96327 6.00317 2.96484 5.9239 2.97901ZM7.28581 4.07715C7.91072 4.25146 8.57455 4.8495 8.85879 5.49423C9.64703 7.28234 8.08576 9.31737 6.15549 9.0178C4.11073 8.70047 3.28304 6.17668 4.74325 4.71146C5.41867 4.0337 6.32206 3.8083 7.28581 4.07715ZM6.20427 5.00826C6.12061 5.02289 5.91323 5.11812 5.74338 5.22C4.78863 5.79253 4.78465 7.21245 5.73623 7.78307C6.267 8.10133 6.7909 8.10173 7.32046 7.78417C8.03283 7.35697 8.24298 6.45097 7.80394 5.69933C7.50587 5.18888 6.83351 4.89845 6.20427 5.00826ZM3.14917 5.44106C2.96456 5.97089 2.96456 7.03646 3.14917 7.56629C3.2198 7.76884 3.26794 7.94425 3.25618 7.95605C3.18665 8.02583 1.35134 6.63477 1.34367 6.50645C1.33641 6.38536 3.18446 4.97927 3.25618 5.0513C3.26794 5.0631 3.2198 5.23852 3.14917 5.44106ZM10.6125 5.57228C10.8833 5.76638 11.2509 6.0516 11.4292 6.20613C11.7466 6.48106 11.7514 6.48973 11.6494 6.60301C11.404 6.87574 9.85609 8.00997 9.80259 7.95628C9.79071 7.94437 9.83873 7.76884 9.90936 7.56629C10.0925 7.04085 10.0939 5.97055 9.91224 5.44968C9.84317 5.25176 9.78673 5.07456 9.78673 5.05587C9.78673 5.00548 10.0596 5.17603 10.6125 5.57228ZM6.87779 6.15395C7.18872 6.4659 6.9694 6.99544 6.52927 6.99544C6.08913 6.99544 5.86982 6.4659 6.18075 6.15395C6.27841 6.05588 6.38634 6.01191 6.52927 6.01191C6.67219 6.01191 6.78012 6.05588 6.87779 6.15395ZM2.25651 10.0762C1.99528 10.3387 1.76426 10.6231 1.74316 10.7083C1.66071 11.0409 2.00779 11.3891 2.33919 11.3064C2.42405 11.2852 2.70748 11.0534 2.96912 10.7913C3.52237 10.2368 3.57356 10.0664 3.27624 9.768C2.97892 9.46964 2.80901 9.52102 2.25651 10.0762ZM9.78229 9.768C9.48497 10.0664 9.53617 10.2368 10.0894 10.7913C10.351 11.0534 10.6345 11.2852 10.7193 11.3064C11.0507 11.3891 11.3978 11.0409 11.3154 10.7083C11.2943 10.6231 11.0633 10.3387 10.802 10.0762C10.2495 9.52102 10.0796 9.46964 9.78229 9.768ZM6.19176 11.1293C6.04267 11.2679 6.03921 11.2873 6.03921 11.9862C6.03921 12.6172 6.05252 12.7156 6.15255 12.8233C6.37279 13.0605 6.68424 13.0621 6.9024 12.8271C7.00676 12.7147 7.01933 12.6245 7.01933 11.9862C7.01933 11.2873 7.01587 11.2679 6.86677 11.1293C6.77078 11.04 6.64567 10.9874 6.52927 10.9874C6.41286 10.9874 6.28775 11.04 6.19176 11.1293Z" fill="black"/>
</svg>
