<svg width="13" height="12" viewBox="0 0 13 12" fill="none" xmlns="http://www.w3.org/2000/svg">
<path fill-rule="evenodd" clip-rule="evenodd" d="M5.49887 0.0203992C5.08057 0.0530374 4.96879 0.0877413 4.86415 0.217468C4.71271 0.405103 4.70317 0.562028 4.83238 0.739335C4.91801 0.856942 5.02959 0.870714 5.94743 0.876773C6.91001 0.883108 7.00382 0.896053 7.61912 1.10765C8.49607 1.40911 9.14287 1.82714 9.77409 2.50056C10.8819 3.68221 11.3866 5.35055 11.0979 6.87621C10.8809 8.02282 10.3737 8.96017 9.54696 9.74286C8.95952 10.2989 8.39472 10.6364 7.58817 10.9131C7.02914 11.1049 6.88174 11.1266 6.10951 11.1309C4.67078 11.1389 3.75973 10.7941 2.48452 9.7587C2.32121 9.62608 2.14225 9.51756 2.08687 9.51756C1.95396 9.51756 1.64929 9.82687 1.64929 9.96183C1.64929 10.2877 2.91778 11.244 3.81229 11.5926C5.25919 12.1564 6.97184 12.1379 8.39019 11.5433C9.01359 11.282 9.85485 10.6989 10.3392 10.1924C11.4473 9.03357 12.0092 7.63309 12.0102 6.02755C12.0111 4.73035 11.7128 3.71451 11.0277 2.68131C9.79467 0.821825 7.76239 -0.156288 5.49887 0.0203992ZM3.22752 0.707592C2.63665 1.02316 2.29774 1.29515 2.2377 1.50213C2.18864 1.6709 2.42462 2.01216 2.5904 2.01216C2.64962 2.01216 2.8974 1.8858 3.14113 1.73136C3.3848 1.57691 3.72075 1.39182 3.88777 1.32001C4.31074 1.13809 4.39905 0.860041 4.13281 0.548945C3.98027 0.370674 3.79877 0.402486 3.22752 0.707592ZM1.28712 2.34053C1.04133 2.59792 0.482776 3.59173 0.482776 3.77152C0.482776 3.95151 0.753751 4.21558 0.938404 4.21558C1.11098 4.21558 1.31382 3.99709 1.5137 3.59587C1.59858 3.42544 1.75648 3.15649 1.86455 2.99819C2.09614 2.65886 2.11137 2.47584 1.92377 2.28758C1.73321 2.09637 1.50183 2.11565 1.28712 2.34053ZM5.76642 3.11387C5.63995 3.24077 5.62918 3.34337 5.62918 4.42215V5.59272H4.46266C3.38761 5.59272 3.28537 5.60353 3.1589 5.73043C3.08342 5.80617 3.02167 5.93012 3.02167 6.00586C3.02167 6.0816 3.08342 6.20554 3.1589 6.28129C3.28537 6.40819 3.38761 6.419 4.46266 6.419H5.62918V7.58957C5.62918 8.66835 5.63995 8.77095 5.76642 8.89785C5.8419 8.97359 5.96541 9.03556 6.04089 9.03556C6.11637 9.03556 6.23988 8.97359 6.31536 8.89785C6.44183 8.77095 6.4526 8.66835 6.4526 7.58957V6.419H7.61912C8.69417 6.419 8.79641 6.40819 8.92287 6.28129C8.99835 6.20554 9.06011 6.0816 9.06011 6.00586C9.06011 5.93012 8.99835 5.80617 8.92287 5.73043C8.79641 5.60353 8.69417 5.59272 7.61912 5.59272H6.4526V4.42215C6.4526 3.34337 6.44183 3.24077 6.31536 3.11387C6.23988 3.03812 6.11637 2.97615 6.04089 2.97615C5.96541 2.97615 5.8419 3.03812 5.76642 3.11387ZM0.268548 4.8282C0.13536 4.93651 0.100844 5.04558 0.067084 5.46512C0.00862092 6.1915 0.110108 6.41576 0.498352 6.41797C0.766308 6.41948 0.871226 6.20286 0.922279 5.54259C0.961734 5.03229 0.952265 4.96212 0.827379 4.8368C0.653842 4.66267 0.475708 4.65991 0.268548 4.8282Z" fill="black"/>
</svg>
