<svg width="14" height="12" viewBox="0 0 14 12" fill="none" xmlns="http://www.w3.org/2000/svg">
<path fill-rule="evenodd" clip-rule="evenodd" d="M5.69781 0.52504C3.76303 1.16413 3.14499 3.57559 4.52712 5.09306L4.82106 5.4158L4.62594 5.4866C4.07581 5.68624 3.23616 6.3833 2.78809 7.01247C2.22889 7.79759 1.96458 8.61309 1.90421 9.73992C1.86163 10.5342 1.89926 10.8305 2.0637 10.9955C2.17501 11.1072 2.29839 11.1104 6.539 11.1104H10.8999L11.0519 10.9578L11.204 10.8052L11.1727 9.84967C11.1492 9.13115 11.1118 8.795 11.0219 8.4943C10.6369 7.20708 9.79136 6.1566 8.69741 5.60639C8.49675 5.50545 8.32249 5.41367 8.31012 5.40239C8.29775 5.3911 8.4249 5.23118 8.59263 5.04703C8.94082 4.66472 9.07486 4.42596 9.21726 3.93432C9.35331 3.46466 9.31385 2.6426 9.13258 2.17229C8.86667 1.48214 8.24133 0.854042 7.5531 0.585794C7.07393 0.399042 6.16903 0.369434 5.69781 0.52504ZM7.34172 1.33044C8.93805 2.04411 8.95519 4.25185 7.37041 5.03521C7.14567 5.14631 6.99973 5.17096 6.5658 5.17096C6.11555 5.17096 5.98569 5.14738 5.70311 5.01446C5.27955 4.81518 4.91794 4.45232 4.71935 4.02728C4.58666 3.74331 4.56346 3.61412 4.56393 3.1616C4.5644 2.6952 4.5846 2.59124 4.72795 2.31732C4.95787 1.87804 5.25852 1.56523 5.6229 1.38634C6.18864 1.10858 6.80096 1.08866 7.34172 1.33044ZM3.36349 1.3666C2.34238 1.53681 1.53883 2.44031 1.48159 3.48263C1.45061 4.04731 1.54313 4.45096 1.80268 4.88344C1.99179 5.19861 2.00145 5.23537 1.90916 5.28915C1.65179 5.43909 1.10178 5.91637 0.882577 6.18C0.578448 6.54588 0.26678 7.18521 0.149758 7.68353C0.0965763 7.90988 0.0594141 8.34685 0.0588841 8.75091C0.0580596 9.39012 0.0669526 9.44343 0.194282 9.56351C0.312659 9.67509 0.397996 9.69199 0.842116 9.69199H1.35367V9.49254C1.35367 9.38285 1.36993 9.21152 1.38977 9.11188C1.42576 8.93134 1.42493 8.93069 1.13947 8.91243C0.861669 8.8947 0.852482 8.8882 0.834107 8.69553C0.800478 8.34301 0.948008 7.68536 1.15278 7.27457C1.478 6.62218 2.12342 6.08273 2.85547 5.85136C3.45513 5.66189 3.53711 5.17988 3.01548 4.91063C2.40681 4.59646 2.07842 3.80477 2.31806 3.22927C2.44056 2.93502 2.75346 2.60909 3.06596 2.45024C3.27315 2.34486 3.36255 2.25751 3.40996 2.1142C3.44523 2.0077 3.55342 1.80086 3.65036 1.65459C3.90944 1.26389 3.91939 1.27394 3.36349 1.3666ZM9.24547 1.33315C9.24547 1.35366 9.29936 1.44633 9.36515 1.53905C9.43099 1.63184 9.55096 1.85263 9.63176 2.02975C9.73435 2.25468 9.82087 2.36241 9.91863 2.387C10.1434 2.44362 10.6477 2.87787 10.7675 3.11799C10.9325 3.44847 10.9611 3.63173 10.8944 3.93054C10.8088 4.31367 10.5774 4.63298 10.2062 4.88025C9.8181 5.13875 9.73011 5.29636 9.84272 5.53157C9.90479 5.66112 10.0185 5.73416 10.3484 5.85632C11.5939 6.31735 12.3051 7.28627 12.3073 8.5248L12.308 8.92371H11.9777C11.7008 8.92371 11.6533 8.93878 11.6833 9.01721C11.7029 9.06862 11.719 9.24149 11.719 9.40135V9.69199H12.2491C12.9999 9.69199 13.0149 9.67302 13.0138 8.73164C13.0128 7.88429 12.9218 7.43289 12.6377 6.86685C12.2995 6.19295 11.8674 5.73682 11.0831 5.22604C11.0735 5.21977 11.1426 5.09844 11.2367 4.95643C11.5253 4.52075 11.6307 4.16049 11.6239 3.63439C11.6081 2.41927 10.7721 1.49053 9.55467 1.33534C9.38464 1.31365 9.24547 1.31271 9.24547 1.33315ZM7.46075 5.9978C9.20331 6.41007 10.4823 8.04031 10.4823 9.8492V10.3421H6.52746H2.57272L2.60758 9.73632C2.6726 8.60842 3.01654 7.83252 3.79583 7.05561C4.31239 6.54062 4.93631 6.17528 5.59404 6.00253C6.01779 5.89125 6.99996 5.88877 7.46075 5.9978Z" fill="black"/>
</svg>
