<svg width="8" height="16" viewBox="0 0 8 16" fill="none" xmlns="http://www.w3.org/2000/svg">
<path fill-rule="evenodd" clip-rule="evenodd" d="M3.00182 0.0887501C2.40992 0.294283 1.8453 0.935108 1.61896 1.65823C1.49826 2.04385 1.49721 2.07153 1.49721 4.9234V7.79964L1.6647 8.25584C1.87116 8.81816 2.23383 9.29846 2.6519 9.56328C2.94161 9.74681 3.01064 9.76224 3.54295 9.76224C4.07526 9.76224 4.14429 9.74681 4.434 9.56328C4.85207 9.29846 5.21474 8.81816 5.4212 8.25584L5.58869 7.79964V4.9234C5.58869 2.07153 5.58764 2.04385 5.46694 1.65823C5.08428 0.435658 3.99684 -0.256737 3.00182 0.0887501ZM4.20042 1.10748C4.34976 1.21238 4.53964 1.4041 4.62237 1.5335C4.78136 1.78241 4.933 2.27029 4.933 2.53294C4.933 2.67608 4.90998 2.69009 4.67456 2.69009C4.45776 2.69009 4.39854 2.71885 4.30737 2.86841C4.16648 3.09946 4.17031 3.20111 4.32741 3.40373C4.42634 3.53144 4.51137 3.56988 4.6946 3.56988H4.933V4.00977V4.44967H4.71972C4.60243 4.44967 4.4597 4.48195 4.40248 4.52147C4.25445 4.62366 4.18421 4.89694 4.25896 5.08007C4.34572 5.29278 4.40473 5.32729 4.68384 5.32844L4.933 5.32946V5.80319V6.27692L4.68384 6.27794C4.40473 6.27909 4.34572 6.3136 4.25896 6.52631C4.18421 6.70944 4.25445 6.98272 4.40248 7.08491C4.4597 7.12443 4.60243 7.15671 4.71972 7.15671C4.91753 7.15671 4.93295 7.17018 4.93248 7.34282C4.93117 7.82698 4.47801 8.59781 4.06341 8.82134C3.83664 8.94356 3.24925 8.94356 3.02249 8.82134C2.60789 8.59781 2.15473 7.82698 2.15342 7.34282C2.15295 7.17018 2.16837 7.15671 2.36618 7.15671C2.48347 7.15671 2.6262 7.12443 2.68342 7.08491C2.83145 6.98272 2.90169 6.70944 2.82694 6.52631C2.74018 6.3136 2.68117 6.27909 2.40206 6.27794L2.1529 6.27692V5.80319V5.32946L2.40206 5.32844C2.68117 5.32729 2.74018 5.29278 2.82694 5.08007C2.90169 4.89694 2.83145 4.62366 2.68342 4.52147C2.6262 4.48195 2.48347 4.44967 2.36618 4.44967H2.1529V4.00977V3.56988H2.38312C2.77574 3.56988 2.98305 3.20382 2.77947 2.8699C2.68731 2.71871 2.62866 2.69009 2.41134 2.69009C2.1743 2.69009 2.1529 2.67682 2.1529 2.52942C2.1529 2.44104 2.18877 2.23754 2.23263 2.07721C2.51772 1.03459 3.44554 0.577372 4.20042 1.10748ZM0.137107 6.7893C0.0276859 6.93054 0.028263 7.58307 0.138418 8.16752C0.45021 9.8222 1.53083 11.1725 2.80942 11.505L3.17577 11.6003L3.19108 12.0421L3.20645 12.4838L2.85013 12.5293C2.25697 12.605 2.00801 12.7457 1.64991 13.2077C1.32196 13.6308 1.201 13.9472 1.12541 14.5794C1.09609 14.8246 1.10952 14.8853 1.22644 15.0362L1.3613 15.2102H3.54295H5.7246L5.85946 15.0362C5.97638 14.8853 5.98981 14.8246 5.96049 14.5794C5.8849 13.9472 5.76394 13.6308 5.43599 13.2077C5.07788 12.7457 4.82893 12.605 4.23577 12.5293L3.87945 12.4838L3.89482 12.0421L3.91013 11.6003L4.27732 11.5071C5.78519 11.1243 7.0312 9.22902 7.0312 7.31839C7.0312 6.84094 6.95456 6.68298 6.72276 6.68298C6.46217 6.68298 6.39434 6.81244 6.34824 7.39798C6.14676 9.95593 4.10212 11.4692 2.33177 10.3706C1.42713 9.80921 0.841576 8.71732 0.737663 7.39798C0.706609 7.00322 0.670416 6.83735 0.60107 6.77197C0.47287 6.65104 0.237505 6.65983 0.137107 6.7893ZM4.5003 13.462C4.66811 13.5164 4.81356 13.6313 4.96941 13.8324C5.36733 14.3458 5.4115 14.3304 3.54295 14.3304C1.67362 14.3304 1.71831 14.3461 2.11801 13.8304C2.25586 13.6526 2.42634 13.5094 2.55077 13.467C2.83675 13.3694 4.20467 13.3659 4.5003 13.462Z" fill="black"/>
</svg>
