<svg width="14" height="12" viewBox="0 0 14 12" fill="none" xmlns="http://www.w3.org/2000/svg">
<path fill-rule="evenodd" clip-rule="evenodd" d="M1.2696 0.0186542C0.786288 0.130542 0.399723 0.41976 0.178043 0.835224C0.0592231 1.05789 0.0588379 1.07054 0.0588379 4.73113V8.40365L0.223942 8.70303C0.413317 9.04637 0.770823 9.33487 1.11512 9.42207C1.24753 9.45565 1.94411 9.48056 2.74993 9.48056H4.15403L5.20976 10.6083C5.79043 11.2285 6.31161 11.748 6.36797 11.7628C6.42427 11.7776 6.51634 11.7776 6.57248 11.7629C6.62861 11.7482 7.08061 11.2287 7.57686 10.6085L8.47916 9.48083L10.1027 9.48039C11.0374 9.48012 11.8121 9.45604 11.9286 9.42351C12.2774 9.32631 12.6378 9.03748 12.8223 8.7074L12.992 8.40365L13.0077 4.87621C13.0255 0.871783 13.0322 0.946946 12.6178 0.493541C12.4906 0.354483 12.2752 0.188639 12.139 0.125019C11.8934 0.0103151 11.8469 0.00926584 6.63549 0.00125808C3.74479 -0.00321521 1.33014 0.00462686 1.2696 0.0186542ZM11.8969 0.821086C11.9908 0.872667 12.1146 0.9845 12.1721 1.0696C12.272 1.2175 12.2766 1.37809 12.2766 4.74091C12.2766 8.21069 12.275 8.25957 12.1626 8.41343C11.9159 8.75091 11.8432 8.76246 9.95585 8.76251C9.01239 8.76257 8.2025 8.77726 8.15605 8.79515C8.10966 8.81304 7.7052 9.28462 7.25733 9.84317L6.44304 10.8587L5.86666 10.2386C5.54971 9.89762 5.11131 9.43223 4.89243 9.20443L4.49453 8.79023L2.87222 8.76262C1.34142 8.73656 1.24109 8.72855 1.09465 8.62064C0.736426 8.35671 0.746938 8.47197 0.746883 4.80707C0.746828 2.9808 0.761522 1.41261 0.779573 1.3221C0.79757 1.23164 0.865703 1.09086 0.930919 1.0093C1.18237 0.694729 1.03692 0.702295 6.60798 0.715273C11.3065 0.726263 11.7402 0.734934 11.8969 0.821086ZM2.42698 2.74118C2.30167 2.88013 2.30167 3.10291 2.42698 3.24186C2.52263 3.34789 2.61658 3.35049 6.39637 3.35049C10.1944 3.35049 10.2699 3.34839 10.3779 3.24003C10.4384 3.17929 10.4879 3.06745 10.4879 2.99152C10.4879 2.91558 10.4384 2.80375 10.3779 2.743C10.2699 2.63465 10.1944 2.63255 6.39637 2.63255C2.61658 2.63255 2.52263 2.63515 2.42698 2.74118ZM2.42698 4.56363C2.29094 4.71451 2.30261 4.95148 2.45208 5.07298C2.5682 5.16731 2.79137 5.17294 6.42146 5.17294C10.1944 5.17294 10.2699 5.17084 10.3779 5.06249C10.4384 5.00174 10.4879 4.88991 10.4879 4.81397C10.4879 4.73804 10.4384 4.6262 10.3779 4.56546C10.2699 4.4571 10.1944 4.455 6.39637 4.455C2.61658 4.455 2.52263 4.4576 2.42698 4.56363ZM2.42924 6.36422C2.28257 6.51145 2.29776 6.75825 2.46204 6.89875C2.56738 6.98877 2.83639 6.99539 6.38652 6.99539C10.159 6.99539 10.1994 6.99423 10.3429 6.88091C10.507 6.75141 10.5281 6.58054 10.4022 6.40022L10.3166 6.27746H6.41618C2.94371 6.27746 2.50623 6.28696 2.42924 6.36422Z" fill="black"/>
</svg>
