<svg width="13" height="13" viewBox="0 0 13 13" fill="none" xmlns="http://www.w3.org/2000/svg">
<path fill-rule="evenodd" clip-rule="evenodd" d="M4.70725 0.102037C2.66817 0.572422 1.03396 2.05841 0.293859 4.11503C0.0770736 4.71738 0.0517578 4.91713 0.0517578 6.02582C0.0517578 7.13451 0.0770736 7.33426 0.293859 7.93661C0.641977 8.90416 1.05352 9.55256 1.78577 10.2873C2.51792 11.022 3.16407 11.435 4.12827 11.7843C4.73092 12.0027 4.92321 12.0269 6.03245 12.0242C7.12671 12.0215 7.34212 11.9941 7.93664 11.7813C8.89627 11.4379 9.54461 11.0244 10.2791 10.2873C11.0138 9.55018 11.4258 8.89958 11.768 7.93661C11.9801 7.34004 12.0074 7.12387 12.01 6.02582C12.0128 4.91273 11.9887 4.71977 11.771 4.11503C11.4229 3.14748 11.0114 2.49908 10.2791 1.76439C9.09843 0.579483 7.91242 0.0610421 6.26094 0.0078498C5.61917 -0.0127851 5.05729 0.0212396 4.70725 0.102037ZM7.74361 0.982644C9.2655 1.51154 10.5453 2.80815 11.0746 4.3576C11.3696 5.22078 11.3744 6.712 11.0851 7.63461C10.5835 9.23442 9.22995 10.5927 7.63568 11.0961C6.71626 11.3863 5.2302 11.3815 4.37001 11.0855C2.80709 10.5478 1.52877 9.2655 0.989181 7.69404C0.687125 6.81435 0.687125 5.23729 0.989181 4.3576C1.61651 2.53072 3.22402 1.13177 5.11852 0.763914C5.6529 0.660097 7.18228 0.787575 7.74361 0.982644ZM5.3927 2.9569C5.1665 3.02734 4.8309 3.21012 4.64693 3.36309C4.29232 3.65776 3.9304 4.29937 3.9304 4.63328C3.9304 4.80478 3.9814 4.83358 4.28455 4.83358C4.60142 4.83358 4.64419 4.80588 4.69126 4.5701C4.90311 3.50698 6.96138 3.15362 7.4475 4.09687C7.52372 4.24489 7.58614 4.42794 7.58614 4.5037C7.58614 4.78589 7.36214 5.11908 7.04491 5.30883C6.18472 5.82323 5.76028 6.47154 5.68744 7.38213L5.64083 7.9644L5.99663 7.93515C6.35215 7.90589 6.35233 7.90562 6.41046 7.4278C6.49043 6.77079 6.7275 6.40752 7.34432 5.99721C8.14867 5.46207 8.43099 4.86403 8.23092 4.11869C8.09987 3.63033 7.73383 3.19975 7.27001 2.98836C6.82703 2.78641 5.98502 2.77229 5.3927 2.9569ZM5.66688 9.01192V9.43022L6.00961 9.4017C6.34228 9.37409 6.35315 9.3618 6.38039 8.98349L6.40854 8.59372H6.03766H5.66688V9.01192Z" fill="black"/>
</svg>
