<svg width="12" height="13" viewBox="0 0 12 13" fill="none" xmlns="http://www.w3.org/2000/svg">
<path fill-rule="evenodd" clip-rule="evenodd" d="M5.64619 0.0263706C5.40891 0.088093 5.25745 0.173414 4.74198 0.535768C4.31925 0.832839 4.26656 0.853624 3.75246 0.925682C3.10149 1.01692 2.78863 1.1581 2.4709 1.50398C2.16421 1.83785 2.07255 2.06585 1.98043 2.72367C1.90799 3.24145 1.89391 3.27556 1.58803 3.67632C1.18138 4.20909 1.08257 4.44989 1.08028 4.91393C1.07805 5.37269 1.16937 5.5973 1.60468 6.20361C1.89163 6.60329 1.9457 6.72099 2.00841 7.08226L2.08079 7.49933L1.72163 8.05833C1.52406 8.36574 1.05819 9.07535 0.686337 9.63527C0.31448 10.1951 0.0102539 10.6662 0.0102539 10.682C0.0102539 10.6977 0.540032 10.7176 1.18756 10.7262L2.36482 10.7417L2.70755 11.5455C2.89608 11.9876 3.10103 12.4645 3.163 12.6052L3.27566 12.861L4.30998 11.3028C5.33223 9.76296 5.34614 9.74534 5.4953 9.80459C5.70375 9.88733 6.36341 9.88807 6.51401 9.80574C6.63176 9.74137 6.68966 9.8163 7.65836 11.2868C8.21955 12.1387 8.69159 12.8359 8.70733 12.8361C8.72306 12.8363 8.93872 12.3588 9.18658 11.7748L9.63717 10.713H10.803C11.4441 10.713 11.9687 10.6986 11.9687 10.6811C11.9687 10.6636 11.515 9.96002 10.9604 9.11766L9.95204 7.58603L10.0169 7.12606C10.0759 6.70675 10.1118 6.62126 10.4233 6.15963C10.764 5.65437 10.9391 5.22271 10.9385 4.88913C10.9379 4.55933 10.8171 4.27437 10.4433 3.72111C10.094 3.20425 10.0628 3.13115 9.95999 2.59144C9.82496 1.88241 9.76551 1.73031 9.51387 1.45087C9.22995 1.13548 8.98209 1.03035 8.29817 0.935442C7.71249 0.854083 7.67993 0.841796 7.24221 0.535882C6.99378 0.362313 6.70906 0.178753 6.6095 0.127997C6.39316 0.0177007 5.88524 -0.0358687 5.64619 0.0263706ZM6.76193 1.40901L7.3055 1.79215L7.99211 1.88574C8.86399 2.00459 8.86926 2.00987 9.01527 2.90534L9.12273 3.56465L9.52365 4.13181C10.0486 4.87449 10.0521 4.95803 9.58516 5.61412C9.39846 5.8764 9.22246 6.1292 9.19391 6.17594C9.16541 6.22268 9.09744 6.56907 9.04291 6.94566C8.96893 7.45655 8.91531 7.65894 8.83178 7.74277C8.75156 7.82327 8.51679 7.89131 8.00413 7.98248C7.29114 8.10932 7.28656 8.11115 6.78917 8.46817C6.51458 8.66528 6.22592 8.85096 6.14776 8.88076C5.92146 8.96712 5.66593 8.86038 5.16401 8.46995L4.70101 8.10983L4.00067 8.00786C3.10618 7.87759 3.1051 7.87649 2.96039 6.9506L2.85345 6.26649L2.48778 5.75933C1.89809 4.94143 1.89769 4.90578 2.46867 4.13881L2.8534 3.62206L2.92046 3.05749C3.03169 2.12172 3.16117 1.99012 4.08689 1.87213L4.67349 1.79738L5.21706 1.40959C5.99098 0.857471 5.97948 0.857471 6.76193 1.40901ZM10.1211 9.66128C10.1439 9.72082 10.0241 9.73695 9.55741 9.7373L8.96481 9.7377L8.76878 10.2282C8.66093 10.4979 8.55175 10.7317 8.52612 10.7476C8.50054 10.7635 8.24896 10.4203 7.9671 9.98499L7.45461 9.19345L7.60892 9.09808C7.69378 9.0456 8.02072 8.96034 8.33541 8.90861C8.65011 8.85688 9.02243 8.75623 9.16278 8.68497L9.41803 8.55538L9.7551 9.07052C9.94048 9.35382 10.1052 9.61965 10.1211 9.66128ZM2.82742 8.73257C3.01103 8.83558 3.26016 8.89982 3.7013 8.95793C4.64185 9.08189 4.63864 9.06978 3.98859 10.041L3.45836 10.8331L3.2363 10.2859L3.01418 9.7385L2.4277 9.7377C2.1051 9.73724 1.84122 9.71881 1.84122 9.6967C1.84122 9.6564 2.53075 8.58857 2.55678 8.58857C2.56439 8.58857 2.68621 8.65339 2.82742 8.73257Z" fill="black"/>
</svg>
