<svg width="12" height="10" viewBox="0 0 12 10" fill="none" xmlns="http://www.w3.org/2000/svg">
<path fill-rule="evenodd" clip-rule="evenodd" d="M1.66795 0.725521C1.41191 1.12449 0.933503 1.8852 0.604658 2.41601L0.00683594 3.38119L0.305213 3.70334C0.469314 3.88056 1.7925 5.36518 3.24547 7.00257C4.69844 8.63984 5.93107 9.97953 5.98452 9.97953C6.03798 9.97953 7.27061 8.63984 8.72358 7.00257C10.1766 5.36518 11.5004 3.87992 11.6653 3.70173L11.9653 3.37797L10.9249 1.71709L9.88459 0.0563211L6.0089 0.0282141L2.13332 0L1.66795 0.725521ZM4.71479 1.49009C3.69469 2.61136 3.56501 2.72797 3.48408 2.59655C3.37632 2.42158 2.67042 0.709214 2.67042 0.622748C2.67042 0.576726 3.32511 0.539072 4.1252 0.539072H5.57999L4.71479 1.49009ZM9.29863 0.589921C9.29863 0.666947 8.65944 2.26539 8.53628 2.49636C8.40211 2.74792 8.3896 2.73816 7.25426 1.49009L6.38906 0.539072H7.84385C8.64394 0.539072 9.29863 0.561922 9.29863 0.589921ZM6.87057 1.87221C7.32407 2.36934 7.69503 2.80382 7.69503 2.83772C7.69503 2.87151 6.9253 2.89919 5.98452 2.89919C5.04375 2.89919 4.27402 2.87151 4.27402 2.83772C4.27402 2.75361 5.90755 0.968183 5.98452 0.968183C6.01841 0.968183 6.41707 1.37498 6.87057 1.87221ZM2.64743 1.94903C2.84061 2.42813 2.97906 2.83986 2.9549 2.864C2.93084 2.88814 2.49904 2.89393 1.99551 2.87676L1.07975 2.84555L1.62295 1.9605C1.92164 1.47378 2.19532 1.076 2.23114 1.07675C2.26695 1.07739 2.45425 1.46992 2.64743 1.94903ZM10.3615 1.98732L10.8918 2.84555L9.97482 2.87676C9.47054 2.89393 9.03746 2.88739 9.01234 2.86228C8.94103 2.79062 9.66318 1.07224 9.75202 1.10228C9.79564 1.11698 10.0699 1.5153 10.3615 1.98732ZM3.34158 3.62331C3.37162 3.72662 3.80694 4.81281 4.30898 6.03707C4.81101 7.26132 5.20507 8.26308 5.18476 8.26308C5.12339 8.26308 0.959909 3.56871 0.959909 3.49951C0.959909 3.46433 1.48354 3.43558 2.12338 3.43558C3.13942 3.43558 3.2939 3.45939 3.34158 3.62331ZM8.09412 3.56967C7.68349 4.63988 6.02419 8.58406 5.98452 8.58406C5.94486 8.58406 4.28556 4.63988 3.87493 3.56967C3.83484 3.46508 4.29957 3.43558 5.98452 3.43558C7.66948 3.43558 8.1342 3.46508 8.09412 3.56967ZM11.0091 3.49951C11.0091 3.56871 6.84566 8.26308 6.78429 8.26308C6.76398 8.26308 7.15804 7.26132 7.66007 6.03707C8.16211 4.81281 8.59743 3.72662 8.62747 3.62331C8.67515 3.45939 8.82963 3.43558 9.84568 3.43558C10.4855 3.43558 11.0091 3.46433 11.0091 3.49951Z" fill="black"/>
</svg>
