<svg width="10" height="12" viewBox="0 0 10 12" fill="none" xmlns="http://www.w3.org/2000/svg">
<path fill-rule="evenodd" clip-rule="evenodd" d="M2.51642 1.20429C1.08819 1.92344 0.106658 2.45143 0.0699162 2.52029C0.00563308 2.64077 -0.0197402 8.14662 0.0429021 8.38072C0.0662245 8.4678 0.771463 8.90188 2.50283 9.89488C3.83783 10.6605 4.95684 11.2869 4.98953 11.2869C5.02223 11.2869 6.14124 10.6605 7.47624 9.89488C9.20761 8.90188 9.91284 8.4678 9.93617 8.38072C9.99881 8.14662 9.97344 2.64077 9.90915 2.52023C9.84839 2.40633 5.12466 -0.00645529 4.97518 1.29818e-05C4.93474 0.00177706 3.82828 0.5437 2.51642 1.20429ZM6.39591 1.96672L7.77205 3.34858H4.98953H2.20702L3.58316 1.96672C4.34002 1.2067 4.97289 0.584862 4.98953 0.584862C5.00618 0.584862 5.63905 1.2067 6.39591 1.96672ZM2.69714 2.20863L1.60638 3.30318L1.18839 2.98929C0.958511 2.81665 0.770408 2.66124 0.770408 2.64395C0.770408 2.61578 3.68776 1.12555 3.75878 1.11744C3.77478 1.11561 3.29702 1.60661 2.69714 2.20863ZM9.20866 2.64395C9.20866 2.66124 9.02056 2.81665 8.79068 2.98929L8.37269 3.30318L7.28175 2.20411L6.19081 1.10509L7.69974 1.85876C8.52962 2.27332 9.20866 2.62666 9.20866 2.64395ZM1.19004 3.59855L1.34597 3.73079L0.945209 5.11265L0.544451 6.49451L0.540232 4.80029L0.536012 3.10608L0.785058 3.28619C0.922004 3.38527 1.10425 3.52581 1.19004 3.59855ZM9.43884 4.80394L9.43468 6.49451L9.14561 5.49487C8.98657 4.94506 8.80568 4.31576 8.74356 4.09643L8.63064 3.69763L9.0222 3.40756C9.23755 3.24797 9.42038 3.11654 9.42841 3.11543C9.43644 3.11431 9.44118 3.87415 9.43884 4.80394ZM7.69095 4.24531C7.56426 4.44748 6.91691 5.48605 6.25246 6.55331C5.58807 7.62058 5.01971 8.49379 4.98953 8.49379C4.95936 8.49379 4.391 7.62058 3.72661 6.55331C3.06216 5.48605 2.41481 4.44748 2.28812 4.24531L2.05777 3.8778H4.98953H7.9213L7.69095 4.24531ZM3.13288 6.47981C3.89268 7.70066 4.48283 8.69972 4.44427 8.69984C4.32321 8.70031 0.625317 8.16197 0.604222 8.14086C0.583653 8.12016 1.6409 4.3571 1.69153 4.27078C1.72768 4.20921 1.55751 3.94836 3.13288 6.47981ZM8.85601 6.21978C9.15235 7.26529 9.38586 8.12981 9.37485 8.14086C9.35381 8.16197 5.65592 8.70031 5.53509 8.69984C5.49671 8.69972 6.09002 7.69578 6.85357 6.46893C7.61705 5.24208 8.25871 4.25637 8.27946 4.27854C8.3002 4.30071 8.55962 5.17428 8.85601 6.21978ZM3.30985 9.01966C4.07803 9.12945 4.7184 9.23112 4.73281 9.24558C4.74723 9.26005 4.75151 9.57793 4.74242 9.95198L4.72584 10.632L3.15586 9.73194C2.29234 9.23688 1.56718 8.81297 1.54438 8.78992C1.52159 8.76681 1.59519 8.76417 1.70799 8.78398C1.8208 8.8038 2.54162 8.90988 3.30985 9.01966ZM8.42982 8.79515C8.40966 8.81532 7.68673 9.23688 6.82321 9.73194L5.25323 10.632L5.23665 9.95198C5.22756 9.57793 5.23219 9.25969 5.24708 9.24482C5.26964 9.22218 8.12892 8.78457 8.38341 8.76481C8.42906 8.76128 8.44992 8.77493 8.42982 8.79515Z" fill="black"/>
</svg>
