<svg width="13" height="11" viewBox="0 0 13 11" fill="none" xmlns="http://www.w3.org/2000/svg">
<path fill-rule="evenodd" clip-rule="evenodd" d="M6.33827 0.0836594C6.29242 0.129672 6.2549 0.284721 6.2549 0.428266C6.2549 0.685379 6.2506 0.689423 5.95964 0.710616C5.70869 0.728812 5.66082 0.756978 5.64095 0.898432C5.61282 1.09803 5.72655 1.18266 6.02494 1.18413C6.22941 1.1851 6.24817 1.20483 6.2681 1.43957C6.30965 1.93002 6.74123 1.91273 6.74123 1.42067C6.74123 1.2017 6.75707 1.1851 6.96702 1.18413C7.26945 1.18266 7.38345 1.0988 7.35518 0.898432C7.33531 0.756978 7.28744 0.728812 7.0365 0.710616C6.74554 0.689423 6.74123 0.685379 6.74123 0.428266C6.74123 0.16941 6.64501 0 6.49807 0C6.45603 0 6.38413 0.0376468 6.33827 0.0836594ZM2.06057 2.47687C2.03653 2.53955 2.01694 2.68247 2.01694 2.79436C2.01694 2.97716 1.99408 2.99793 1.79114 2.99884C1.48872 3.0003 1.37471 3.08417 1.40299 3.28454C1.42286 3.42599 1.47072 3.45415 1.72167 3.47235C2.00269 3.49278 2.01701 3.50456 2.01798 3.71636C2.01944 4.016 2.10378 4.13012 2.30269 4.10189C2.44365 4.08195 2.47172 4.03391 2.48985 3.7821C2.51104 3.48894 2.5141 3.48581 2.77664 3.48581C3.31688 3.48581 3.3339 3.05168 2.79526 3.01139C2.51486 2.99047 2.51056 2.98608 2.48971 2.69766C2.47109 2.44048 2.44657 2.40263 2.28636 2.38401C2.16763 2.37021 2.08898 2.40256 2.06057 2.47687ZM10.5392 2.41685C10.5137 2.44236 10.4929 2.58354 10.4929 2.73057C10.4929 2.99445 10.4895 2.99779 10.2234 2.99779C9.67988 2.99779 9.65924 3.43171 10.2009 3.47221C10.4813 3.49313 10.4856 3.49752 10.5064 3.78593C10.5243 4.03377 10.5529 4.08202 10.6934 4.10189C10.8924 4.13012 10.9767 4.016 10.9782 3.71636C10.9791 3.50456 10.9934 3.49278 11.2745 3.47235C11.5254 3.45415 11.5733 3.42599 11.5931 3.28454C11.6214 3.08417 11.5074 3.0003 11.205 2.99884C11.0021 2.99793 10.9792 2.97716 10.9792 2.79436C10.9792 2.68247 10.9602 2.54129 10.937 2.48064C10.8951 2.37098 10.6277 2.3281 10.5392 2.41685ZM5.10336 3.56403C5.07585 3.60865 4.87326 4.07205 4.65309 4.5938L4.25292 5.54243L3.63862 5.57729L3.02432 5.61215L2.59573 6.62303L2.16707 7.63391L1.55361 7.66877L0.940076 7.70363L0.475914 8.78423C0.220663 9.37856 0.00959866 9.91586 0.00695861 9.97833C0.00431857 10.0407 0.0446139 10.1272 0.0965811 10.1704C0.165431 10.2278 1.9048 10.2442 6.5328 10.2312C12.3224 10.2149 12.8809 10.2034 12.9464 10.0991C13.0016 10.0114 12.9155 9.73606 12.5759 8.9139C12.3326 8.32494 12.1055 7.805 12.0711 7.75857C12.033 7.70698 11.7786 7.66619 11.419 7.65399L10.8293 7.63391L10.4005 6.62303L9.97181 5.61215L9.35939 5.57729L8.74697 5.54243L8.31727 4.53155L7.88756 3.52066L6.52044 3.50177C5.53765 3.48818 5.13928 3.50567 5.10336 3.56403ZM7.85095 4.68841C8.01338 5.08147 8.16171 5.44225 8.18061 5.49014C8.20763 5.55847 7.84373 5.57729 6.49807 5.57729C5.15241 5.57729 4.7885 5.55847 4.81552 5.49014C4.83442 5.44225 4.98275 5.08147 5.14518 4.68841L5.44045 3.97382H6.49807H7.55568L7.85095 4.68841ZM5.7667 6.77989C5.92914 7.17288 6.07747 7.53373 6.09636 7.58163C6.12339 7.64995 5.75948 7.66877 4.41382 7.66877C3.06816 7.66877 2.70425 7.64995 2.73128 7.58163C2.75017 7.53373 2.8985 7.17288 3.06094 6.77989L3.3562 6.0653H4.41382H5.47144L5.7667 6.77989ZM6.78062 6.59243C6.65501 6.88231 6.5244 7.11279 6.49042 7.10463C6.42901 7.08985 6.04648 6.24838 6.04648 6.12812C6.04648 6.09354 6.26303 6.0653 6.52773 6.0653H7.00905L6.78062 6.59243ZM9.9352 6.77989C10.0976 7.17288 10.246 7.53373 10.2649 7.58163C10.2919 7.64995 9.92797 7.66877 8.58231 7.66877C7.23665 7.66877 6.87274 7.64995 6.89977 7.58163C6.91867 7.53373 7.067 7.17288 7.22943 6.77989L7.5247 6.0653H8.58231H9.63993L9.9352 6.77989ZM3.68246 8.87138C3.84489 9.26437 3.99322 9.62522 4.01212 9.67311C4.03914 9.74143 3.67523 9.76026 2.32957 9.76026C0.983914 9.76026 0.620005 9.74143 0.647031 9.67311C0.665928 9.62522 0.814257 9.26437 0.976689 8.87138L1.27196 8.15679H2.32957H3.38719L3.68246 8.87138ZM4.69637 8.68391C4.57076 8.97379 4.44015 9.20427 4.40618 9.19611C4.34476 9.18133 3.96223 8.33986 3.96223 8.2196C3.96223 8.18502 4.17879 8.15679 4.44349 8.15679H4.92481L4.69637 8.68391ZM7.85095 8.87138C8.01338 9.26437 8.16171 9.62522 8.18061 9.67311C8.20763 9.74143 7.84373 9.76026 6.49807 9.76026C5.15241 9.76026 4.7885 9.74143 4.81552 9.67311C4.83442 9.62522 4.98275 9.26437 5.14518 8.87138L5.44045 8.15679H6.49807H7.55568L7.85095 8.87138ZM8.86487 8.68391C8.73926 8.97379 8.60864 9.20427 8.57467 9.19611C8.51325 9.18133 8.13073 8.33986 8.13073 8.2196C8.13073 8.18502 8.34728 8.15679 8.61198 8.15679H9.0933L8.86487 8.68391ZM12.0194 8.87138C12.1819 9.26437 12.3302 9.62522 12.3491 9.67311C12.3761 9.74143 12.0122 9.76026 10.6666 9.76026C9.3209 9.76026 8.95699 9.74143 8.98402 9.67311C9.00291 9.62522 9.15124 9.26437 9.31367 8.87138L9.60894 8.15679H10.6666H11.7242L12.0194 8.87138Z" fill="black"/>
</svg>
