<svg width="13" height="11" viewBox="0 0 13 11" fill="none" xmlns="http://www.w3.org/2000/svg">
<path fill-rule="evenodd" clip-rule="evenodd" d="M5.08848 0.0679718C3.96613 0.170358 2.6157 0.531147 1.74609 0.960915C0.915168 1.37154 0.159917 2.10341 0.0623843 2.59241C0.030803 2.75114 0.00578992 3.67839 0.00686962 4.65295C0.00857915 6.1742 0.0320625 6.47594 0.173233 6.78599C0.523866 7.55632 1.71082 8.33406 3.06404 8.68013C3.40667 8.76771 4.03271 9.0532 4.57571 9.36939C5.08551 9.66625 5.6367 9.98479 5.80054 10.0772C5.96448 10.1695 6.18006 10.2962 6.27975 10.3587C6.44018 10.4592 6.61608 10.3821 7.81257 9.68693C8.78898 9.11956 9.40998 8.82532 10.0504 8.62677C11.576 8.15376 12.6111 7.39625 12.8568 6.57309C12.9995 6.09529 12.9958 3.0415 12.8519 2.55295C12.5954 1.68177 11.2921 0.807156 9.61459 0.380457C8.18218 0.0161471 6.74492 -0.0830791 5.08848 0.0679718ZM7.7046 0.696824C11.0451 1.0215 13.0636 2.46655 11.9843 3.76064L11.7466 4.0455L11.3417 3.81915C9.04298 2.5339 4.41331 2.47991 1.83561 3.70827L1.19049 4.0157L1.01378 3.82086C0.589908 3.35317 0.538892 3.00701 0.820694 2.50962C1.31385 1.63897 3.00871 0.921008 5.08974 0.701248C6.13525 0.590827 6.60546 0.590014 7.7046 0.696824ZM7.55299 3.49276C8.11668 3.54287 8.92646 3.66972 9.35249 3.77463C10.0978 3.95819 11.0718 4.3308 11.0718 4.43238C11.0718 4.55968 9.47351 5.11378 9.1029 5.11495C8.98503 5.1154 8.3651 4.81095 7.7252 4.43852C7.08539 4.06608 6.52062 3.76136 6.47023 3.76136C6.41975 3.76136 5.85606 4.06608 5.2176 4.43852C4.57913 4.81095 3.95911 5.11567 3.83981 5.11567C3.3893 5.11567 1.89437 4.57386 1.89437 4.41053C1.89437 4.30318 3.0393 3.88641 3.78384 3.72281C5.11808 3.42965 6.13975 3.36726 7.55299 3.49276ZM2.5618 5.43141C3.04533 5.59817 3.46299 5.7568 3.48998 5.78389C3.56871 5.86289 3.5832 7.89237 3.50591 8.01787C3.36267 8.25054 1.83066 7.62828 1.21829 7.08873C0.710115 6.64108 0.634716 6.41636 0.634716 5.35042V4.40249L1.15864 4.76536C1.45016 4.96715 2.07279 5.26275 2.5618 5.43141ZM12.2859 6.18034C12.1875 6.85416 11.5032 7.42866 10.2361 7.90104C9.33072 8.23854 9.3623 8.27366 9.3623 6.93018V5.76529L10.0107 5.56765C10.6932 5.35963 11.6822 4.88436 12.0615 4.58207L12.2865 4.40285L12.3145 5.09789C12.3299 5.48007 12.317 5.96718 12.2859 6.18034ZM6.1232 5.0188C6.1232 5.35349 6.09584 5.38897 5.63229 5.65514C5.15947 5.92655 5.13122 5.93169 4.8675 5.79491C4.71688 5.71672 4.59398 5.62336 4.59434 5.58734C4.59497 5.53686 5.99984 4.67832 6.1007 4.66676C6.11312 4.66541 6.1232 4.82377 6.1232 5.0188ZM7.40048 4.99144C7.71242 5.17138 8.06432 5.37913 8.18236 5.45299L8.39713 5.58743L8.11794 5.76475L7.83884 5.94207L7.29593 5.65171C6.77578 5.37353 6.75302 5.34681 6.75302 5.01284C6.75302 4.82107 6.77111 4.66424 6.79315 4.66424C6.81528 4.66424 7.08854 4.8115 7.40048 4.99144ZM6.97931 6.2077L7.47282 6.48723L7.47102 7.088L7.46931 7.68887L6.96725 7.98338L6.46519 8.2779L5.95674 7.96758L5.44838 7.65736V7.09189V6.52642L5.94324 6.22774C6.21542 6.06342 6.44881 5.9288 6.46195 5.92862C6.47509 5.92844 6.70785 6.05403 6.97931 6.2077ZM4.60226 6.38584C4.8397 6.55549 4.86354 6.62077 4.86354 7.10082C4.86354 7.60309 4.8487 7.63822 4.56051 7.81689C4.39387 7.92027 4.23615 8.00487 4.21005 8.00487C4.18405 8.00487 4.16669 7.59858 4.17146 7.102C4.17622 6.60542 4.21635 6.19912 4.26053 6.19912C4.30471 6.19912 4.45848 6.28318 4.60226 6.38584ZM8.73247 7.1103V8.02149L8.44005 7.85048C8.16365 7.68887 8.1462 7.6477 8.12172 7.0973C8.09716 6.54529 8.10877 6.50709 8.34666 6.35956C8.48459 6.27397 8.62792 6.20283 8.66499 6.20156C8.70206 6.20021 8.73247 6.60912 8.73247 7.1103ZM5.69581 8.54849C6.09314 8.79886 6.1232 8.844 6.1232 9.18981C6.1232 9.47439 6.09674 9.54111 6.01073 9.47349C5.94891 9.42492 5.59756 9.21075 5.23001 8.99767L4.56177 8.61025L4.76763 8.44304C5.04655 8.21633 5.19564 8.2333 5.69581 8.54849ZM8.10715 8.41351C8.25309 8.48927 8.37257 8.56691 8.37257 8.58614C8.37257 8.64375 6.94899 9.44947 6.84722 9.44947C6.7954 9.44947 6.75302 9.31061 6.75302 9.14096C6.75302 8.86396 6.80143 8.8041 7.22539 8.55608C7.77766 8.23294 7.76362 8.23529 8.10715 8.41351Z" fill="black"/>
</svg>
