<svg width="11" height="11" viewBox="0 0 11 11" fill="none" xmlns="http://www.w3.org/2000/svg">
<path fill-rule="evenodd" clip-rule="evenodd" d="M2.91344 0.125006C2.80188 0.244219 2.79247 0.311447 2.79247 0.990488V1.72676H1.48878C0.37784 1.72676 0.172235 1.73972 0.0976712 1.81448C0.0266134 1.88584 0.0102539 2.0471 0.0102539 2.67684C0.0102539 3.41395 0.0162078 3.4556 0.133951 3.5383C0.201949 3.5861 0.339056 3.62524 0.438604 3.62524H0.619615L0.634862 6.71976L0.650164 9.81427L0.785046 9.95834L0.919984 10.1024H5.49122H10.0625L10.1974 9.95834L10.3323 9.81427L10.3476 6.71976L10.3628 3.62524H10.5438C10.6434 3.62524 10.7805 3.5861 10.8485 3.5383C10.9662 3.4556 10.9722 3.41395 10.9722 2.67684C10.9722 2.0471 10.9558 1.88584 10.8848 1.81448C10.8102 1.73972 10.6046 1.72676 9.49367 1.72676H8.18997V0.982671C8.18997 0.277107 8.1833 0.232325 8.06121 0.117188C7.83207 -0.0987913 7.67454 -0.0456898 6.57629 0.61794C6.01011 0.960056 5.52183 1.23997 5.49122 1.23997C5.46062 1.23997 4.97234 0.960056 4.40616 0.61794C3.29416 -0.0540096 3.1314 -0.107725 2.91344 0.125006ZM4.26337 0.950285C4.83479 1.29095 5.29263 1.59878 5.28083 1.6343C5.26558 1.68008 4.95392 1.69884 4.20678 1.69884H3.15416L3.13825 1.0882C3.12367 0.5286 3.14019 0.330823 3.20151 0.330823C3.21414 0.330823 3.69196 0.609564 4.26337 0.950285ZM7.82829 1.03343V1.69884H6.77104C5.92686 1.69884 5.7138 1.68382 5.7138 1.62436C5.7138 1.54473 7.6791 0.333112 7.77264 0.355001C7.80592 0.362818 7.82829 0.635752 7.82829 1.03343ZM3.84971 2.64808V3.23438H2.09692H0.34412V2.64808V2.06179H2.09692H3.84971V2.64808ZM6.74322 2.64808V3.23438H5.49122H4.23922V2.64808V2.06179H5.49122H6.74322V2.64808ZM10.6383 2.64808V3.23438H8.88553H7.13273V2.64808V2.06179H8.88553H10.6383V2.64808ZM4.62874 6.69709V9.76894L2.8342 9.75419L1.03967 9.73945L1.02526 6.68235L1.01091 3.62524H2.81979H4.62874V6.69709ZM5.9642 6.69631V9.76737H5.49122H5.01825V6.69631V3.62524H5.49122H5.9642V6.69631ZM9.95718 6.68235L9.94277 9.73945L8.14824 9.75419L6.35371 9.76894V6.69709V3.62524H8.16265H9.97154L9.95718 6.68235Z" fill="black"/>
</svg>
