<svg width="11" height="13" viewBox="0 0 11 13" fill="none" xmlns="http://www.w3.org/2000/svg">
<path fill-rule="evenodd" clip-rule="evenodd" d="M3.56253 0.0316798C3.47311 0.0554121 2.62849 1.04176 2.40669 1.38145C2.25499 1.61374 2.32708 1.85524 2.64707 2.18686C2.79524 2.3404 2.89035 2.47594 2.85849 2.48806C2.63658 2.57224 1.99136 3.06312 1.62925 3.42323C0.898776 4.14978 0.386849 5.04789 0.141343 6.03338C-0.0379997 6.7533 -0.0379997 7.92996 0.141343 8.64988C0.915758 11.7585 4.13423 13.5561 7.17229 12.5766C8.84034 12.0389 10.1892 10.6759 10.713 8.99866C11.2205 7.37405 10.9661 5.64634 10.0094 4.21817C9.68274 3.73055 8.99193 3.05397 8.50131 2.74111C8.28191 2.60117 8.09026 2.47748 8.0755 2.46627C8.06068 2.45501 8.1681 2.33566 8.31428 2.20104C8.60634 1.93192 8.69211 1.71776 8.59426 1.50217C8.44381 1.17089 7.6519 0.0959572 7.52168 0.0462623C7.38645 -0.00531973 3.75207 -0.0187585 3.56253 0.0316798ZM7.21634 1.27588C7.31185 1.41524 7.39004 1.55289 7.39004 1.58183C7.39004 1.61071 6.93824 2.02422 6.38596 2.50075L5.38188 3.36707L4.947 2.971C4.70782 2.75317 4.29694 2.35659 4.03388 2.08964L3.55569 1.60436L3.77743 1.31585L3.99923 1.02741L5.52093 1.02501L7.04264 1.02255L7.21634 1.27588ZM7.63452 3.14542C8.52075 3.59358 9.31893 4.43725 9.75557 5.38729C10.0248 5.9731 10.1246 6.3952 10.1638 7.11403C10.3163 9.91192 7.97691 12.2235 5.17821 12.0402C4.26827 11.9806 3.47824 11.7005 2.7546 11.1812C0.0539227 9.24262 0.153139 5.18233 2.94551 3.3713C3.54224 2.98426 3.47636 2.96328 4.33124 3.81272C4.74418 4.22303 5.14715 4.57513 5.2267 4.5952C5.30632 4.61522 5.43454 4.60607 5.51164 4.57484C5.58881 4.54356 6.03656 4.18243 6.50672 3.77229C6.97687 3.36209 7.36895 3.02595 7.37807 3.02527C7.38713 3.02464 7.50253 3.07868 7.63452 3.14542Z" fill="black"/>
</svg>
