<svg width="50" height="39" viewBox="0 0 50 39" fill="none" xmlns="http://www.w3.org/2000/svg">
<path fill-rule="evenodd" clip-rule="evenodd" d="M0.286676 0.152795C-0.464405 0.711326 0.211524 1.15001 2.895 1.84528C4.29844 2.20904 5.46398 2.5241 5.48488 2.54567C5.506 2.56702 5.24408 3.78524 4.903 5.25272C4.56192 6.72019 4.01095 9.10351 3.67877 10.549L3.07466 13.1769L1.65299 13.0246C0.434536 12.8943 0.210634 12.9263 0.0867883 13.2487C-0.124217 13.7985 0.390289 14.1536 1.84843 14.4642C2.97416 14.7044 3.20873 14.6928 3.69478 14.3742C4.00095 14.1736 4.30667 13.8659 4.37404 13.6903C4.47476 13.4279 4.60906 13.4512 5.12913 13.8217C5.71122 14.2361 7.55935 15.1237 8.52166 15.4512C8.89254 15.5775 8.89698 15.6276 8.57725 16.0842C7.58515 17.5006 8.6464 19.1493 10.5499 19.1493C11.3237 19.1493 11.3428 19.1702 11.3428 20.0189C11.3428 20.7244 11.4771 21.0016 12.0545 21.4874C12.7762 22.0947 13.3485 22.1367 14.8447 21.6918L15.345 21.5433V28.8735C15.345 36.1106 15.3514 36.2136 15.8459 36.9475C16.1216 37.3564 16.6968 37.8965 17.1244 38.1478C17.8877 38.596 18.1728 38.6044 32.6879 38.6044C49.2472 38.6044 48.196 38.7063 49.374 36.988L49.9196 36.192L49.9759 28.1709C50.0319 20.2045 50.0288 20.1438 49.5312 19.2813C49.2557 18.8037 48.7479 18.2034 48.4028 17.9473C47.7935 17.4952 47.4863 17.4783 37.8447 17.3705L27.9141 17.2593L27.541 13.813L27.1682 10.3667L25.2616 6.56811C24.2128 4.47896 23.1673 2.59992 22.9381 2.39248C22.1836 1.70965 21.2965 1.66852 15.6785 2.05585C12.6213 2.26663 9.40126 2.44695 8.52278 2.45629C7.08999 2.47163 6.91078 2.4256 6.77826 2.00849C6.59238 1.42261 5.67921 1.04062 2.89011 0.381366C1.03064 -0.0579876 0.61886 -0.0942298 0.286676 0.152795ZM22.2263 3.84239C22.4611 4.22838 23.3576 5.95422 24.2185 7.67783L25.7839 10.8113L26.1232 13.8579C26.3097 15.5335 26.4622 17.0094 26.4622 17.1375C26.4622 17.3283 24.7328 17.4986 24.6619 17.3149C24.6501 17.2842 24.5247 16.3106 24.3833 15.1508L24.1263 13.0426L22.4594 11.8762C21.5426 11.2345 20.4923 10.6237 20.1254 10.519C18.1883 9.96487 16.5941 12.1301 17.8055 13.6698C18.058 13.9911 19.8186 15.4721 21.7176 16.961C23.6169 18.45 25.2189 19.7938 25.2776 19.9473C25.4546 20.4082 24.9232 21.1504 24.416 21.1504C24.1552 21.1504 22.0271 20.0564 19.6872 18.7195C15.9642 16.5925 14.9336 16.118 11.4422 14.9241C7.79571 13.6771 6.38938 13.0495 5.26765 12.1685C4.8761 11.8613 4.87854 11.7752 5.33391 9.66315C5.59316 8.46027 5.94024 6.92586 6.105 6.25327C6.26998 5.58068 6.46564 4.76156 6.5399 4.43293C6.65886 3.90687 6.76091 3.84728 7.39682 3.9331C7.79393 3.98691 10.5201 3.84394 13.4551 3.61537C16.39 3.38702 19.4681 3.18669 20.2955 3.17024C21.7576 3.14133 21.8114 3.16001 22.2263 3.84239ZM21.1938 12.7357C21.9513 13.2438 22.6143 13.6954 22.667 13.7394C22.8064 13.8557 23.067 16.0364 22.9414 16.0364C22.8018 16.0364 21.61 15.1233 19.9873 13.7728C18.8529 12.8289 18.7068 12.6221 18.9078 12.2466C19.2458 11.6149 19.6525 11.7021 21.1938 12.7357ZM13.5055 17.2998C13.548 17.4272 13.0602 17.5917 12.4069 17.6702C10.7098 17.8741 9.79125 17.8472 9.75301 17.5929C9.73478 17.4706 9.70965 17.2544 9.69742 17.1124C9.68519 16.9705 10.0254 16.7357 10.4534 16.5907C11.0955 16.3731 11.4237 16.392 12.3304 16.6988C12.9348 16.9034 13.4635 17.1737 13.5055 17.2998ZM15.8693 18.1674C16.1628 18.2799 16.1485 18.4109 15.7623 19.1519C15.4139 19.8203 15.0944 20.0822 14.2955 20.3544C13.5358 20.6132 13.1978 20.639 12.9757 20.4544C12.5027 20.062 12.6035 19.8875 13.8442 18.9474C15.0448 18.0378 15.2878 17.9442 15.8693 18.1674ZM47.9379 19.4397L48.4744 20.0636V27.9877V35.9121L47.8769 36.5355L47.2795 37.1592H32.6292H17.9789L17.329 36.5093L16.6791 35.8594L16.6839 28.0046C16.6886 20.7702 16.7206 20.1085 17.0913 19.6266L17.4937 19.1032L18.754 19.8145C20.2114 20.637 20.3242 20.7711 20.1483 21.4717C20.0629 21.8121 19.7125 22.1122 19.1268 22.3466L18.2355 22.7032V28.0468V33.3905L18.8912 33.5216C19.664 33.6762 20.1214 34.1462 20.3226 34.9933L20.4683 35.6066L32.6078 35.5492L44.7474 35.4916L44.9989 34.7134C45.1797 34.1538 45.4378 33.8727 45.9174 33.7129C47.1865 33.2897 47.1405 33.5021 47.137 28.0855C47.135 25.3107 47.06 22.9389 46.9702 22.8151C46.8804 22.6912 46.5097 22.4898 46.1466 22.3675C45.5356 22.1616 45.1125 21.612 44.8248 20.6501C44.7165 20.2879 44.0879 20.261 35.7224 20.261C27.3552 20.261 26.7288 20.2341 26.6245 19.8719C26.563 19.6578 26.4395 19.3049 26.3502 19.0875C26.1954 18.711 26.7017 18.695 36.7944 18.7539L47.4013 18.8158L47.9379 19.4397ZM24.9463 22.4755C25.3867 22.3539 25.8701 22.106 26.0207 21.9248C26.2539 21.6438 27.5628 21.5953 34.8829 21.5964L43.4716 21.598L43.854 22.2701C44.0646 22.6399 44.5391 23.1143 44.9088 23.3249L45.581 23.7073L45.5826 27.9817L45.5839 32.2563L44.9206 32.5991C44.5558 32.7879 44.1031 33.2406 43.9143 33.6055L43.5714 34.2687L32.6265 34.2674L21.6818 34.2658L21.2994 33.5937C21.0888 33.2239 20.6143 32.7494 20.2446 32.5389L19.5724 32.1564L19.5709 28.0002L19.5695 23.8436L20.2464 23.4439C20.6186 23.224 21.1135 22.7212 21.3463 22.3266L21.7696 21.6091L22.9576 22.1529C23.9584 22.6112 24.2717 22.6619 24.9463 22.4755ZM29.9115 23.8096C29.7114 24.44 29.9421 24.7079 30.6854 24.7079C31.4781 24.7079 32.4655 25.0683 32.4655 25.3578C32.4655 25.4768 31.9506 25.6042 31.3211 25.6413C30.0275 25.7171 29.4943 26.1869 30.0042 26.8015C30.2072 27.0461 30.6768 27.1537 31.5399 27.1537C32.6665 27.1537 32.7506 27.1861 32.4362 27.5008C32.2452 27.6915 31.5995 27.9179 31.0014 28.0035C30.2139 28.116 29.8928 28.2676 29.8379 28.5531C29.7271 29.1279 33.0843 32.5291 33.6782 32.4437C34.5098 32.3239 34.3397 31.6015 33.2097 30.4544C32.0775 29.3049 32.0778 29.3304 33.1859 28.6961C33.3985 28.5742 33.7202 28.1891 33.9008 27.8403C34.0811 27.4912 34.4824 27.1421 34.7924 27.0643C35.6355 26.8526 35.5695 25.9375 34.689 25.6306C33.8461 25.3367 33.8129 24.7615 34.6334 24.667C35.1186 24.6112 35.2449 24.482 35.2449 24.0409V23.485L32.6494 23.4225C30.2114 23.3638 30.0455 23.3872 29.9115 23.8096Z" fill="#302F2F"/>
</svg>
