<svg width="46" height="40" viewBox="0 0 46 40" fill="none" xmlns="http://www.w3.org/2000/svg">
<path fill-rule="evenodd" clip-rule="evenodd" d="M23.3531 0.260755C22.168 0.840658 21.6281 2.07448 22.0879 3.15141C22.1993 3.41184 22.2225 3.63073 22.1398 3.63774C22.0571 3.64494 21.1498 3.6706 20.1235 3.69514C16.8877 3.77192 15.666 4.79792 15.666 7.43831C15.666 8.63078 15.8109 8.97721 16.3101 8.97721C16.6883 8.97721 16.7026 9.23136 16.7026 15.9324C16.7026 22.6265 16.719 22.9178 17.139 23.6904C17.4382 24.2402 17.8273 24.6073 18.3749 24.8559C19.135 25.2012 19.6369 25.2189 28.6708 25.2189C39.3739 25.2189 39.1542 25.2459 40.0755 23.8155C40.5323 23.106 40.5385 23.0016 40.542 16.0497L40.5453 9.00287L41.0118 8.94399C41.4437 8.88936 41.4829 8.77844 41.5389 7.4527C41.6116 5.73311 41.2527 4.90884 40.1502 4.26287C39.5211 3.89429 39.0658 3.81234 37.2281 3.73685C35.5579 3.66838 35.0717 3.59123 35.1397 3.40538C35.1886 3.2723 35.2655 2.83119 35.3109 2.42515C35.4845 0.874434 33.7448 -0.35717 32.0277 0.100921C31.3385 0.284748 30.9917 0.573408 30.0133 1.77788C29.3631 2.57797 28.738 3.23521 28.624 3.23834C28.5099 3.24148 27.9665 2.66305 27.4163 1.95303C26.8662 1.24319 26.1997 0.535941 25.9351 0.381645C25.1444 -0.0795836 24.1444 -0.126279 23.3531 0.260755ZM25.4738 1.27162C25.7494 1.50011 26.3168 2.11637 26.7348 2.64109L27.4946 3.59529L25.8823 3.66524C24.1088 3.74202 23.476 3.54435 23.0912 2.7928C22.6674 1.96466 23.5075 0.908394 24.6213 0.868897C24.8145 0.861883 25.1981 1.04313 25.4738 1.27162ZM33.8165 1.30945C34.4254 1.85134 34.4826 2.67284 33.9523 3.25588C33.6189 3.62242 33.3824 3.66727 31.7235 3.67798C30.7031 3.68444 29.8806 3.62685 29.8961 3.54989C29.9502 3.28227 31.7281 1.19502 32.0409 1.03187C32.6036 0.738225 33.2967 0.846564 33.8165 1.30945ZM39.5562 4.99337C40.2458 5.39554 40.5453 6.04576 40.5453 7.14024V8.05439H28.624H16.7026V7.21462C16.7026 5.78903 17.4032 4.93745 18.7348 4.7444C19.1565 4.68312 23.899 4.64713 29.2735 4.66429C37.8774 4.69179 39.1067 4.73111 39.5562 4.99337ZM39.5087 15.9076C39.5087 23.4248 39.4807 23.6269 38.3742 24.0756C37.9784 24.2361 35.2902 24.2961 28.4898 24.2961H19.1491L18.4442 23.6686L17.7392 23.0411V16.0091V8.97721H28.624H39.5087V15.9076ZM22.3741 12.5794C22.3034 12.7436 22.3278 12.9511 22.4284 13.0404C22.5291 13.1299 24.8214 13.2281 27.5222 13.2588L32.4332 13.3145L33.0697 13.8577C33.8696 14.5404 34.1816 15.475 33.9032 16.3539C33.4261 17.86 32.6169 18.2492 29.744 18.3546C28.4032 18.4037 27.4837 18.3668 27.4837 18.2638C27.4837 18.1682 27.7636 17.8513 28.1056 17.5595C28.8081 16.9604 28.8883 16.6389 28.3789 16.4647C27.9255 16.3098 25.615 18.3064 25.6239 18.8457C25.6272 19.0519 26.1852 19.7176 26.8635 20.3252C28.0327 21.3721 28.1158 21.413 28.4556 21.1107C28.7954 20.8082 28.7728 20.7539 28.025 20.0722L27.2359 19.3527L29.6923 19.2839C31.7828 19.2254 32.2725 19.1523 32.9814 18.7928C34.4889 18.0283 35.3246 16.4706 34.9736 15.0797C34.7298 14.1142 34.3197 13.5624 33.3616 12.9116L32.5966 12.3917L27.5496 12.3363C23.0562 12.287 22.4885 12.3138 22.3741 12.5794ZM0.254415 24.0058C0.0275979 24.532 0.683584 24.6558 3.96663 24.7066C5.78303 24.7346 7.24594 24.8199 7.21733 24.896C7.18871 24.972 7.16549 27.7336 7.16549 31.0327V37.0311H3.76676C1.01427 37.0311 0.346469 37.0811 0.254415 37.2945C0.00727968 37.8679 0.645229 37.9632 4.39186 37.9122L8.09474 37.8617L8.20193 37.308L8.30932 36.7543L10.8134 36.7028L13.3175 36.6511L17.9644 38.3173C23.007 40.1255 23.8212 40.2721 25.6894 39.7075C26.6801 39.4079 43.1127 30.2315 44.2325 29.3525C45.9098 28.0356 44.8389 25.5881 42.5854 25.5881C42.0999 25.5881 40.999 26.1333 36.3469 28.6773C34.2929 29.8008 33.4962 30.3349 33.4962 30.5885C33.4962 30.7849 33.6397 30.9405 33.8209 30.9405C33.9994 30.9405 35.9916 29.9438 38.2477 28.7257C40.5041 27.5076 42.533 26.5109 42.7563 26.5109C43.3752 26.5109 44.0699 27.1907 44.0699 27.796C44.0699 28.1561 43.8854 28.4588 43.4998 28.7312C42.4588 29.4667 26.5669 38.3733 25.6399 38.7407C24.1828 39.3186 22.9214 39.1291 19.1905 37.7718C13.4817 35.6949 13.6627 35.7392 10.8881 35.7392H8.40946L8.39827 33.7551C8.37816 30.188 8.37546 26.6098 8.39267 26.2802C8.40801 25.9866 8.71278 25.9572 11.7404 25.9572C13.8408 25.9572 15.2384 26.0353 15.5241 26.1685C15.7731 26.2848 16.6311 26.9302 17.4305 27.6026C18.3788 28.4003 19.18 28.9043 19.7352 29.0524C20.2995 29.203 22.1628 29.2794 25.2673 29.2794C29.8934 29.2794 29.9552 29.2845 30.5198 29.7168C31.2583 30.2823 31.3097 31.3076 30.6299 31.9135C30.198 32.2987 29.9422 32.3306 26.5973 32.417C23.1988 32.5048 23.0261 32.5272 23.0261 32.8784C23.0261 33.2287 23.1847 33.2503 26.136 33.3022C29.7983 33.3664 30.3755 33.2948 31.2056 32.673C32.4419 31.7468 32.4411 30.0481 31.2038 28.992L30.5675 28.4488L25.2327 28.3566L19.8981 28.2643L19.0777 27.6807C18.6266 27.3597 17.931 26.792 17.5319 26.4192C16.2355 25.2079 15.9467 25.1364 11.934 25.0344L8.3058 24.9421L8.24091 24.3423L8.1758 23.7424H4.27202C1.08186 23.7424 0.347298 23.7906 0.254415 24.0058ZM19.0757 32.6176C18.7993 33.0159 19.4035 33.2246 20.6937 33.1765C21.1176 33.1608 21.2638 33.0606 21.2638 32.7861C21.2638 32.4668 21.1255 32.417 20.2394 32.417C19.6759 32.417 19.1524 32.5072 19.0757 32.6176ZM4.69082 35.2635C4.36905 35.6087 4.57327 35.9237 5.11896 35.9237C5.42891 35.9237 5.51869 35.8209 5.46955 35.5228C5.38662 35.0221 5.02753 34.9023 4.69082 35.2635Z" fill="black"/>
</svg>
