<svg width="42" height="36" viewBox="0 0 42 36" fill="none" xmlns="http://www.w3.org/2000/svg">
<path fill-rule="evenodd" clip-rule="evenodd" d="M18.7486 0.11817C15.8662 0.488338 12.8102 1.58596 10.3602 3.13083C7.89289 4.68646 5.20852 7.58169 4.03925 9.94819C3.58518 10.8673 3.57137 10.9739 3.87131 11.2576C4.33187 11.6937 4.75019 11.4704 5.26396 10.5144C7.80456 5.78562 12.8667 2.32515 18.444 1.50428C20.3023 1.23079 23.5428 1.37839 25.3483 1.81852C30.2368 3.01013 34.5829 6.34049 36.8729 10.6491C37.3589 11.5634 38.3448 14.1502 38.3448 14.5107C38.3448 14.5511 37.9433 14.3994 37.4525 14.1738C36.4331 13.705 35.8474 13.8046 35.9445 14.43C36.0186 14.9076 38.5722 16.497 39.2795 16.5057C39.8166 16.5124 42 14.1086 42 13.5105C42 13.0625 41.5033 12.771 41.1211 12.9945C40.993 13.0694 40.6731 13.3723 40.4106 13.6677C39.7821 14.3746 39.6359 14.3462 39.4679 13.484C39.3908 13.0877 39.0551 12.1146 38.7221 11.3218C36.8077 6.76467 32.499 2.8064 27.6418 1.14295C24.8266 0.178903 21.3736 -0.219133 18.7486 0.11817ZM14.078 11.5009L10.0166 13.9662L9.86429 18.2658C9.78042 20.6304 9.73473 23.949 9.76275 25.6404L9.81352 28.7155L17.8348 28.757L25.856 28.7987L29.1475 25.4897L32.4393 22.1808L32.4474 15.9099C32.4537 11.1152 32.396 9.59436 32.2019 9.44886C32.0527 9.33701 29.1037 9.21266 25.0437 9.14692L18.1394 9.03545L14.078 11.5009ZM19.9568 10.5173C19.8506 10.6034 18.7488 11.3818 17.5078 12.247C15.3474 13.7537 15.2058 13.8203 14.1673 13.8203C13.4836 13.8203 13.1542 13.7531 13.2759 13.6381C13.3819 13.5378 14.611 12.7619 16.0071 11.9138C18.0689 10.661 18.6962 10.3704 19.3476 10.3662C19.7889 10.3633 20.063 10.4312 19.9568 10.5173ZM24.1204 10.505C24.1153 10.5842 23.1964 11.2978 22.0785 12.0906C18.9573 14.3041 19.2562 13.7736 19.2562 17.1002V19.9804L18.621 19.6696C18.0181 19.3744 17.7302 19.3773 16.6671 19.6892L16.2102 19.8232V17.3081V14.793L19.307 12.5922C22.086 10.6174 22.4924 10.3899 23.2669 10.3762C23.7416 10.3678 24.1256 10.4258 24.1204 10.505ZM29.5011 10.72C29.3951 10.8119 28.4084 11.5471 27.3088 12.3537L25.3093 13.8203H23.8058C22.9789 13.8203 22.3059 13.7554 22.3106 13.6762C22.3153 13.597 23.2518 12.8628 24.3921 12.0448L26.4652 10.5576L28.0796 10.5553C29.0058 10.554 29.6118 10.6241 29.5011 10.72ZM31.0343 16.4751V21.6285L28.5974 24.0632L26.1606 26.4979L26.1612 23.5706C26.1616 21.9606 26.2207 19.3018 26.2926 17.6623L26.4232 14.6814L28.678 13.0102C29.918 12.0912 30.9557 11.3355 30.9835 11.3305C31.0113 11.3257 31.0343 13.6408 31.0343 16.4751ZM14.9459 18.2968C15.0107 22.0473 15.0363 22.0895 16.7132 21.231L17.758 20.6961L18.8241 21.2074C20.6406 22.0786 20.6777 22.0205 20.6777 18.3241V15.1657H22.8424H25.007L24.8731 19.5212C24.7994 21.9166 24.7391 24.7274 24.7391 25.7676V27.6584H17.9363H11.1335L11.1345 23.4782C11.1349 21.1789 11.1948 18.3218 11.2673 17.1286L11.3995 14.9595L13.1449 15.0145L14.8903 15.0696L14.9459 18.2968ZM1.2972 16.5266C0.338714 17.4884 -0.0408228 18.0094 0.00344634 18.3025C0.0950306 18.9078 0.734293 18.9279 1.37619 18.346L1.93545 17.839L2.07577 19.4332C2.77575 27.3861 8.78173 33.8869 17.0747 35.6679C19.4295 36.1736 23.3493 36.0925 25.7675 35.4877C32.6426 33.7687 37.8564 28.7549 39.5579 22.2264C40.0993 20.1497 40.0578 19.7031 39.3164 19.6221C38.8551 19.5718 38.7446 19.6502 38.6398 20.1026C38.0503 22.6485 37.6019 23.9658 36.8106 25.477C34.6077 29.6838 30.3436 32.9651 25.4499 34.2196C23.1412 34.8115 19.0254 34.8113 16.7179 34.2194C13.4393 33.3781 10.7216 31.8592 8.37051 29.5538C5.3527 26.5948 3.76794 23.2418 3.47959 19.207L3.34962 17.3861L4.01346 18.1019C4.71912 18.8624 5.23898 18.9985 5.64979 18.5301C5.85225 18.2991 5.84047 18.1578 5.58907 17.8094C5.05337 17.0665 3.09883 15.1657 2.87078 15.1657C2.75138 15.1657 2.04328 15.7782 1.2972 16.5266Z" fill="black"/>
</svg>
