<svg width="26" height="15" viewBox="0 0 26 15" fill="none" xmlns="http://www.w3.org/2000/svg">
<path d="M6.22629 0.182818C6.12383 0.308479 6.11245 0.411293 6.20352 0.548378C6.30598 0.719734 6.77273 0.742582 11.0077 0.776854L15.6866 0.799701V3.46143C15.6866 5.38062 15.7207 6.15744 15.8232 6.26025C15.9256 6.36306 16.8705 6.39734 19.3864 6.39734H22.8131L23.5417 6.9114C23.9515 7.197 24.3386 7.53971 24.4183 7.68822C24.5093 7.85957 24.5549 8.545 24.5663 9.79019V11.6523H23.9629C23.3481 11.6523 23.3481 11.6523 23.2229 11.2182C23.0522 10.647 22.3805 9.88158 21.7885 9.56171C21.1282 9.219 19.9215 9.219 19.2612 9.56171C18.6692 9.88158 17.9976 10.647 17.8268 11.2182L17.7016 11.6523H15.2654C13.0454 11.6523 12.8291 11.6294 12.7722 11.4466C11.9753 8.68208 8.27545 8.545 7.30779 11.2524L7.18256 11.5951L5.98722 11.6294C4.66665 11.6637 4.40481 11.7779 4.6325 12.212C4.74634 12.4176 4.89434 12.4519 5.97584 12.4748L7.18256 12.509L7.31917 13.0003C7.52409 13.6628 7.95669 14.2112 8.60559 14.5882C9.06096 14.8623 9.26587 14.908 9.99446 14.908C10.6889 14.908 10.9394 14.8509 11.3606 14.6224C11.9639 14.2797 12.5559 13.5258 12.7267 12.9089L12.8519 12.4519H15.2654H17.6902L17.8382 12.9888C17.9406 13.4001 18.1342 13.6857 18.5668 14.1084C19.4092 14.9194 20.3199 15.1593 21.4242 14.8281C22.1187 14.6224 23.0294 13.6857 23.2115 12.9888L23.3595 12.4519H24.1792C24.6346 12.4519 25.0785 12.4176 25.181 12.3834C25.3404 12.3263 25.3632 12.0064 25.3632 10.0415C25.3632 7.26554 25.329 7.16273 24.0881 6.29452C23.314 5.73476 23.2002 5.59767 21.743 3.3472C20.0012 0.639769 19.8987 0.502684 19.2726 0.21709C18.8514 0.0228863 18.396 3.91006e-05 12.6014 3.91006e-05C7.05734 3.91006e-05 6.3629 0.0228863 6.22629 0.182818ZM18.9425 0.982481C19.3068 1.15384 19.7052 1.7136 21.7999 4.99221L22.187 5.59767H19.3295H16.4835V3.27865C16.4835 1.99919 16.5176 0.913939 16.5632 0.879667C16.7225 0.719734 18.5554 0.799701 18.9425 0.982481ZM11.019 10.4071C11.9981 10.9554 12.3055 12.2691 11.6793 13.2173C11.3606 13.7085 10.5864 14.1655 10.0969 14.1655C8.76497 14.1655 7.72901 12.8746 8.05915 11.6408C8.3096 10.7041 9.35695 9.97297 10.2221 10.1215C10.4384 10.1557 10.8027 10.2928 11.019 10.4071ZM21.5039 10.3385C22.6537 10.944 22.8586 12.7261 21.891 13.5829C20.6046 14.7138 18.692 13.9827 18.5554 12.3034C18.4188 10.6812 20.0467 9.59598 21.5039 10.3385Z" fill="#FD9149"/>
<path d="M3.39167 3.25585C3.32337 3.34724 3.27783 3.50718 3.3006 3.62141C3.33475 3.81562 3.53967 3.82704 5.86205 3.86131C8.32104 3.88416 8.38934 3.88416 8.45765 3.65568C8.62841 3.13019 8.4235 3.0845 5.8962 3.0845C3.97227 3.0845 3.50552 3.11877 3.39167 3.25585Z" fill="#FD9149"/>
<path d="M0.53423 6.35163C0.431772 6.4773 0.420388 6.58011 0.511461 6.71719C0.613919 6.88855 0.955446 6.9114 3.45997 6.94567C5.98727 6.96852 6.30603 6.95709 6.43125 6.78574C6.53371 6.64865 6.53371 6.53441 6.45402 6.38591C6.35156 6.18028 6.15803 6.16885 3.51689 6.16885C1.06929 6.16885 0.67084 6.1917 0.53423 6.35163Z" fill="#FD9149"/>
<path d="M2.20778 8.86483C2.10532 8.95622 2.02563 9.08188 2.02563 9.139C2.02563 9.19612 2.10532 9.32178 2.20778 9.41317C2.35578 9.56168 2.68592 9.59595 4.06341 9.59595C5.79381 9.59595 6.01011 9.53883 6.01011 9.11615C6.01011 8.77344 5.61166 8.68205 3.97234 8.68205C2.67453 8.68205 2.35578 8.71632 2.20778 8.86483Z" fill="#FD9149"/>
</svg>
