<svg width="12" height="13" viewBox="0 0 12 13" fill="none" xmlns="http://www.w3.org/2000/svg">
<path fill-rule="evenodd" clip-rule="evenodd" d="M5.6548 0.00615782C5.61457 0.0118499 5.48839 0.0294343 5.37439 0.0452145C4.00671 0.234729 2.74207 1.28265 2.22824 2.65223C2.02398 3.19668 1.95195 3.60417 1.95059 4.22283C1.94922 4.84303 2.04751 5.34208 2.279 5.89032C2.40377 6.18577 2.40446 6.18697 3.20091 7.48727C3.56442 8.08077 3.8538 8.57389 3.84395 8.58312C3.8341 8.59234 3.71633 8.61989 3.58222 8.64431C2.68145 8.80844 1.75893 9.14775 1.22808 9.51016C0.694063 9.87471 0.411582 10.3998 0.490657 10.8809C0.572878 11.3812 0.963353 11.8195 1.63155 12.1615C3.37355 13.0532 6.55772 13.2643 8.95321 12.6469C9.99365 12.3787 10.808 11.9532 11.1576 11.4951C11.6334 10.8714 11.4996 10.1404 10.8106 9.5993C10.3108 9.2068 9.31752 8.82335 8.33697 8.64438C8.20286 8.61991 8.08504 8.59229 8.07514 8.58302C8.06524 8.57374 8.37606 8.04631 8.76582 7.41094C9.15559 6.77556 9.52197 6.15279 9.57998 6.027C9.72779 5.70652 9.82706 5.39864 9.90272 5.02586C9.95924 4.74751 9.96778 4.64582 9.96807 4.24824C9.96826 3.99667 9.95454 3.69936 9.93756 3.58755C9.6625 1.77565 8.33765 0.365647 6.61794 0.0546419C6.41215 0.0174403 5.79496 -0.0136373 5.6548 0.00615782ZM6.61146 0.828761C7.85881 1.09525 8.8379 2.08061 9.15064 3.38426C9.3399 4.1732 9.24408 5.05138 8.89218 5.75267C8.77916 5.97791 5.98398 10.5618 5.95959 10.5619C5.95289 10.5619 5.42621 9.70847 4.78919 8.66537C4.15218 7.62225 3.50695 6.5676 3.35536 6.32167C3.20377 6.07574 3.0404 5.78878 2.99231 5.68396C2.31911 4.21602 2.73639 2.43532 3.98289 1.45682C4.46519 1.0782 5.00628 0.854325 5.64261 0.770113C5.83453 0.744727 6.36967 0.777126 6.61146 0.828761ZM5.72795 2.31845C5.70113 2.32491 5.61933 2.34287 5.54618 2.35837C5.01601 2.47056 4.49994 2.92768 4.27319 3.48591C4.17317 3.73214 4.14355 3.89762 4.14355 4.21012C4.14355 4.52262 4.17317 4.6881 4.27319 4.93433C4.49908 5.49045 4.9798 5.9187 5.54508 6.06741C5.71917 6.11322 6.20001 6.11322 6.37411 6.06741C6.93939 5.9187 7.42011 5.49045 7.64599 4.93433C7.74601 4.6881 7.77564 4.52262 7.77564 4.21012C7.77564 4.04485 7.76094 3.85719 7.74177 3.77813C7.57638 3.09534 7.06543 2.55223 6.41069 2.36333C6.28721 2.3277 5.81754 2.29683 5.72795 2.31845ZM6.15732 3.09257C6.72979 3.2057 7.1307 3.79092 7.03748 4.37727C6.95821 4.87576 6.59832 5.25083 6.11999 5.33344C5.41492 5.45518 4.76488 4.77775 4.88171 4.04297C4.9838 3.40086 5.55688 2.9739 6.15732 3.09257ZM4.99699 10.4227C5.49036 11.2294 5.70313 11.556 5.76258 11.5977C5.81922 11.6375 5.88064 11.6555 5.95959 11.6555C6.03855 11.6555 6.09997 11.6375 6.15661 11.5977C6.21603 11.556 6.42936 11.2288 6.92288 10.4225L7.60683 9.30502L7.70369 9.31216C7.75694 9.3161 7.93221 9.3424 8.09314 9.37063C9.23389 9.57071 10.0866 9.91267 10.4985 10.3353C10.7838 10.628 10.7838 10.8068 10.4986 11.0965C9.96841 11.635 8.75214 12.027 7.09342 12.194C6.6771 12.2359 5.21429 12.2357 4.81358 12.1937C3.92324 12.1003 3.25526 11.9685 2.65565 11.7679C2.07521 11.5737 1.67761 11.3576 1.42056 11.0965C1.15413 10.8259 1.14145 10.6477 1.36973 10.3828C1.69685 10.0033 2.46912 9.65376 3.43736 9.44709C3.83768 9.36163 4.22016 9.29534 4.27714 9.30154C4.29726 9.30372 4.62119 9.80826 4.99699 10.4227Z" fill="#FD9149"/>
</svg>
