<svg width="15" height="16" viewBox="0 0 15 16" fill="none" xmlns="http://www.w3.org/2000/svg">
<path fill-rule="evenodd" clip-rule="evenodd" d="M9.92109 0.0572864C9.86634 0.0892064 9.79274 0.166464 9.75755 0.22895C9.69385 0.342009 9.69353 0.347785 9.68549 1.44528L9.67744 2.54801L9.3584 2.56738C8.4602 2.62187 7.71799 2.83445 6.98148 3.24811C5.24531 4.22325 4.09831 6.08117 3.90249 8.23548C3.85959 8.70754 3.8654 9.84315 3.91135 9.96455C4.01866 10.248 4.36894 10.3442 4.57994 10.1483C4.62421 10.1072 4.71216 9.96897 4.7754 9.84111C5.46688 8.44322 6.62512 7.49567 8.05813 7.15553C8.27968 7.10294 8.45674 7.0879 9.00406 7.07505L9.67739 7.05926L9.68549 8.16848C9.69353 9.27323 9.69383 9.27819 9.75764 9.39149C9.8804 9.60946 10.1616 9.68584 10.3472 9.55163C10.4734 9.46039 14.2647 5.09721 14.303 4.99914C14.3512 4.87585 14.3512 4.74411 14.3028 4.62115C14.2474 4.48015 10.4049 0.0912822 10.2908 0.0386338C10.1668 -0.0185574 10.0402 -0.0121795 9.92109 0.0572864ZM12.1029 3.43632C12.7491 4.17818 13.2779 4.79616 13.2779 4.8096C13.2779 4.82308 12.6677 5.53387 11.9218 6.38918L10.5658 7.94429L10.5522 7.16693C10.5324 6.04293 10.5977 6.10379 9.41144 6.10379C8.49149 6.10379 8.15792 6.13782 7.60967 6.28758C6.65306 6.5489 5.79768 7.0718 5.07264 7.83842L4.7926 8.13452L4.81149 7.96905C4.82187 7.87804 4.8669 7.65096 4.91158 7.46441C5.31027 5.79948 6.42742 4.45006 7.90489 3.84878C8.4354 3.6329 8.8962 3.54863 9.69355 3.5217C10.5763 3.49189 10.5522 3.52303 10.5522 2.4141V1.66679L10.74 1.87715C10.8433 1.99282 11.4566 2.69446 12.1029 3.43632ZM1.75908 2.58378C1.47422 2.62987 1.19227 2.77073 0.951481 2.98722C0.763325 3.15641 0.543824 3.51159 0.460963 3.78106L0.398898 3.98281L0.391294 8.88664C0.382789 14.3482 0.371914 14.0088 0.569418 14.4445C0.691966 14.7149 0.981654 15.0428 1.22168 15.1828C1.31441 15.2369 1.48504 15.3079 1.60083 15.3406C1.80711 15.3988 1.92358 15.4 7.36308 15.4C12.8026 15.4 12.919 15.3988 13.1253 15.3406C13.2411 15.3079 13.4117 15.2369 13.5045 15.1828C13.7445 15.0428 14.0342 14.7149 14.1567 14.4445C14.3485 14.0213 14.3434 14.1242 14.3349 10.897C14.3273 8.02811 14.3268 8.00284 14.271 7.92046C14.1643 7.76258 14.0771 7.71333 13.9048 7.71333C13.7324 7.71333 13.6453 7.76258 13.5385 7.92046C13.4829 8.00269 13.4821 8.03301 13.4687 10.9271C13.4555 13.7575 13.4533 13.8544 13.4014 13.97C13.3329 14.1224 13.1834 14.2875 13.0453 14.3631C12.9388 14.4213 12.851 14.4222 7.36308 14.4222C1.87517 14.4222 1.78735 14.4213 1.68088 14.3631C1.54274 14.2875 1.39324 14.1224 1.32474 13.97C1.27208 13.8528 1.27112 13.7627 1.27112 8.97689V4.10315L1.33014 3.98281C1.40725 3.82559 1.57073 3.65341 1.70724 3.58566C1.80514 3.53708 1.93729 3.53001 3.00195 3.5165C4.17414 3.50164 4.18861 3.5007 4.27286 3.43437C4.44766 3.29673 4.50196 2.98559 4.38502 2.79139C4.35117 2.73517 4.26885 2.65869 4.20208 2.62148C4.08184 2.55442 4.07026 2.55381 2.98935 2.55754C2.38913 2.55959 1.83551 2.57141 1.75908 2.58378Z" fill="black"/>
</svg>
