<svg width="12" height="12" viewBox="0 0 12 12" fill="none" xmlns="http://www.w3.org/2000/svg">
<path fill-rule="evenodd" clip-rule="evenodd" d="M6.4226 0.540202V1.09715L5.94822 1.13061C3.55699 1.29929 1.51549 3.05121 1.01432 5.36468C0.900735 5.88924 0.897741 6.95333 1.00848 7.45446C1.45383 9.46979 2.95015 11.027 4.94856 11.5548C6.09895 11.8587 7.32375 11.7938 8.41598 11.3712C10.4049 10.6016 11.7066 8.85901 11.8757 6.73974C11.9025 6.40351 11.8923 6.30135 11.8172 6.15508C11.6238 5.77857 11.1492 5.63424 10.8024 5.84646C10.5774 5.98412 10.5017 6.16231 10.4604 6.65194C10.3144 8.38136 9.14325 9.77572 7.44794 10.2386C6.89626 10.3892 5.89818 10.3892 5.3465 10.2386C3.39286 9.70523 2.10183 7.85236 2.36163 5.95478C2.61645 4.09341 4.13663 2.6662 6.03597 2.50506L6.41914 2.47257L6.43356 3.04164L6.44797 3.61071L7.69139 2.80686C8.37528 2.3647 9.00841 1.95646 9.09839 1.89958L9.26196 1.79624L7.88664 0.906732C7.13018 0.417516 6.49131 0.00958206 6.46695 0.000262205C6.44254 -0.00910858 6.4226 0.23387 6.4226 0.540202Z" fill="black"/>
</svg>
