<svg width="16" height="9" viewBox="0 0 16 9" fill="none" xmlns="http://www.w3.org/2000/svg">
<path fill-rule="evenodd" clip-rule="evenodd" d="M3.06166 0.0658485C3.02288 0.112747 2.99247 0.506326 2.98279 1.08641L2.96698 2.03058L2.53742 2.05932L2.10786 2.08806V2.28921V2.49037L3.31063 2.50664C3.97215 2.5156 4.57296 2.50824 4.64576 2.49031C4.75516 2.46336 4.77503 2.42565 4.76031 2.27289L4.7425 2.08806L4.1268 2.07173L3.51109 2.05541V1.28147V0.507533H7.2997H11.0883L11.0515 0.98169C11.0313 1.2425 11.0146 2.45807 11.0144 3.68295L11.0141 5.91005H7.26258H3.51109V5.02116V4.13227L4.1268 4.11595L4.7425 4.09963L4.76031 3.91479C4.77503 3.76203 4.75516 3.72438 4.64576 3.69754C4.57296 3.67973 3.73011 3.67237 2.77276 3.68122C1.18757 3.69588 1.0264 3.70628 0.968899 3.79789C0.92285 3.87117 0.922793 3.92577 0.968784 3.99905C1.02354 4.08635 1.15945 4.10342 1.99944 4.12837L2.96698 4.1571L2.98205 5.22036C2.99499 6.13758 3.01028 6.29351 3.09322 6.35547C3.1537 6.40064 3.38348 6.42731 3.71276 6.42731H4.23613L4.0658 6.77215L3.89546 7.11699H3.59248C3.18302 7.11699 2.99562 7.19412 2.99562 7.36269C2.99562 7.57868 3.10381 7.63425 3.52398 7.63425C3.89838 7.63425 3.91723 7.64092 3.97187 7.7923C4.13115 8.23353 4.41649 8.55958 4.79399 8.73165C5.52355 9.06408 6.55856 8.61423 6.78148 7.86771L6.85118 7.63425H9.35798H11.8648L12.0026 7.93633C12.2714 8.52538 12.7324 8.83815 13.3337 8.83936C13.954 8.84062 14.5826 8.40388 14.7454 7.85846L14.8087 7.64638L15.2093 7.62368C15.5615 7.60373 15.6263 7.58178 15.7462 7.442L15.8824 7.28297L15.8816 5.6913C15.881 4.81587 15.8617 4.06986 15.8386 4.03342C15.8155 3.99704 15.5161 3.85462 15.1734 3.71691L14.5502 3.46656L14.0471 2.53054C13.7704 2.01575 13.5129 1.55683 13.4748 1.51079C13.4196 1.44401 13.2233 1.42711 12.5017 1.42711H11.5978L11.5612 0.809269C11.5411 0.469428 11.5036 0.152634 11.4779 0.105218C11.4371 0.0300425 10.9006 0.017111 7.27799 0.00429438C3.88143 -0.00777506 3.11332 0.00343223 3.06166 0.0658485ZM13.4707 2.53434C13.6406 2.85786 13.8794 3.2958 14.0013 3.50754L14.223 3.89244L14.7949 4.11101L15.3668 4.32952L15.3669 5.11978L15.367 5.91005H13.4769H11.5868V3.92721V1.94437L12.3743 1.94523L13.1619 1.94615L13.4707 2.53434ZM5.72676 6.48863C6.44436 6.76146 6.54488 7.80162 5.89269 8.20611C5.6629 8.34859 5.18724 8.36445 4.94307 8.23778C4.67932 8.10088 4.47079 7.78184 4.44375 7.47379C4.38241 6.77485 5.07692 6.24155 5.72676 6.48863ZM12.071 6.67157C11.9945 6.80594 11.9316 6.96106 11.9312 7.01641C11.9305 7.11073 11.772 7.11688 9.39607 7.11509L6.86166 7.1132L6.70731 6.77025L6.55301 6.42731H9.38163H12.2102L12.071 6.67157ZM13.7264 6.50639C13.8302 6.54984 13.9968 6.68508 14.0969 6.80686C14.2557 7.0002 14.2787 7.07118 14.2787 7.36758C14.2787 7.96702 13.934 8.32411 13.3556 8.32371C12.9928 8.32348 12.7291 8.18606 12.5619 7.91013C12.3295 7.52666 12.3446 7.13176 12.6033 6.82324C12.9212 6.44415 13.3138 6.3334 13.7264 6.50639ZM15.367 6.77215V7.11699H15.0941H14.8212L14.6693 6.77215L14.5175 6.42731H14.9422H15.367V6.77215Z" fill="black"/>
</svg>
