<svg width="13" height="13" viewBox="0 0 13 13" fill="none" xmlns="http://www.w3.org/2000/svg">
<path fill-rule="evenodd" clip-rule="evenodd" d="M5.30925 0.15783C5.19277 0.274644 5.15196 0.384836 5.15196 0.582526C5.15196 0.826568 5.19136 0.890279 5.61126 1.32481L6.07055 1.8001L5.69134 1.80107C4.09819 1.80505 2.65079 2.93674 2.23532 4.50315C2.16664 4.76236 2.14216 5.25186 2.14159 6.37905L2.14082 7.90431L1.9326 8.00949C1.6368 8.15883 1.25528 8.5393 1.10178 8.83792C0.919062 9.19338 0.879981 9.80001 1.01375 10.2041C1.30462 11.0828 2.30188 11.6112 3.18395 11.3539C4.45543 10.983 4.91921 9.44552 4.05629 8.46183C3.91035 8.29545 3.67689 8.10097 3.53748 8.02961L3.28396 7.89981L3.30498 6.37686L3.32606 4.85385L3.5294 4.42304C3.93296 3.56832 4.64468 3.07747 5.54514 3.03285L6.03436 3.00868L5.59319 3.46115C5.18316 3.88166 5.15196 3.93361 5.15196 4.19572C5.15196 4.65018 5.52765 4.9101 5.9321 4.73542C6.04915 4.68483 6.58463 4.19687 7.12202 3.65106C8.43462 2.31776 8.44167 2.50169 7.0238 1.07897C6.01392 0.0655109 5.93396 0 5.70755 0C5.537 0 5.42047 0.0461597 5.30925 0.15783ZM10.5467 0.696575C9.33489 1.13027 8.93505 2.60693 9.77131 3.56028C9.91726 3.72666 10.1507 3.92114 10.2901 3.9925L10.5436 4.1223L10.5226 5.64525L10.5015 7.16826L10.2982 7.59907C9.89464 8.45379 9.18292 8.94464 8.28246 8.98926L7.79325 9.01343L8.23441 8.56096C8.64444 8.14045 8.67564 8.0885 8.67564 7.82639C8.67564 7.37193 8.29995 7.11201 7.8955 7.28668C7.77845 7.33728 7.24298 7.82523 6.70558 8.37105C5.39298 9.70435 5.38593 9.52042 6.8038 10.9431C7.81368 11.9566 7.89364 12.0221 8.12005 12.0221C8.46012 12.0221 8.67564 11.7961 8.67564 11.4396C8.67564 11.1955 8.63624 11.1318 8.21635 10.6973L7.75705 10.222L8.13626 10.221C9.72941 10.2171 11.1768 9.08537 11.5923 7.51896C11.661 7.25975 11.6854 6.77018 11.686 5.64268L11.6868 4.11715L11.927 3.99269C12.2167 3.8427 12.5926 3.4569 12.7452 3.15307C12.9104 2.82436 12.9422 2.2057 12.8138 1.81797C12.5125 0.907637 11.4397 0.376928 10.5467 0.696575ZM11.4401 1.86953C11.6074 1.95941 11.7546 2.31506 11.7066 2.5132C11.6119 2.90395 11.2014 3.1055 10.8605 2.92857C10.6222 2.80494 10.5336 2.64981 10.5336 2.35653C10.5336 1.94855 11.0603 1.66561 11.4401 1.86953ZM2.97497 9.09758C3.35758 9.29611 3.41953 9.78317 3.09689 10.0556C2.75932 10.3406 2.3302 10.2562 2.1708 9.87336C2.03556 9.54864 2.17759 9.19093 2.49319 9.06126C2.68238 8.9836 2.76758 8.99003 2.97497 9.09758Z" fill="black"/>
</svg>
