<svg width="16" height="17" viewBox="0 0 16 17" fill="none" xmlns="http://www.w3.org/2000/svg">
<path fill-rule="evenodd" clip-rule="evenodd" d="M8.95429 0.0336073C7.8215 0.250087 7.12738 1.35179 7.43829 2.43955C7.82862 3.80526 9.46989 4.29906 10.5461 3.37462C11.5339 2.52621 11.3443 0.815455 10.2 0.249998C9.72185 0.0136836 9.37417 -0.0467128 8.95429 0.0336073ZM9.8165 0.834754C10.7921 1.27924 10.6965 2.77432 9.6728 3.08211C9.18337 3.22926 8.77159 3.12464 8.42408 2.76485C7.83619 2.15624 8.009 1.20535 8.778 0.817689C9.16939 0.620328 9.35236 0.623366 9.8165 0.834754ZM12.1622 3.35157C10.5831 3.98395 10.5537 6.2112 12.115 6.92675C12.8277 7.25339 13.6168 7.0899 14.2323 6.48808C15.4312 5.31571 14.5617 3.23864 12.8801 3.25776C12.6062 3.26089 12.2831 3.30306 12.1622 3.35157ZM13.5041 4.10885C14.2088 4.46462 14.2915 5.47197 13.6652 6.07406C13.4274 6.30269 13.329 6.33449 12.8591 6.33449C12.3557 6.33449 12.306 6.31484 12.0219 6.00383C11.5425 5.47885 11.5042 4.89972 11.915 4.38778C12.2834 3.92882 12.9244 3.81625 13.5041 4.10885ZM8.67703 6.87127C7.96173 7.10044 7.35264 7.94241 7.35264 8.70211C7.35264 9.82221 8.48285 10.7883 9.58617 10.6113C10.1069 10.5277 10.7282 10.0755 10.9816 9.59554C11.1582 9.26104 11.1885 9.09281 11.1621 8.59427C11.136 8.10261 11.082 7.92624 10.8619 7.61148C10.3695 6.90781 9.4917 6.61039 8.67703 6.87127ZM10.0116 7.71137C10.159 7.81671 10.3434 8.07759 10.4285 8.30122C10.5726 8.67977 10.5726 8.72444 10.4285 9.10299C10.054 10.0868 8.85198 10.2168 8.26605 9.33663C7.87234 8.74535 8.10668 7.95188 8.778 7.603C9.15835 7.40528 9.64279 7.4479 10.0116 7.71137ZM1.00269 10.6358C0.968852 10.6697 0.941162 11.8486 0.941162 13.2557C0.941162 15.1263 0.96992 15.8427 1.048 15.9211C1.12137 15.9947 1.56245 16.0283 2.45475 16.0283C3.78698 16.0283 3.96834 15.9848 3.96834 15.6648C3.96834 15.5618 4.0718 15.4985 4.30222 15.4603C4.98138 15.3476 5.60827 15.4115 7.28319 15.764C9.7905 16.2918 9.80537 16.2907 12.8047 15.3676C14.1592 14.9507 15.3489 14.5657 15.4487 14.5122C15.8769 14.2823 16.0244 13.5063 15.7503 12.9266C15.5826 12.5719 15.1632 12.2759 14.8306 12.2776C14.7082 12.2783 13.8608 12.47 12.9476 12.7037L11.2872 13.1286L11.2402 12.777C11.144 12.0575 11.0762 12.0207 8.72422 11.4125C6.14951 10.7468 5.61442 10.7067 4.6361 11.1059L4.01286 11.3602L3.96834 10.9916L3.92383 10.623L2.49402 10.5985C1.70757 10.5851 1.03643 10.6018 1.00269 10.6358ZM3.25606 13.2586V15.3136H2.45475H1.65344V13.2586V11.2037H2.45475H3.25606V13.2586ZM8.33104 12.0339C10.4427 12.5709 10.5133 12.5959 10.5391 12.8189C10.5542 12.9487 10.49 13.143 10.3921 13.2645L10.2184 13.4797L9.02988 13.1887C8.37618 13.0287 7.77618 12.8985 7.6964 12.8995C7.48869 12.9021 7.32771 13.1315 7.39173 13.334C7.43571 13.4731 7.70869 13.5726 8.77898 13.8401C9.51182 14.0232 10.2016 14.1516 10.3119 14.1256C10.4222 14.0995 11.4504 13.8308 12.5968 13.5284C13.8199 13.2057 14.7667 13 14.8881 13.0305C15.107 13.0857 15.2222 13.3636 15.1718 13.7149C15.1449 13.9028 14.9259 13.9877 12.744 14.6561C11.4251 15.0601 10.1599 15.4163 9.93251 15.4477C9.62053 15.4908 9.01857 15.4019 7.47827 15.0854C5.65902 14.7116 5.35764 14.6722 4.70288 14.7223L3.96834 14.7786V13.4541V12.1297L4.65836 11.8504C5.40554 11.548 5.58646 11.496 5.92711 11.4859C6.04953 11.4822 7.1313 11.7288 8.33104 12.0339Z" fill="black"/>
</svg>
