<svg width="13" height="14" viewBox="0 0 13 14" fill="none" xmlns="http://www.w3.org/2000/svg">
<path fill-rule="evenodd" clip-rule="evenodd" d="M1.62288 0.0638642C1.3687 0.137563 1.05544 0.467918 0.982683 0.739099C0.941603 0.892155 0.92713 2.61958 0.937614 6.12822L0.953055 11.292L1.0841 11.5036C1.22045 11.7236 1.5255 11.9495 1.68623 11.9495C1.77159 11.9495 1.77922 11.4997 1.77922 6.47219C1.77922 2.28825 1.79535 0.978661 1.84759 0.926232C1.89921 0.874431 2.73296 0.857622 5.25054 0.857622H8.58512L8.16064 0.428811L7.73616 0L4.77194 0.00514573C3.11619 0.00806165 1.72612 0.0339618 1.62288 0.0638642ZM3.33218 1.77911C3.07801 1.85281 2.76475 2.18316 2.69199 2.45434C2.65091 2.6074 2.63644 4.33482 2.64692 7.84347L2.66236 13.0073L2.79341 13.2188C2.86554 13.3351 3.01938 13.4895 3.13527 13.5619L3.34609 13.6934H7.7618C12.0611 13.6934 12.1824 13.6904 12.364 13.5802C12.4666 13.518 12.6204 13.3658 12.7059 13.2421L12.8612 13.0171L12.877 9.0976L12.8928 5.17809L11.1681 3.44667L9.44331 1.71524L6.48016 1.72039C4.82509 1.72331 3.43543 1.74921 3.33218 1.77911ZM8.61771 3.93077C8.61919 5.51308 8.65657 5.6762 9.06572 5.88563C9.27893 5.99483 9.39505 6.00335 10.6653 6.00335H12.0351L12.0342 9.36237C12.0337 11.2099 12.0129 12.7537 11.9879 12.7932C11.9519 12.85 11.0622 12.862 7.72972 12.8504L3.51702 12.8357L3.50249 7.782C3.49183 4.09554 3.50528 2.70723 3.55217 2.65057C3.60453 2.58722 4.07898 2.57287 6.11642 2.57287H8.61646L8.61771 3.93077ZM10.5822 4.05941L11.6636 5.14573H10.5673H9.47111V4.05941C9.47111 3.46193 9.47778 2.97309 9.48592 2.97309C9.49407 2.97309 9.98738 3.46193 10.5822 4.05941ZM4.94913 6.12188C4.74151 6.28574 4.74151 6.57859 4.94913 6.74245C5.09015 6.85377 5.17163 6.86097 6.29066 6.86097C7.47965 6.86097 7.48239 6.86069 7.62192 6.72061C7.69884 6.64342 7.7618 6.51364 7.7618 6.43216C7.7618 6.35069 7.69884 6.2209 7.62192 6.14372C7.48239 6.00364 7.47965 6.00335 6.29066 6.00335C5.17163 6.00335 5.09015 6.01056 4.94913 6.12188ZM4.91295 8.29034C4.84965 8.35387 4.799 8.48091 4.799 8.57622C4.799 8.67153 4.84965 8.79857 4.91295 8.86209C5.02372 8.97324 5.10286 8.97644 7.7618 8.97644C10.4207 8.97644 10.4999 8.97324 10.6106 8.86209C10.674 8.79857 10.7246 8.67153 10.7246 8.57622C10.7246 8.48091 10.674 8.35387 10.6106 8.29034C10.4999 8.1792 10.4207 8.17599 7.7618 8.17599C5.10286 8.17599 5.02372 8.1792 4.91295 8.29034ZM4.94913 10.41C4.74151 10.5738 4.74151 10.8667 4.94913 11.0306C5.09613 11.1466 5.15442 11.1491 7.7618 11.1491C10.3692 11.1491 10.4275 11.1466 10.5745 11.0306C10.7821 10.8667 10.7821 10.5738 10.5745 10.41C10.4275 10.2939 10.3692 10.2915 7.7618 10.2915C5.15442 10.2915 5.09613 10.2939 4.94913 10.41Z" fill="black"/>
</svg>
