<svg width="27" height="26" viewBox="0 0 27 26" fill="none" xmlns="http://www.w3.org/2000/svg">
<path d="M6.40305 0.715942C6.1173 0.864295 6.06482 1.10965 6.26309 1.355C6.42055 1.549 6.67713 1.55471 6.86958 1.36071C6.95122 1.28653 7.01537 1.18383 7.01537 1.13818C7.01537 0.978413 6.88707 0.773001 6.74128 0.710236C6.57217 0.63606 6.54884 0.63606 6.40305 0.715942Z" fill="url(#paint0_linear_264_151)"/>
<path d="M20.449 1.28045C20.3207 1.34321 20.1924 1.55432 20.1924 1.70838C20.1924 1.84532 20.4665 2.07355 20.6297 2.07355C20.8222 2.07355 21.0671 1.83961 21.0671 1.65703C21.0671 1.36603 20.7114 1.15492 20.449 1.28045Z" fill="url(#paint1_linear_264_151)"/>
<path d="M24.0701 1.49777C23.7727 1.629 23.382 2.05694 23.2945 2.34794C22.9971 3.31223 23.8019 4.28222 24.8107 4.1681C25.977 4.03116 26.4961 2.65035 25.6855 1.823C25.5688 1.70318 25.3647 1.55483 25.2364 1.49777C24.9274 1.36083 24.3792 1.35512 24.0701 1.49777Z" fill="url(#paint2_linear_264_151)"/>
<path d="M9.9096 2.55891C9.3381 2.71297 8.87741 2.99255 8.35257 3.50037C7.94436 3.89978 7.8044 4.08237 7.5828 4.52172C7.43118 4.81272 7.30872 5.0866 7.30872 5.13224C7.30872 5.17789 7.37286 5.24066 7.44867 5.26918C7.62362 5.33195 7.77524 5.53736 7.77524 5.70853C7.77524 5.87971 7.95019 5.87971 8.38756 5.71995C9.5772 5.2863 10.5102 4.17366 10.8368 2.80426C10.8754 2.63591 10.7458 2.476 10.5732 2.47877L10.5569 2.47903C10.3586 2.47903 10.067 2.51897 9.9096 2.55891Z" fill="url(#paint3_linear_264_151)"/>
<path d="M16.3861 2.85561C16.4969 3.38055 16.9109 4.19078 17.3016 4.64725C17.6573 5.06948 18.3163 5.53165 18.8236 5.71995C19.261 5.87971 19.436 5.87971 19.436 5.70853C19.436 5.53736 19.5876 5.33195 19.7625 5.26918C19.8383 5.24066 19.9025 5.17789 19.9025 5.13224C19.9025 5.0866 19.78 4.80701 19.6284 4.51601C19.4068 4.08808 19.2552 3.88837 18.8528 3.50037C18.1355 2.79856 17.4357 2.47332 16.631 2.47332C16.4608 2.47332 16.3348 2.63146 16.3727 2.79735L16.3861 2.85561Z" fill="url(#paint4_linear_264_151)"/>
<path d="M1.49668 5.21213C1.43253 5.23496 1.34506 5.33196 1.30424 5.42325C1.18177 5.71425 1.38005 6.01096 1.70662 6.01096C1.87574 6.01096 2.11483 5.7599 2.11483 5.58301C2.11483 5.41184 1.87574 5.15507 1.72412 5.16078C1.6658 5.16078 1.56666 5.1836 1.49668 5.21213Z" fill="url(#paint5_linear_264_151)"/>
<path d="M6.69341 5.81681C6.16857 6.22763 5.27634 7.08922 5.22968 7.22616C5.18886 7.35739 5.35798 7.55139 5.51543 7.55139C5.58541 7.55139 5.87699 7.32316 6.22105 6.99222C6.54762 6.6841 6.96166 6.32463 7.14827 6.18769C7.40486 5.99369 7.48067 5.9081 7.48067 5.78828C7.48067 5.60569 7.38154 5.49728 7.22408 5.49728C7.15411 5.49728 6.92084 5.64563 6.69341 5.81681Z" fill="url(#paint6_linear_264_151)"/>
<path d="M19.7995 5.56572C19.7587 5.60566 19.7295 5.70266 19.7295 5.78825C19.7295 5.90808 19.8053 5.99367 20.0677 6.18767C20.2485 6.32461 20.6625 6.68409 20.9891 6.99221C21.3565 7.34027 21.6248 7.55139 21.7006 7.55139C21.8172 7.55139 22.0038 7.3631 22.0038 7.24898C22.0038 7.15198 21.0474 6.23332 20.5692 5.86243C20.091 5.49725 19.9336 5.43448 19.7995 5.56572Z" fill="url(#paint7_linear_264_151)"/>
<path d="M4.19869 6.12483C3.51056 6.87801 3.23648 8.07624 3.4989 9.23454C3.58054 9.60542 3.61553 9.6796 3.76132 9.75378C4.01207 9.87931 4.11704 10.079 4.08789 10.3643C4.06456 10.5526 4.08205 10.6439 4.17536 10.7523C4.23392 10.8247 4.34294 10.8286 4.40659 10.7607L4.54275 10.6154C5.07925 10.0334 5.43498 8.96066 5.365 8.16754C5.34167 7.89365 5.30668 7.81377 5.16089 7.69395C4.95096 7.52277 4.89847 7.30024 5.00344 7.05489C5.07925 6.87801 5.07342 6.84377 4.88098 6.4843C4.77601 6.26747 4.63605 6.03353 4.57774 5.96506C4.52291 5.89353 4.41685 5.88866 4.35569 5.95486L4.19869 6.12483Z" fill="url(#paint8_linear_264_151)"/>
<path d="M22.5458 6.10246C22.4408 6.25652 22.3067 6.49616 22.2484 6.6331C22.1492 6.84992 22.1434 6.90128 22.2076 7.06104C22.3125 7.30639 22.2542 7.52321 22.0384 7.7058C21.924 7.79971 21.8577 7.93996 21.8577 8.08801V8.43044C21.8635 9.10943 22.0035 9.62295 22.3242 10.1479C22.5225 10.4674 22.8607 10.8611 22.9365 10.8611C23.0298 10.8611 23.129 10.5758 23.1173 10.3248C23.1056 10.0281 23.1873 9.88542 23.4672 9.74848C23.5897 9.68572 23.6363 9.59442 23.7121 9.23496C23.9745 8.07097 23.7005 6.85563 23.0065 6.11958L22.955 6.06505C22.8388 5.94182 22.6378 5.9602 22.5458 6.10246Z" fill="url(#paint9_linear_264_151)"/>
<path d="M12.3753 6.95776C11.3723 7.13464 10.48 7.4884 9.62279 8.04187C8.07159 9.05751 6.98109 10.638 6.57288 12.4696C6.42709 13.1144 6.40376 14.2613 6.51456 14.9403C6.63119 15.6364 6.9461 16.5778 7.24351 17.1085C7.37685 17.3553 7.63267 17.5113 7.91315 17.5168L8.90551 17.5364C10.101 17.5592 10.3517 17.5821 10.3984 17.6505C10.4742 17.7704 10.4684 17.8388 10.3751 17.9701C10.2993 18.0671 10.1943 18.0785 9.07462 18.107L8.76286 18.1143C8.42535 18.1223 8.26289 18.5317 8.50313 18.7689C9.23207 19.4878 9.89687 19.95 10.7016 20.2866C12.247 20.9371 13.8857 21.0626 15.4719 20.6461C16.7431 20.3095 17.7228 19.7446 18.7084 18.7689C18.9486 18.5317 18.7862 18.1223 18.4486 18.1143L18.1369 18.107C17.0172 18.0785 16.9123 18.0671 16.8364 17.9701C16.7315 17.8274 16.7315 17.7361 16.8481 17.6277C16.9239 17.5478 17.1397 17.5364 18.3293 17.5364H19.2506C19.5427 17.5364 19.8122 17.3795 19.9563 17.1256C20.8427 15.5565 21.0118 13.4168 20.3937 11.6137C19.5714 9.20586 17.3963 7.39711 14.7896 6.95205C14.1772 6.84935 12.9759 6.84935 12.3753 6.95776ZM17.9911 10.3299C18.0377 10.387 18.3993 10.9404 18.79 11.5567C19.4606 12.6123 19.5015 12.6864 19.4257 12.8177C19.274 13.1087 13.7457 19.9899 13.6466 20.0242C13.5883 20.0413 13.4891 20.0242 13.4308 19.9785C13.2967 19.8929 7.9258 13.0859 7.79751 12.8405C7.71003 12.6807 7.71586 12.6636 8.42148 11.5567C8.8122 10.9404 9.17376 10.387 9.22041 10.3299C9.30205 10.2386 9.5878 10.2329 13.6058 10.2329C17.6237 10.2329 17.9095 10.2386 17.9911 10.3299Z" fill="url(#paint10_linear_264_151)"/>
<path d="M9.44476 11.0149C9.36895 11.1347 9.14152 11.4828 8.94908 11.7909C8.75081 12.099 8.58752 12.3729 8.58752 12.4071C8.58752 12.4413 9.01323 12.4528 9.70718 12.4471L10.0661 12.4416C10.543 12.4343 10.9825 12.182 11.2292 11.7738C11.445 11.4143 11.6666 11.0491 11.7132 10.9578C11.7523 10.8891 11.7026 10.8038 11.6235 10.8038H10.6869H9.82901C9.67324 10.8038 9.52829 10.8834 9.44476 11.0149Z" fill="url(#paint11_linear_264_151)"/>
<path d="M12.0015 11.5855C11.7449 12.0191 11.5291 12.39 11.5174 12.4128C11.5058 12.4356 12.4447 12.4585 13.6051 12.4585C14.0223 12.4585 14.4108 12.4555 14.7368 12.4507C15.3739 12.4412 15.5333 12.1338 15.2088 11.5855C14.9195 11.1007 14.3965 10.8038 13.832 10.8038H13.6051H13.3783C12.8138 10.8038 12.2908 11.1007 12.0015 11.5855Z" fill="url(#paint12_linear_264_151)"/>
<path d="M15.4938 10.9578C15.5405 11.0491 15.7621 11.4143 15.9779 11.7738C16.2246 12.182 16.6641 12.4343 17.141 12.4416L17.4999 12.4471C18.1822 12.4528 18.6196 12.4413 18.6196 12.4071C18.6196 12.3786 18.398 12.0077 18.1297 11.5912C17.8275 11.1174 17.3076 10.8271 16.7457 10.8185L16.526 10.8152L15.5835 10.8056C15.5049 10.8048 15.455 10.8895 15.4938 10.9578Z" fill="url(#paint13_linear_264_151)"/>
<path d="M8.65944 13.0288C8.68276 13.1029 12.6191 18.107 12.654 18.107C12.6884 18.107 12.6467 18.0463 12.634 18.0144C12.5444 17.7887 12.1737 16.7832 11.7385 15.6021C11.2545 14.2669 10.8288 13.1315 10.7996 13.0744C10.7471 12.9831 10.648 12.9717 9.69162 12.9717C9.03266 12.9717 8.64777 12.9945 8.65944 13.0288Z" fill="url(#paint14_linear_264_151)"/>
<path d="M11.4458 13.0463C11.4458 13.1147 13.5218 18.8492 13.5627 18.8834C13.586 18.9062 15.7612 13.1262 15.7612 13.0406C15.7612 12.9892 15.2188 12.9721 13.6035 12.9721C11.854 12.9721 11.4458 12.9835 11.4458 13.0463Z" fill="url(#paint15_linear_264_151)"/>
<path d="M15.5645 15.2659C15.0864 16.5326 14.649 17.6909 14.5848 17.8507C14.509 18.0504 14.4974 18.1074 14.5557 18.0504C14.7073 17.8963 18.562 13.0349 18.562 13.0064C18.562 12.9893 18.0838 12.9722 17.4948 12.9722C16.8527 12.9722 16.2779 13.3701 16.0518 13.971L15.5645 15.2659Z" fill="url(#paint16_linear_264_151)"/>
<path d="M25.7948 6.98108C25.5324 7.23785 25.7307 7.6658 26.1039 7.6658C26.3547 7.6658 26.4946 7.51745 26.4946 7.24926C26.4946 7.1009 26.4596 7.02102 26.3663 6.95825C26.1855 6.83272 25.9348 6.84413 25.7948 6.98108Z" fill="url(#paint17_linear_264_151)"/>
<path d="M3.34806 10.0844C3.25475 10.1986 2.95151 11.0259 2.78239 11.6307C2.65993 12.0929 2.6541 12.15 2.72991 12.2698C2.82905 12.4124 3.05648 12.4467 3.15561 12.3268C3.1906 12.2926 3.27225 12.0473 3.33639 11.7848C3.40637 11.528 3.55216 11.0716 3.65713 10.7806C3.83791 10.2956 3.84957 10.2328 3.77376 10.1244C3.67463 9.98744 3.44719 9.96461 3.34806 10.0844Z" fill="url(#paint18_linear_264_151)"/>
<path d="M23.4383 10.1244C23.3624 10.2328 23.3741 10.2955 23.5549 10.7805C23.6599 11.0715 23.8056 11.528 23.8756 11.7848C23.9398 12.0473 24.0214 12.2926 24.0564 12.3268C24.1555 12.4467 24.383 12.4124 24.4821 12.2698C24.5637 12.1443 24.5579 12.0872 24.3946 11.5337C24.2022 10.8604 23.9573 10.1928 23.864 10.0787C23.7648 9.9646 23.5374 9.98742 23.4383 10.1244Z" fill="url(#paint19_linear_264_151)"/>
<path d="M0.519885 11.0605C0.455738 11.2317 0.484896 11.9677 0.572369 12.2873C0.776474 13.0518 1.36546 13.8735 2.05942 14.3699C2.31601 14.5525 2.38016 14.5753 2.57843 14.5411C2.87001 14.4954 3.1266 14.6152 3.21991 14.8492C3.32487 15.0888 3.49399 15.1173 3.54064 14.9005C3.64561 14.387 3.54064 13.7651 3.24323 13.126C3.06828 12.7608 3.00997 12.6867 2.89917 12.6867C2.82336 12.6867 2.67757 12.6182 2.57843 12.5269C2.43847 12.4071 2.39765 12.3215 2.39182 12.1503C2.38599 11.9449 2.35683 11.905 2.03026 11.671C1.68037 11.4143 0.998074 11.0662 0.712327 11.0034C0.601527 10.9749 0.549043 10.992 0.519885 11.0605Z" fill="url(#paint20_linear_264_151)"/>
<path d="M26.3177 11.0547C25.9562 11.1859 25.5421 11.4142 25.1806 11.6709C24.854 11.9049 24.8248 11.9448 24.819 12.1502C24.8132 12.3214 24.7724 12.407 24.6324 12.5268C24.5333 12.6181 24.3875 12.6866 24.3117 12.6866C24.2009 12.6866 24.1425 12.7607 23.9676 13.1259C23.8568 13.3713 23.7343 13.7079 23.6993 13.8734C23.6294 14.1986 23.6177 14.7521 23.6702 14.9461C23.7168 15.1173 23.8976 15.0602 23.9909 14.8491C24.0842 14.6151 24.3408 14.4953 24.6266 14.541C24.819 14.5752 24.8948 14.5524 25.1106 14.404C25.5654 14.1016 26.1311 13.4454 26.376 12.949C26.6326 12.4184 26.7259 12.0361 26.7259 11.5169C26.7259 10.952 26.6968 10.9178 26.3177 11.0547Z" fill="url(#paint21_linear_264_151)"/>
<path d="M2.50152 14.9234C2.40821 15.0717 2.4432 15.5967 2.61815 16.5096C2.74061 17.1544 2.93889 17.3598 3.18965 17.0859C3.28295 16.9889 3.27712 16.9432 3.17215 16.3327C3.108 15.9732 3.03803 15.5054 3.0147 15.2942C2.98554 15.009 2.95055 14.8948 2.86891 14.8549C2.70562 14.7636 2.59482 14.7864 2.50152 14.9234Z" fill="url(#paint22_linear_264_151)"/>
<path d="M24.3215 14.8549C24.2574 14.8949 24.2165 15.0261 24.1874 15.3C24.1699 15.5111 24.0999 15.9733 24.0358 16.3327C23.9308 16.9433 23.9249 16.9889 24.0183 17.0859C24.269 17.3598 24.4673 17.1544 24.5898 16.5096C24.7647 15.5967 24.7997 15.0718 24.7064 14.9234C24.6189 14.7922 24.4848 14.7636 24.3215 14.8549Z" fill="url(#paint23_linear_264_151)"/>
<path d="M0.612491 17.0288C0.320913 17.0972 0.320913 17.1429 0.618323 17.645C1.11401 18.4781 2.19284 19.1399 3.26585 19.2826C3.52244 19.3111 3.58659 19.2997 3.69739 19.197C3.87233 19.0372 4.25138 19.0315 4.41467 19.1856C4.51964 19.2826 4.57795 19.294 4.75873 19.2483C4.88119 19.2255 4.99782 19.1856 5.01532 19.1685C5.03281 19.1513 4.9745 18.9916 4.88702 18.8147C4.56046 18.1642 3.51078 17.2741 3.23086 17.4168C2.9976 17.5423 2.81099 17.4909 2.56606 17.2399C2.41655 17.0863 2.21276 16.9975 1.99847 16.9925L1.59802 16.9831C1.19565 16.9774 0.752449 17.0002 0.612491 17.0288Z" fill="url(#paint24_linear_264_151)"/>
<path d="M24.9822 17.0059C24.9064 17.023 24.749 17.1315 24.6265 17.257C24.3991 17.4909 24.2066 17.5366 23.9792 17.4167C23.6993 17.2741 22.6496 18.1642 22.323 18.8147C22.2356 18.9916 22.1773 19.1513 22.1948 19.1685C22.2122 19.1856 22.323 19.2255 22.4455 19.2483C22.6205 19.2883 22.6904 19.2769 22.8071 19.1856C22.9995 19.0372 23.3436 19.0429 23.5127 19.197C23.6235 19.2997 23.6876 19.3111 23.9442 19.2826C25.0231 19.1399 26.0902 18.4837 26.5918 17.645C26.895 17.1315 26.895 17.1029 26.5509 17.0287C26.2652 16.966 25.268 16.9546 24.9822 17.0059Z" fill="url(#paint25_linear_264_151)"/>
<path d="M3.87522 19.4313C3.7236 19.5797 3.80524 19.7965 4.28926 20.504C4.65665 21.0404 5.01821 21.4854 5.12318 21.5482C5.23981 21.611 5.42642 21.5425 5.4964 21.4113C5.57221 21.2743 5.53139 21.1944 5.11735 20.6695C4.9424 20.447 4.7033 20.1103 4.58667 19.9163C4.46421 19.7223 4.33008 19.5169 4.28343 19.4599C4.18429 19.3458 3.97436 19.3343 3.87522 19.4313Z" fill="url(#paint26_linear_264_151)"/>
<path d="M22.931 19.4597C22.8785 19.5167 22.7444 19.7221 22.6219 19.9161C22.5053 20.1101 22.2662 20.4468 22.0912 20.6693C21.9221 20.8861 21.753 21.1143 21.718 21.1828C21.6014 21.3939 21.823 21.6393 22.0562 21.5594C22.1787 21.5138 22.5403 21.063 22.9893 20.3954C23.3742 19.8191 23.4558 19.6251 23.3625 19.4825C23.2809 19.3512 23.036 19.3398 22.931 19.4597Z" fill="url(#paint27_linear_264_151)"/>
<path d="M25.5123 21.3198C25.1332 21.7135 25.7105 22.2499 26.1071 21.8733C26.1712 21.8105 26.2179 21.685 26.2179 21.5823C26.2179 21.2285 25.763 21.0573 25.5123 21.3198Z" fill="url(#paint28_linear_264_151)"/>
<path d="M5.75034 21.5648C5.59872 21.7931 5.31297 21.8901 5.03889 21.8102C4.79979 21.7417 4.60152 21.8102 4.07667 22.1525C3.96324 22.2237 3.95033 22.384 4.05092 22.4724L4.13499 22.5462C4.72981 23.0712 5.47042 23.3222 6.45013 23.3165H6.8197C6.98817 23.3165 7.14781 23.2412 7.25489 23.1111C7.45316 22.8772 7.65143 22.8144 7.92552 22.9C8.10046 22.9571 8.15878 22.9456 8.46785 22.7859C8.6603 22.6832 8.85857 22.5576 8.91105 22.5006C8.99853 22.4093 8.98686 22.3865 8.73027 22.1639C8.15295 21.6675 7.38901 21.4165 6.45013 21.4165C5.86697 21.4165 5.84947 21.4222 5.75034 21.5648Z" fill="url(#paint29_linear_264_151)"/>
<path d="M19.7865 21.5084C19.3258 21.6282 18.7951 21.8907 18.4802 22.1646C18.2236 22.3871 18.2119 22.4099 18.2994 22.5012C18.3519 22.5583 18.5502 22.6838 18.7426 22.7865C19.0517 22.9463 19.11 22.9577 19.2849 22.9006C19.559 22.8151 19.7573 22.8778 19.9614 23.1175C20.0684 23.2474 20.2283 23.322 20.3966 23.3205L20.7603 23.3172C21.7342 23.3172 22.4632 23.0775 23.0755 22.5526L23.2257 22.4209C23.2934 22.3615 23.2913 22.2554 23.2213 22.1988C23.1454 22.1361 22.9238 22.0105 22.7372 21.9192C22.4223 21.7652 22.3698 21.7538 22.1716 21.8108C21.8975 21.8907 21.6117 21.7937 21.4601 21.5655C21.361 21.4228 21.3435 21.4171 20.7312 21.4228C20.3871 21.4228 19.9672 21.4628 19.7865 21.5084Z" fill="url(#paint30_linear_264_151)"/>
<path d="M7.50916 23.2427C7.31672 23.4481 7.42752 23.5907 8.04566 23.9388C9.7893 24.9088 11.5854 25.371 13.6031 25.371C15.6325 25.371 17.4928 24.886 19.2189 23.9046C19.7729 23.5907 19.8837 23.4424 19.6971 23.2427C19.5572 23.0943 19.4464 23.1 19.1898 23.2712C18.8049 23.528 17.7319 24.0244 17.1254 24.2298C14.8219 25.0115 12.3785 25.0115 10.0809 24.2298C9.46273 24.0244 8.40722 23.528 8.02817 23.2769C7.75991 23.1 7.64911 23.0943 7.50916 23.2427Z" fill="url(#paint31_linear_264_151)"/>
<path d="M2.11795 23.7618C1.89635 23.8474 1.66309 24.0927 1.58728 24.3095C1.39484 24.8801 1.96633 25.4963 2.57281 25.3765C2.82357 25.3252 3.14431 25.0456 3.22595 24.8059C3.44171 24.1669 2.75359 23.5164 2.11795 23.7618Z" fill="url(#paint32_linear_264_151)"/>
<path d="M5.70251 24.6975C5.53923 24.8515 5.52757 24.9371 5.62087 25.1482C5.72001 25.3593 5.97076 25.4392 6.18653 25.3308C6.46061 25.1939 6.50727 24.9542 6.30899 24.7032C6.15154 24.5092 5.89495 24.5035 5.70251 24.6975Z" fill="url(#paint33_linear_264_151)"/>
<path d="M21.7806 24.6862C21.524 24.9487 21.6931 25.371 22.0546 25.371C22.2996 25.371 22.4862 25.1884 22.4862 24.9487C22.4862 24.5949 22.0313 24.4238 21.7806 24.6862Z" fill="url(#paint34_linear_264_151)"/>
<defs>
<linearGradient id="paint0_linear_264_151" x1="6.57989" y1="1.50339" x2="6.57989" y2="0.655297" gradientUnits="userSpaceOnUse">
<stop stop-color="#FD9149"/>
<stop offset="1" stop-color="#FFD588"/>
</linearGradient>
<linearGradient id="paint1_linear_264_151" x1="20.6297" y1="2.07355" x2="20.6297" y2="1.24347" gradientUnits="userSpaceOnUse">
<stop stop-color="#FD9149"/>
<stop offset="1" stop-color="#FFD588"/>
</linearGradient>
<linearGradient id="paint2_linear_264_151" x1="24.655" y1="4.17728" x2="24.655" y2="1.39291" gradientUnits="userSpaceOnUse">
<stop stop-color="#FD9149"/>
<stop offset="1" stop-color="#FFD588"/>
</linearGradient>
<linearGradient id="paint3_linear_264_151" x1="9.11067" y1="5.83838" x2="9.11067" y2="2.47332" gradientUnits="userSpaceOnUse">
<stop stop-color="#FD9149"/>
<stop offset="1" stop-color="#FFD588"/>
</linearGradient>
<linearGradient id="paint4_linear_264_151" x1="18.1005" y1="5.83838" x2="18.1005" y2="2.47332" gradientUnits="userSpaceOnUse">
<stop stop-color="#FD9149"/>
<stop offset="1" stop-color="#FFD588"/>
</linearGradient>
<linearGradient id="paint5_linear_264_151" x1="1.69127" y1="6.01096" x2="1.69127" y2="5.16069" gradientUnits="userSpaceOnUse">
<stop stop-color="#FD9149"/>
<stop offset="1" stop-color="#FFD588"/>
</linearGradient>
<linearGradient id="paint6_linear_264_151" x1="6.35209" y1="7.55139" x2="6.35209" y2="5.49728" gradientUnits="userSpaceOnUse">
<stop stop-color="#FD9149"/>
<stop offset="1" stop-color="#FFD588"/>
</linearGradient>
<linearGradient id="paint7_linear_264_151" x1="20.8666" y1="7.55139" x2="20.8666" y2="5.50283" gradientUnits="userSpaceOnUse">
<stop stop-color="#FD9149"/>
<stop offset="1" stop-color="#FFD588"/>
</linearGradient>
<linearGradient id="paint8_linear_264_151" x1="4.38726" y1="10.8893" x2="4.38726" y2="5.82812" gradientUnits="userSpaceOnUse">
<stop stop-color="#FD9149"/>
<stop offset="1" stop-color="#FFD588"/>
</linearGradient>
<linearGradient id="paint9_linear_264_151" x1="22.8339" y1="10.8611" x2="22.8339" y2="5.82288" gradientUnits="userSpaceOnUse">
<stop stop-color="#FD9149"/>
<stop offset="1" stop-color="#FFD588"/>
</linearGradient>
<linearGradient id="paint10_linear_264_151" x1="13.6036" y1="20.8871" x2="13.6036" y2="6.87572" gradientUnits="userSpaceOnUse">
<stop stop-color="#FD9149"/>
<stop offset="1" stop-color="#FFD588"/>
</linearGradient>
<linearGradient id="paint11_linear_264_151" x1="10.1941" y1="12.4485" x2="10.1941" y2="10.8038" gradientUnits="userSpaceOnUse">
<stop stop-color="#FD9149"/>
<stop offset="1" stop-color="#FFD588"/>
</linearGradient>
<linearGradient id="paint12_linear_264_151" x1="13.6051" y1="12.4585" x2="13.6051" y2="10.8038" gradientUnits="userSpaceOnUse">
<stop stop-color="#FD9149"/>
<stop offset="1" stop-color="#FFD588"/>
</linearGradient>
<linearGradient id="paint13_linear_264_151" x1="17.013" y1="12.4485" x2="17.013" y2="10.8038" gradientUnits="userSpaceOnUse">
<stop stop-color="#FD9149"/>
<stop offset="1" stop-color="#FFD588"/>
</linearGradient>
<linearGradient id="paint14_linear_264_151" x1="10.661" y1="18.107" x2="10.661" y2="12.9717" gradientUnits="userSpaceOnUse">
<stop stop-color="#FD9149"/>
<stop offset="1" stop-color="#FFD588"/>
</linearGradient>
<linearGradient id="paint15_linear_264_151" x1="13.6035" y1="18.8835" x2="13.6035" y2="12.9721" gradientUnits="userSpaceOnUse">
<stop stop-color="#FD9149"/>
<stop offset="1" stop-color="#FFD588"/>
</linearGradient>
<linearGradient id="paint16_linear_264_151" x1="16.5404" y1="18.0714" x2="16.5404" y2="12.9722" gradientUnits="userSpaceOnUse">
<stop stop-color="#FD9149"/>
<stop offset="1" stop-color="#FFD588"/>
</linearGradient>
<linearGradient id="paint17_linear_264_151" x1="26.0848" y1="7.6658" x2="26.0848" y2="6.87082" gradientUnits="userSpaceOnUse">
<stop stop-color="#FD9149"/>
<stop offset="1" stop-color="#FFD588"/>
</linearGradient>
<linearGradient id="paint18_linear_264_151" x1="3.24901" y1="12.3997" x2="3.24901" y2="10.0067" gradientUnits="userSpaceOnUse">
<stop stop-color="#FD9149"/>
<stop offset="1" stop-color="#FFD588"/>
</linearGradient>
<linearGradient id="paint19_linear_264_151" x1="23.9639" y1="12.3997" x2="23.9639" y2="10.0057" gradientUnits="userSpaceOnUse">
<stop stop-color="#FD9149"/>
<stop offset="1" stop-color="#FFD588"/>
</linearGradient>
<linearGradient id="paint20_linear_264_151" x1="2.03276" y1="15.0473" x2="2.03276" y2="10.9902" gradientUnits="userSpaceOnUse">
<stop stop-color="#FD9149"/>
<stop offset="1" stop-color="#FFD588"/>
</linearGradient>
<linearGradient id="paint21_linear_264_151" x1="25.1817" y1="15.0467" x2="25.1817" y2="10.9874" gradientUnits="userSpaceOnUse">
<stop stop-color="#FD9149"/>
<stop offset="1" stop-color="#FFD588"/>
</linearGradient>
<linearGradient id="paint22_linear_264_151" x1="2.85334" y1="17.2042" x2="2.85334" y2="14.8001" gradientUnits="userSpaceOnUse">
<stop stop-color="#FD9149"/>
<stop offset="1" stop-color="#FFD588"/>
</linearGradient>
<linearGradient id="paint23_linear_264_151" x1="24.3546" y1="17.2042" x2="24.3546" y2="14.8018" gradientUnits="userSpaceOnUse">
<stop stop-color="#FD9149"/>
<stop offset="1" stop-color="#FFD588"/>
</linearGradient>
<linearGradient id="paint24_linear_264_151" x1="2.70648" y1="19.2961" x2="2.70648" y2="16.9822" gradientUnits="userSpaceOnUse">
<stop stop-color="#FD9149"/>
<stop offset="1" stop-color="#FFD588"/>
</linearGradient>
<linearGradient id="paint25_linear_264_151" x1="24.503" y1="19.2961" x2="24.503" y2="16.9736" gradientUnits="userSpaceOnUse">
<stop stop-color="#FD9149"/>
<stop offset="1" stop-color="#FFD588"/>
</linearGradient>
<linearGradient id="paint26_linear_264_151" x1="4.66683" y1="21.5717" x2="4.66683" y2="19.3657" gradientUnits="userSpaceOnUse">
<stop stop-color="#FD9149"/>
<stop offset="1" stop-color="#FFD588"/>
</linearGradient>
<linearGradient id="paint27_linear_264_151" x1="22.5418" y1="21.5749" x2="22.5418" y2="19.3765" gradientUnits="userSpaceOnUse">
<stop stop-color="#FD9149"/>
<stop offset="1" stop-color="#FFD588"/>
</linearGradient>
<linearGradient id="paint28_linear_264_151" x1="25.8033" y1="22.0013" x2="25.8033" y2="21.1926" gradientUnits="userSpaceOnUse">
<stop stop-color="#FD9149"/>
<stop offset="1" stop-color="#FFD588"/>
</linearGradient>
<linearGradient id="paint29_linear_264_151" x1="6.40473" y1="23.3166" x2="6.40473" y2="21.4165" gradientUnits="userSpaceOnUse">
<stop stop-color="#FD9149"/>
<stop offset="1" stop-color="#FFD588"/>
</linearGradient>
<linearGradient id="paint30_linear_264_151" x1="20.8028" y1="23.3229" x2="20.8028" y2="21.4214" gradientUnits="userSpaceOnUse">
<stop stop-color="#FD9149"/>
<stop offset="1" stop-color="#FFD588"/>
</linearGradient>
<linearGradient id="paint31_linear_264_151" x1="13.6021" y1="25.371" x2="13.6021" y2="23.1368" gradientUnits="userSpaceOnUse">
<stop stop-color="#FD9149"/>
<stop offset="1" stop-color="#FFD588"/>
</linearGradient>
<linearGradient id="paint32_linear_264_151" x1="2.40785" y1="25.3916" x2="2.40785" y2="23.7088" gradientUnits="userSpaceOnUse">
<stop stop-color="#FD9149"/>
<stop offset="1" stop-color="#FFD588"/>
</linearGradient>
<linearGradient id="paint33_linear_264_151" x1="5.99641" y1="25.3791" x2="5.99641" y2="24.5548" gradientUnits="userSpaceOnUse">
<stop stop-color="#FD9149"/>
<stop offset="1" stop-color="#FFD588"/>
</linearGradient>
<linearGradient id="paint34_linear_264_151" x1="22.0717" y1="25.371" x2="22.0717" y2="24.559" gradientUnits="userSpaceOnUse">
<stop stop-color="#FD9149"/>
<stop offset="1" stop-color="#FFD588"/>
</linearGradient>
</defs>
</svg>
