<svg width="16" height="14" viewBox="0 0 16 14" fill="none" xmlns="http://www.w3.org/2000/svg">
<path fill-rule="evenodd" clip-rule="evenodd" d="M10.095 0.0734848C10.0204 0.114375 9.69744 0.406317 9.37722 0.722345L8.79494 1.29698L8.59391 1.07123C8.48333 0.947136 8.25023 0.715405 8.07592 0.556405C7.6702 0.186289 7.33703 0.158394 6.99423 0.465781C6.79916 0.640634 6.77279 0.70554 6.77279 1.01007V1.35583H6.32517C5.97145 1.35583 5.82941 1.38842 5.64811 1.51095C5.32443 1.72989 5.24944 1.92468 5.24829 2.54986C5.24721 3.13504 5.30341 3.26084 5.56594 3.26084H5.72188V5.00256V6.74429L5.9463 6.96949C6.10577 7.12951 6.25791 7.20761 6.47175 7.23911C6.63732 7.26361 7.81014 7.27395 9.07801 7.26225C12.1606 7.23374 11.9166 7.4273 11.9468 4.98644L11.9679 3.27615L12.1671 3.23621L12.3663 3.19621V2.55735C12.3663 2.00496 12.3464 1.89304 12.2194 1.73098C12.0251 1.48312 11.7041 1.35583 11.2732 1.35583C10.9305 1.35583 10.9246 1.3525 11.0395 1.22506C11.3286 0.904477 11.2066 0.242759 10.8265 0.0689264C10.6214 -0.0248273 10.2706 -0.0225821 10.095 0.0734848ZM10.7692 0.486532C10.9233 0.707309 10.9002 0.845694 10.6643 1.11532C10.454 1.35569 10.4536 1.35583 9.86931 1.35583H9.2848L9.78992 0.845558C10.3444 0.285417 10.5708 0.202345 10.7692 0.486532ZM8.02941 0.984352L8.4 1.36127L7.79122 1.34154C7.19987 1.32236 7.18068 1.31664 7.11898 1.13995C7.0303 0.88638 7.21505 0.607432 7.47161 0.607432C7.60891 0.607432 7.75766 0.707921 8.02941 0.984352ZM7.82933 1.72404C7.84492 1.73948 7.84763 1.99972 7.8355 2.30235L7.81339 2.85262H6.69984H5.58628V2.44134C5.58628 2.09531 5.61272 2.00346 5.75273 1.86304C5.91342 1.70172 5.95145 1.69601 6.86012 1.69601C7.37764 1.69601 7.8138 1.7086 7.82933 1.72404ZM9.45091 2.27432V2.85262H8.84071H8.2305V2.27432V1.69601H8.84071H9.45091V2.27432ZM11.8979 1.89066C11.9925 2.00809 12.0273 2.15906 12.0273 2.45196V2.85262H10.9086H9.78992V2.3197C9.78992 2.02653 9.81243 1.76411 9.83996 1.73649C9.86748 1.70887 10.3127 1.69615 10.8292 1.70819C11.7216 1.72894 11.7749 1.73806 11.8979 1.89066ZM7.83848 5.06373L7.81936 6.86675H7.06413C6.4565 6.86675 6.28462 6.84478 6.18489 6.75415C6.07112 6.65081 6.06088 6.50235 6.06088 4.9512V3.26084L6.95924 3.26077H7.8576L7.83848 5.06373ZM9.45091 5.0638V6.86675H8.84071H8.2305V5.0638V3.26084H8.84071H9.45091V5.0638ZM11.5673 4.94194C11.5508 6.37798 11.532 6.64094 11.4382 6.74497C11.3449 6.84838 11.2122 6.86675 10.5591 6.86675H9.78992V5.0638V3.26084L10.6883 3.26077L11.5866 3.2607L11.5673 4.94194ZM11.1203 8.13998C11.0503 8.15801 10.7147 8.32517 10.3745 8.51139L9.75602 8.84994L8.84071 8.82537C7.98405 8.80238 7.89306 8.78666 7.4211 8.57976C7.14373 8.45818 6.71278 8.32361 6.46335 8.28068C5.60011 8.13216 4.64615 8.42988 3.87804 9.08752C3.65308 9.28013 2.95968 9.69984 2.21692 10.093C0.825653 10.8295 0.695882 10.9148 0.750326 11.0574C0.811143 11.2164 0.947219 11.172 1.84402 10.7004C3.25624 9.95797 3.76271 9.65528 4.19006 9.29843C4.65903 8.90675 5.00902 8.74074 5.5875 8.63549C6.12305 8.53799 6.49948 8.59691 7.24739 8.89511L7.8576 9.13848L9.21361 9.17624C10.4845 9.21162 10.5857 9.22407 10.826 9.37395C11.0345 9.50403 11.3493 9.93783 11.3493 10.095C11.3493 10.1148 10.7773 10.1259 10.0781 10.1198C9.37891 10.1136 8.73813 10.1313 8.65426 10.1591C8.49364 10.2124 8.43723 10.473 8.58646 10.4722C8.6331 10.472 9.33945 10.4782 10.1562 10.4859C11.5792 10.4995 11.6434 10.4946 11.6908 10.3659C11.7683 10.1555 14.2438 8.8398 14.5622 8.8398C14.8097 8.8398 15.214 8.99948 15.214 9.09732C15.214 9.12473 14.6591 9.52962 13.9809 9.99702C13.3028 10.4644 12.3341 11.1336 11.8283 11.4842C10.6061 12.3311 10.3302 12.4559 9.59465 12.4944C9.11239 12.5196 8.79088 12.4815 7.7559 12.2766C7.06603 12.14 6.28801 12.013 6.02698 11.9944L5.55238 11.9605L4.46757 12.588C3.87092 12.9332 3.22593 13.3031 3.03419 13.4101C2.84252 13.517 2.64922 13.6486 2.60461 13.7025C2.50847 13.8187 2.56745 13.9425 2.71912 13.9425C2.77852 13.9425 3.44032 13.5878 4.18979 13.1544C4.93919 12.7208 5.64465 12.3506 5.75754 12.3315C5.87036 12.3124 6.64837 12.4259 7.48646 12.5837C9.79907 13.0191 10.3125 12.9573 11.5596 12.0928C11.9101 11.8499 12.9825 11.1087 13.9427 10.4457C14.9029 9.78264 15.6886 9.21366 15.6886 9.18127C15.6886 9.05792 15.3126 8.68127 15.1007 8.59242C14.8383 8.4824 14.3474 8.47145 14.0895 8.56983C13.9349 8.62882 13.866 8.61269 13.6596 8.46914C13.3171 8.23094 13.033 8.18733 12.6869 8.32C12.4078 8.42696 12.3904 8.42532 12.0665 8.26074C11.7542 8.10208 11.4287 8.06051 11.1203 8.13998ZM11.857 8.52438L12.0595 8.61106L11.7553 8.7885C11.1817 9.12303 11.1384 9.13235 10.8206 8.98961C10.4927 8.84232 10.5122 8.8002 11.0143 8.57167C11.3608 8.41389 11.5712 8.40212 11.857 8.52438ZM13.2838 8.66624C13.4131 8.72046 13.5185 8.78932 13.5179 8.81932C13.5172 8.86014 11.9468 9.74223 11.6957 9.84285C11.673 9.85197 11.5984 9.76053 11.5298 9.63977C11.4063 9.42212 11.4066 9.41913 11.5567 9.31707C11.7774 9.16705 12.9254 8.56765 12.992 8.56765C13.0232 8.56765 13.1545 8.61201 13.2838 8.66624Z" fill="black"/>
</svg>
