<svg width="16" height="16" viewBox="0 0 16 16" fill="none" xmlns="http://www.w3.org/2000/svg">
<path fill-rule="evenodd" clip-rule="evenodd" d="M7.88091 0.069607C7.80752 0.100138 7.57305 0.278974 7.35994 0.467116C7.09772 0.698511 6.91396 0.80912 6.79173 0.80912C6.69084 0.80912 6.37578 0.661887 6.07833 0.47582C5.4177 0.0625098 5.10397 0.0288986 4.76269 0.334948C4.57219 0.505749 4.54517 0.57103 4.54804 0.853846C4.55104 1.15059 4.60275 1.25216 5.17343 2.08126C5.51559 2.57839 5.82451 3.0671 5.85988 3.16726C5.9631 3.45932 5.82305 3.75666 5.44046 4.05782C4.73286 4.61482 3.79741 5.88207 3.27143 6.99639C3.1133 7.33137 2.90345 7.91862 2.80524 8.3014C2.65071 8.90319 2.63109 9.08885 2.65998 9.67377C2.6828 10.1361 2.74585 10.5122 2.85915 10.8621L3.02495 11.3741L2.90225 11.766C2.83479 11.9816 2.73171 12.3312 2.67326 12.5429L2.56697 12.9279H2.06795C1.49233 12.9279 1.22831 13.0344 1.12122 13.3097C1.08118 13.4127 0.968822 13.8067 0.871607 14.1851C0.730221 14.7355 0.711138 14.8929 0.776393 14.9718C0.899831 15.121 15.5292 15.121 15.6527 14.9718C15.7179 14.8929 15.6988 14.7355 15.5574 14.1851C15.4602 13.8067 15.3479 13.4127 15.3078 13.3097C15.2007 13.0344 14.9367 12.9279 14.3611 12.9279H13.8621L13.7558 12.5429C13.6973 12.3312 13.5943 11.9816 13.5268 11.766L13.4041 11.3741L13.5699 10.8621C13.6832 10.5122 13.7463 10.1361 13.7691 9.67377C13.798 9.08885 13.7783 8.90319 13.6238 8.3014C13.5256 7.91862 13.3158 7.33137 13.1576 6.99639C12.6314 5.88166 11.6962 4.61482 10.988 4.05735C10.6708 3.80768 10.5224 3.59296 10.6078 3.50725C10.7957 3.31871 11.8635 3.38854 12.3133 3.6188C12.7373 3.83587 12.7724 3.92713 12.5286 4.17955C12.2961 4.42025 12.2601 4.58891 12.4275 4.65338C12.6818 4.75134 13.115 4.30783 13.1172 3.94721C13.1201 3.46768 12.4251 3.04788 11.4992 2.97001C11.0795 2.93473 11.0546 2.92388 11.1497 2.81843C11.3188 2.63095 11.9652 2.33481 12.2842 2.29873C12.6147 2.26136 12.9031 2.35209 13.237 2.59875C13.4913 2.78656 13.6772 2.77604 13.7063 2.5723C13.7204 2.47374 13.6564 2.37485 13.5025 2.25701C12.9348 1.82254 12.2567 1.74548 11.6111 2.04202C11.4015 2.1383 11.2199 2.2068 11.2073 2.19428C11.1948 2.18169 11.349 1.93268 11.5498 1.6409C12.0035 0.982064 12.0418 0.676215 11.7123 0.345594C11.3741 0.00613402 11.0693 0.0365983 10.383 0.478498C9.70865 0.912498 9.5726 0.91136 9.06911 0.467317C8.55174 0.0109548 8.25836 -0.0872676 7.88091 0.069607ZM8.67945 0.739956C9.0122 1.08189 9.28983 1.21085 9.69357 1.21085C9.96707 1.21085 10.1021 1.15836 10.5509 0.877548C10.8439 0.694226 11.1315 0.543578 11.19 0.542775C11.3355 0.540766 11.5419 0.782003 11.4965 0.900915C11.4761 0.954144 11.1726 1.42309 10.822 1.943C10.4714 2.4629 10.1658 2.96291 10.143 3.05417C10.1089 3.19063 10.017 3.24673 9.62505 3.3704C8.93467 3.58827 7.49439 3.58827 6.80401 3.3704C6.41208 3.24673 6.3202 3.19063 6.28604 3.05417C6.26322 2.96291 5.95969 2.46584 5.61153 1.94956C4.93343 0.944101 4.85857 0.727168 5.14461 0.596405C5.28886 0.530455 5.35692 0.549805 5.66171 0.743639C6.26128 1.12488 6.46465 1.21085 6.76731 1.21085C7.13989 1.21085 7.42386 1.07473 7.7496 0.739956C8.1003 0.37954 8.32876 0.37954 8.67945 0.739956ZM6.98015 3.86158C7.28975 3.94869 7.64305 3.98364 8.21453 3.98364C8.78601 3.98364 9.13931 3.94869 9.4489 3.86158C10.1636 3.66051 10.1651 3.66045 10.2147 3.81739C10.2395 3.89566 10.5981 4.29785 11.0115 4.7111C11.8104 5.5096 12.2836 6.16629 12.7181 7.07941C13.3994 8.51144 13.5246 9.62262 13.1369 10.7955L13.0186 11.1536L11.8062 11.1871C10.6347 11.2194 10.5878 11.2261 10.4205 11.3839C10.3252 11.4738 10.2127 11.6696 10.1705 11.8191C10.061 12.2063 10.0061 12.2381 9.95272 11.9453C9.83329 11.2899 9.59776 11.1871 8.21453 11.1871C6.83129 11.1871 6.59576 11.2899 6.47633 11.9453C6.42295 12.2381 6.36804 12.2063 6.25855 11.8191C6.21631 11.6696 6.10382 11.4738 6.00853 11.3839C5.84126 11.2261 5.79435 11.2194 4.6229 11.1871L3.41048 11.1536L3.29211 10.7955C2.90452 9.62275 3.02962 8.51211 3.71087 7.07941C4.19928 6.0522 4.94771 5.05538 5.72303 4.39956C5.93067 4.22387 6.13804 3.98939 6.18388 3.87838C6.27589 3.65543 6.24914 3.65596 6.98015 3.86158ZM7.62857 5.63172C6.45117 5.92981 5.63635 7.1609 5.83205 8.34606C5.9272 8.92227 6.1257 9.31898 6.51376 9.70838C7.46556 10.6634 9.00806 10.6488 9.95046 9.67591C10.3116 9.30297 10.5045 8.9062 10.597 8.34606C10.7705 7.29574 10.1634 6.20733 9.15452 5.75947C8.79181 5.59845 8.01636 5.53357 7.62857 5.63172ZM9.0152 6.18925C9.50221 6.41744 9.74915 6.65499 9.97881 7.11624C10.4692 8.10094 10.085 9.26869 9.0968 9.79683C8.68953 10.0146 7.73953 10.0146 7.33225 9.79683C6.63933 9.42651 6.24794 8.77698 6.24687 7.99582C6.24627 7.58445 6.27716 7.45623 6.46405 7.09401C6.69425 6.64783 7.13862 6.24208 7.53876 6.11272C7.94276 5.9821 8.65163 6.01885 9.0152 6.18925ZM7.24705 6.7346C7.09972 6.91277 7.28214 7.03589 7.69329 7.03589C8.05893 7.03589 8.31461 7.11952 8.31461 7.2391C8.31461 7.27479 8.09409 7.30371 7.82233 7.30371C7.28141 7.30371 7.08357 7.40736 7.24705 7.60501C7.30823 7.67906 7.47103 7.70544 7.86603 7.70544C8.39388 7.70544 8.40022 7.70745 8.28385 7.83647C8.19411 7.93596 8.06093 7.97219 7.72999 7.98712C7.3963 8.00212 7.27707 8.03492 7.22062 8.12725C7.1573 8.23083 7.24284 8.34184 7.83094 8.91859C8.34931 9.42704 8.55108 9.58432 8.66431 9.56805C8.94875 9.52734 8.87535 9.32634 8.4209 8.90152C7.99054 8.49919 7.93369 8.37499 8.17996 8.37499C8.34123 8.37499 8.70961 8.06304 8.78574 7.86205C8.82537 7.75746 8.8987 7.70544 9.00639 7.70544C9.31299 7.70544 9.30111 7.32668 8.99345 7.29086C8.75558 7.26321 8.70387 7.03589 8.9354 7.03589C9.1325 7.03589 9.26655 6.89261 9.20937 6.7431C9.17374 6.64977 9.03589 6.63417 8.24889 6.63417C7.5136 6.63417 7.3135 6.65425 7.24705 6.7346ZM5.76379 11.7395C5.80103 11.7855 5.88063 12.019 5.94061 12.2583C6.00066 12.4977 6.06598 12.7462 6.08573 12.8107C6.1193 12.92 6.01768 12.9279 4.5826 12.9279C3.73609 12.9279 3.0435 12.9132 3.0435 12.8952C3.0435 12.7811 3.33762 11.8079 3.39273 11.7395C3.44184 11.6785 3.76418 11.6558 4.57813 11.6558C5.39188 11.6558 5.71449 11.6785 5.76379 11.7395ZM9.41614 11.7237C9.47532 11.8197 9.71579 12.7049 9.71579 12.8266C9.71579 12.914 9.51009 12.9279 8.21453 12.9279C6.91897 12.9279 6.71326 12.914 6.71326 12.8266C6.71326 12.7049 6.95373 11.8197 7.01291 11.7237C7.0386 11.682 7.50279 11.6558 8.21453 11.6558C8.92626 11.6558 9.39045 11.682 9.41614 11.7237ZM13.0363 11.7395C13.0914 11.8079 13.3856 12.7811 13.3856 12.8952C13.3856 12.9132 12.693 12.9279 11.8465 12.9279C10.4114 12.9279 10.3098 12.92 10.3433 12.8107C10.3631 12.7462 10.4284 12.4977 10.4884 12.2583C10.5484 12.019 10.628 11.7855 10.6653 11.7395C10.7146 11.6785 11.0372 11.6558 11.8509 11.6558C12.6649 11.6558 12.9872 11.6785 13.0363 11.7395ZM3.91077 13.4299C3.95641 13.4851 4.06149 13.7713 4.14436 14.066L4.29502 14.6018H2.76854C1.9289 14.6018 1.24252 14.5791 1.24312 14.5515C1.24672 14.3932 1.50981 13.5097 1.5778 13.4274C1.6981 13.2819 3.7902 13.2842 3.91077 13.4299ZM4.67968 13.5807C4.60569 13.9781 4.53162 13.9752 4.46644 13.5723C4.43114 13.3538 4.44215 13.3296 4.5768 13.3296C4.71351 13.3296 4.72238 13.3512 4.67968 13.5807ZM7.56618 13.4133C7.62943 13.4904 7.77923 13.9755 7.87638 14.4176L7.91681 14.6018H6.38539H4.85396L5.0129 14.0219C5.10037 13.703 5.21093 13.4173 5.25864 13.3869C5.40643 13.2929 7.48698 13.3167 7.56618 13.4133ZM8.32469 13.5322C8.27918 13.8568 8.19718 13.9117 8.12999 13.6625C8.05713 13.3923 8.08368 13.3136 8.23741 13.3443C8.31294 13.3594 8.34057 13.4189 8.32469 13.5322ZM11.1704 13.3869C11.2181 13.4173 11.3287 13.703 11.4162 14.0219L11.5751 14.6018H10.0437H8.51224L8.55268 14.4176C8.64983 13.9755 8.79962 13.4904 8.86287 13.4133C8.94207 13.3167 11.0226 13.2929 11.1704 13.3869ZM11.9626 13.5723C11.8974 13.9752 11.8234 13.9781 11.7494 13.5807C11.7067 13.3512 11.7155 13.3296 11.8523 13.3296C11.9869 13.3296 11.9979 13.3538 11.9626 13.5723ZM14.8513 13.4274C14.9192 13.5097 15.1823 14.3932 15.1859 14.5515C15.1865 14.5791 14.5002 14.6018 13.6605 14.6018H12.134L12.2847 14.066C12.3676 13.7713 12.4726 13.4851 12.5183 13.4299C12.6389 13.2842 14.731 13.2819 14.8513 13.4274Z" fill="black"/>
</svg>
