<svg width="14" height="13" viewBox="0 0 14 13" fill="none" xmlns="http://www.w3.org/2000/svg">
<path fill-rule="evenodd" clip-rule="evenodd" d="M0.845684 0.119599C0.729005 0.236683 0.727103 0.280221 0.745945 2.44683C0.764441 4.57169 0.769972 4.6668 0.893508 4.97556C0.964091 5.15202 1.09973 5.41961 1.19491 5.57023L1.36794 5.844V9.33681V12.8296L1.49603 12.9196C1.60977 12.9996 2.24814 13.0096 7.2163 13.0096C12.1845 13.0096 12.8228 12.9996 12.9366 12.9196L13.0647 12.8296V9.33681V5.844L13.2377 5.57023C13.3329 5.41961 13.4685 5.15202 13.5389 4.97556C13.6617 4.66819 13.6679 4.56625 13.6867 2.54946C13.6975 1.39157 13.6916 0.385164 13.6735 0.313005C13.59 -0.0206705 14.0221 0.000260076 7.21221 0.000260076C0.976941 0.000260076 0.964379 0.000491346 0.845684 0.119599ZM12.9782 2.57322C12.9782 4.63859 12.9619 4.74867 12.5725 5.29819L12.3732 5.57948V8.94763V12.3158H7.2163H2.05938V8.94705V5.57827L1.85402 5.27229C1.46636 4.69461 1.4625 4.67056 1.43853 2.66972C1.4266 1.67338 1.43098 0.821121 1.44832 0.775849C1.47529 0.705251 2.29861 0.695653 7.22898 0.708258L12.9782 0.723002V2.57322ZM5.01865 5.55294C4.86463 5.68119 4.59607 5.85684 4.42177 5.94322C4.13177 6.08685 4.04684 6.10032 3.42201 6.10188C2.81713 6.10332 2.72989 6.11616 2.65856 6.21411C2.5923 6.30494 2.57795 6.79091 2.57795 8.94023V11.5557L2.72978 11.6755C2.88028 11.7944 2.91825 11.7954 7.2163 11.7954C11.5144 11.7954 11.5523 11.7944 11.7028 11.6755L11.8547 11.5557V8.94023C11.8547 6.79091 11.8403 6.30494 11.774 6.21411C11.7027 6.11616 11.6155 6.10332 11.0106 6.10188C10.3858 6.10032 10.3008 6.08685 10.0108 5.94322C9.83654 5.85684 9.56798 5.68119 9.41396 5.55294C9.26 5.42464 9.08582 5.31964 9.02693 5.31964C8.9681 5.31964 8.79323 5.43256 8.6384 5.57052C8.15832 5.99838 7.88497 6.1002 7.2163 6.1002C6.69761 6.1002 6.60876 6.08396 6.3258 5.93761C6.15288 5.84823 5.90068 5.67257 5.76528 5.54733C5.62987 5.4221 5.46952 5.31964 5.40884 5.31964C5.34823 5.31964 5.1726 5.42464 5.01865 5.55294ZM5.59484 6.32917C6.4888 7.0134 7.94703 7.01097 8.84497 6.32367L9.03805 6.17589L9.25072 6.3231C9.62081 6.57924 10.0889 6.76108 10.5403 6.8241C10.7807 6.85764 11.0127 6.87764 11.0559 6.86851C11.1208 6.85474 11.137 7.21484 11.1495 8.94781L11.1647 11.0438H7.2163H3.26794L3.28309 8.94781C3.2975 6.95067 3.3032 6.85272 3.40398 6.87001C3.78692 6.93563 4.82118 6.61161 5.21104 6.3039C5.3938 6.15964 5.37139 6.15814 5.59484 6.32917Z" fill="black"/>
</svg>
