<svg width="14" height="14" viewBox="0 0 14 14" fill="none" xmlns="http://www.w3.org/2000/svg">
<path fill-rule="evenodd" clip-rule="evenodd" d="M1.75294 0.0419254C1.18049 0.181616 0.81473 0.629588 0.747797 1.27309C0.72677 1.47513 0.737588 2.76999 0.771865 4.15061C0.820747 6.1227 0.857864 6.74659 0.94508 7.06098C1.26785 8.22402 1.86578 9.27228 2.65532 10.0589C3.13974 10.5416 6.33764 12.863 6.76486 13.0422C7.06255 13.167 7.34955 13.1662 7.65129 13.0397C7.91679 12.9284 10.6298 11.0256 11.3489 10.4464C12.4038 9.5967 13.1948 8.29404 13.535 6.84625C13.6761 6.2459 13.7539 1.50362 13.6307 1.01284C13.5267 0.59838 13.3391 0.346883 12.9969 0.16323L12.7152 0.012142L7.34028 0.00115126C4.38408 -0.00488683 1.86977 0.013431 1.75294 0.0419254ZM12.8188 0.556046C13.2305 0.769686 13.233 0.790717 13.2058 3.83297C13.1821 6.46761 13.1741 6.61606 13.0278 7.10127C12.6752 8.27158 11.9054 9.45288 11.0538 10.1306C10.1604 10.8417 7.53669 12.6556 7.33853 12.6993C7.19858 12.7301 7.05227 12.7046 6.88156 12.6197C6.49889 12.4292 3.51443 10.3016 3.09971 9.92358C2.42849 9.31183 1.81609 8.38529 1.5232 7.53832C1.21247 6.63987 1.18786 6.35099 1.18786 3.60101C1.18786 0.749536 1.18469 0.773688 1.58628 0.554689C1.8603 0.405229 12.5308 0.406518 12.8188 0.556046ZM2.99627 1.74684C2.85673 1.82079 2.65897 2.0079 2.55681 2.16272L2.37102 2.44421L2.35087 4.20889C2.33904 5.24018 2.36088 6.16869 2.40327 6.44326C2.55627 7.43256 2.97315 8.31025 3.63531 9.03726C4.04374 9.48571 6.42844 11.218 6.83254 11.3597C7.34069 11.538 7.55907 11.4484 8.91017 10.5077C10.7767 9.20796 11.3667 8.54994 11.8262 7.25521L12.0372 6.66083L12.0607 4.69336C12.076 3.40996 12.0587 2.64061 12.0109 2.48064C11.9113 2.14698 11.7053 1.9001 11.3931 1.74026C11.1417 1.61149 10.9829 1.60661 7.19087 1.60946C3.39611 1.61237 3.24054 1.61746 2.99627 1.74684ZM11.2233 2.14556C11.5869 2.38613 11.5947 2.43478 11.5973 4.49255C11.6 6.64238 11.5707 6.84428 11.1244 7.75943C10.754 8.51867 10.2052 9.06081 8.82768 10.0281C7.49139 10.9665 7.48706 10.9689 7.15051 10.9689C6.91895 10.9689 6.7266 10.858 5.67555 10.1181C4.18795 9.07092 3.61888 8.51107 3.2231 7.70536C2.81163 6.86782 2.74287 6.39156 2.74287 4.3787C2.74287 2.5037 2.76376 2.39427 3.16874 2.14651C3.37664 2.01923 3.53525 2.01408 7.20507 2.01421C10.8673 2.01442 11.0332 2.01984 11.2233 2.14556ZM8.06154 5.78076L6.65311 7.37699L5.74674 6.51945C4.86099 5.68137 4.63592 5.54826 4.63592 5.86245C4.63592 5.92934 5.07315 6.42209 5.60753 6.95738C6.37388 7.72503 6.60598 7.92096 6.70618 7.88494C6.77602 7.85984 7.48733 7.09307 8.28681 6.18104C9.74142 4.52158 9.92762 4.24193 9.60519 4.2015C9.50445 4.18888 9.1111 4.59126 8.06154 5.78076Z" fill="black"/>
</svg>
