<svg width="14" height="10" viewBox="0 0 14 10" fill="none" xmlns="http://www.w3.org/2000/svg">
<path fill-rule="evenodd" clip-rule="evenodd" d="M2.81408 0.0948996C2.71003 0.14638 2.56737 0.269412 2.49704 0.368324C2.37518 0.539771 2.36838 0.611265 2.35184 1.89307L2.33443 3.23792H7.61176H12.889V5.29135V7.34478H10.0645H7.24002V7.75171V8.15857L10.1988 8.14215L13.1575 8.12566L13.3673 7.96509C13.498 7.86496 13.6006 7.72336 13.6395 7.58911C13.6823 7.44196 13.6965 6.2892 13.6846 3.95072C13.6676 0.593681 13.6649 0.524558 13.5478 0.364449C13.4822 0.274618 13.3395 0.155635 13.2308 0.100048C13.047 0.0059948 12.6802 -0.00100425 8.0182 9.47685e-05C3.51651 0.00119379 2.98389 0.0109114 2.81408 0.0948996ZM12.889 1.21341V1.61831H8.0182H3.14737V1.21341V0.80851H8.0182H12.889V1.21341ZM2.77269 4.18435C2.26935 4.35261 1.94857 4.55032 1.57493 4.92243C0.851508 5.64298 0.582546 6.58056 0.815135 7.57077C1.08248 8.70889 2.01734 9.55658 3.1951 9.72884C4.53581 9.92493 5.8559 9.07816 6.26095 7.76223C6.41336 7.26692 6.41411 6.55453 6.26268 6.06627C6.02421 5.29742 5.34495 4.56386 4.60245 4.27325C4.19122 4.11228 3.14091 4.06126 2.77269 4.18435ZM8.70991 4.19858C7.9873 4.59388 7.8161 5.52504 8.35639 6.12111C8.72173 6.5241 9.4629 6.6159 9.88151 6.30991C10.0205 6.20834 10.0304 6.20926 10.2766 6.34739C10.614 6.5366 11.076 6.53596 11.4442 6.34589C12.2143 5.94822 12.2711 4.80026 11.5457 4.29581C11.2177 4.06768 10.6635 4.04096 10.2866 4.23508L10.0187 4.37303L9.85614 4.25428C9.63704 4.09411 8.96095 4.0612 8.70991 4.19858ZM5.29601 5.76977L5.56687 6.04574L4.27089 7.3453L2.97484 8.64486L2.28295 7.95236C1.9024 7.57147 1.59101 7.24419 1.59101 7.22504C1.59101 7.20596 1.71194 7.06725 1.85974 6.9168L2.12847 6.64326L2.55059 7.06401L2.97277 7.48482L3.17861 7.28462C3.29182 7.17455 3.73965 6.72667 4.17382 6.28937C4.60793 5.85208 4.97707 5.4942 4.99413 5.49403C5.01114 5.49392 5.147 5.61799 5.29601 5.76977Z" fill="black"/>
</svg>
