<svg width="14" height="11" viewBox="0 0 14 11" fill="none" xmlns="http://www.w3.org/2000/svg">
<path fill-rule="evenodd" clip-rule="evenodd" d="M0.10376 5.37685V10.2591H6.58127H13.0588V5.37685V0.494629H6.58127H0.10376V5.37685ZM11.5612 1.40463C11.5609 1.42849 10.5049 2.50743 9.21448 3.80241L6.86835 6.15685H6.6123H6.35625L4.92418 4.72685C4.13657 3.94032 3.0765 2.86138 2.56855 2.32907L1.64495 1.3613H6.60338C9.3305 1.3613 11.5615 1.38077 11.5612 1.40463ZM3.00827 4.05946L4.26451 5.34213L4.10508 5.53279C4.01738 5.63772 3.28851 6.39443 2.48535 7.21442L1.02501 8.70537V5.3661V2.02684L1.38855 2.40182C1.58846 2.60808 2.3174 3.35405 3.00827 4.05946ZM12.124 7.04102L12.1087 8.67631L10.507 7.03166L8.90528 5.38696L10.507 3.76416L12.1087 2.1413L12.124 3.77352C12.1324 4.67121 12.1324 6.1416 12.124 7.04102ZM5.37236 6.44597C5.8388 6.91761 6.12721 7.05437 6.63885 7.0464C7.11622 7.039 7.35938 6.91738 7.84867 6.44129L8.27026 6.03107L9.6759 7.46615C10.4491 8.25551 11.1797 9.01177 11.2996 9.14685L11.5176 9.39241H6.58311H1.64869L1.97354 9.0313C2.53424 8.40805 4.85105 6.0577 4.91306 6.04933C4.9456 6.04488 5.15224 6.22341 5.37236 6.44597Z" fill="black"/>
</svg>
