<svg width="11" height="14" viewBox="0 0 11 14" fill="none" xmlns="http://www.w3.org/2000/svg">
<path fill-rule="evenodd" clip-rule="evenodd" d="M3.93168 0.594435C2.35876 0.942277 1.12967 1.85114 0.489721 3.13967C0.217325 3.68818 0.105071 4.17624 0.10377 4.81805C0.10185 5.77885 0.366873 6.56087 1.18598 8.01108C1.80548 9.10788 2.2812 9.80605 3.55632 11.4895C4.79347 13.1228 4.82872 13.1613 5.08972 13.1613C5.35072 13.1613 5.38597 13.1228 6.62311 11.4895C7.89402 9.8116 8.37179 9.11101 8.99544 8.01108C9.85835 6.48898 10.1146 5.66791 10.0628 4.59138C10.0086 3.46734 9.56941 2.6247 8.5958 1.77715C7.91856 1.1876 7.4556 0.936938 6.58687 0.68935C5.82488 0.472232 4.67087 0.430976 3.93168 0.594435ZM5.52963 1.29406C7.43163 1.48448 8.9019 2.73472 9.15589 4.37755C9.31733 5.42173 8.78134 6.8399 7.47598 8.82238C7.12138 9.36086 5.13246 12.0288 5.08557 12.0288C5.04561 12.0288 3.39036 9.82568 2.93812 9.17055C2.0907 7.94286 1.38181 6.6045 1.11883 5.7357C1.04349 5.48677 1.00824 5.17759 1.00936 4.77534C1.01078 4.27169 1.03674 4.11702 1.18096 3.75122C1.64825 2.56597 2.72099 1.67781 4.03762 1.386C4.69615 1.24013 4.87847 1.22886 5.52963 1.29406ZM4.59412 2.85411C3.92976 3.00614 3.33807 3.41379 3.04096 3.92428C2.88416 4.19366 2.8566 4.30831 2.83801 4.76784C2.81701 5.28734 2.82166 5.3088 3.04108 5.6952C4.02492 7.42816 6.91843 7.06128 7.35066 5.14879C7.54754 4.27768 6.90747 3.28646 5.94135 2.96618C5.55998 2.83977 4.89767 2.78465 4.59412 2.85411ZM5.80221 3.79113C6.59573 4.20595 6.71784 5.09023 6.0603 5.6602C5.47133 6.17075 4.7081 6.17075 4.11914 5.6602C3.65582 5.25859 3.56704 4.76029 3.86886 4.25568C4.11233 3.84878 4.5567 3.61586 5.08972 3.61586C5.40517 3.61586 5.52176 3.64455 5.80221 3.79113Z" fill="black"/>
</svg>
