<svg width="14" height="14" viewBox="0 0 14 14" fill="none" xmlns="http://www.w3.org/2000/svg">
<path fill-rule="evenodd" clip-rule="evenodd" d="M5.76579 0.557369C3.29037 0.911913 1.17301 2.7777 0.499952 5.19751C0.0730127 6.73258 0.265462 8.63413 0.978358 9.92416L1.17913 10.2875L0.603023 12.0189C0.286173 12.9712 0.0641368 13.7363 0.109686 13.7191C0.155235 13.702 0.943748 13.4472 1.86196 13.1528L3.53139 12.6177L4.09814 12.8594C5.07236 13.2748 5.49855 13.3564 6.69466 13.3564C7.51854 13.3564 7.86938 13.3272 8.23701 13.2279C10.1598 12.7084 11.7597 11.3748 12.5449 9.63708C12.9649 8.70746 13.0583 8.22311 13.0588 6.97161C13.0593 5.62786 12.9761 5.22734 12.478 4.1753C12.0877 3.35098 11.6679 2.77667 11.0257 2.18848C9.61636 0.897759 7.649 0.287681 5.76579 0.557369ZM8.01415 1.69267C9.77599 2.14988 11.2288 3.5162 11.8285 5.28002C12.0968 6.06899 12.1426 7.37932 11.9311 8.21828C11.4874 9.97905 10.2765 11.3671 8.62755 12.0052C7.18387 12.5639 5.42981 12.4504 4.11693 11.7134L3.70657 11.483L2.70806 11.8124C2.15893 11.9936 1.69793 12.1301 1.68362 12.1157C1.6693 12.1013 1.8043 11.6477 1.98368 11.1077C2.30018 10.1546 2.30631 10.1206 2.19264 9.94688C1.93393 9.55153 1.53032 8.62122 1.42284 8.17243C1.25895 7.48799 1.27546 6.33108 1.45917 5.62524C2.0101 3.50875 3.74655 1.92783 5.90182 1.58061C6.39419 1.50128 7.50347 1.5601 8.01415 1.69267ZM4.06925 4.05448C3.50511 4.56444 3.34961 5.3994 3.66419 6.22938C4.05837 7.26919 5.43641 8.89975 6.35064 9.40799C7.11727 9.8342 8.01387 10.1477 8.46379 10.147C9.34554 10.1455 9.99734 9.59213 9.99734 8.84507V8.58712L9.20421 8.17747L8.41116 7.76783L8.02901 8.19826C7.79266 8.46449 7.59251 8.62868 7.50423 8.62868C7.28261 8.62868 6.53834 8.18113 6.11635 7.79414C5.74948 7.45768 5.11213 6.58883 5.11213 6.42519C5.11213 6.38169 5.23598 6.18892 5.38736 5.99677C5.53873 5.80462 5.66258 5.58015 5.66258 5.49806C5.66258 5.28899 5.13498 3.92177 5.02805 3.85369C4.97968 3.8229 4.80863 3.79722 4.6479 3.7966C4.40626 3.79577 4.30614 3.84037 4.06925 4.05448Z" fill="black"/>
</svg>
