<svg width="18" height="16" viewBox="0 0 18 16" fill="none" xmlns="http://www.w3.org/2000/svg">
<path fill-rule="evenodd" clip-rule="evenodd" d="M4.16501 0.0446397C1.93843 0.393418 0.227816 2.21525 0.0191944 4.45997C-0.0588496 5.2993 0.100566 6.12975 0.507222 7.00266C0.78209 7.59273 1.20579 8.05292 4.75457 11.6157C8.22813 15.103 8.7333 15.5734 9.00494 15.5734C9.27659 15.5734 9.78175 15.103 13.2553 11.6157C16.819 8.0379 17.2276 7.59384 17.512 6.98925C18.1761 5.578 18.1621 4.08811 17.4716 2.69098C16.6378 1.00385 15.0498 0.0276999 13.1391 0.0276999C11.5969 0.0276999 10.6636 0.463597 9.2421 1.84802C8.43706 2.63199 8.34943 2.7539 8.34943 3.08967C8.34954 3.3602 8.41084 3.5051 8.57369 3.61904C9.00696 3.92264 9.22859 3.8211 10.2178 2.86582C11.4307 1.69445 11.9908 1.41787 13.1515 1.41717C13.8702 1.41666 14.0509 1.45619 14.6278 1.74023C15.3946 2.11765 15.9295 2.66779 16.3017 3.46144C16.5234 3.93444 16.5673 4.16988 16.5673 4.88518C16.5673 6.34685 16.5297 6.39857 12.5485 10.4057C10.6614 12.3052 9.06675 13.8592 9.00494 13.8592C8.94313 13.8592 7.34848 12.3052 5.4614 10.4057C1.45545 6.37367 1.44113 6.3538 1.44456 4.83477C1.44647 3.99776 1.47309 3.87817 1.78739 3.29526C1.97473 2.9476 2.30869 2.5 2.52941 2.30056C3.83528 1.12072 5.85051 1.10106 7.16506 2.25528C7.62526 2.65932 8.07447 2.65538 8.37968 2.2448C8.55312 2.01147 8.56421 1.93333 8.45995 1.68165C8.33734 1.38561 7.6426 0.799468 7.08914 0.525004C6.22934 0.0987864 5.05313 -0.0945086 4.16501 0.0446397ZM3.97403 2.11916C3.04819 2.45846 2.29356 3.43451 2.14615 4.48337C2.09351 4.85806 2.12053 4.98753 2.29901 5.2144C2.69306 5.71533 3.5096 5.457 3.5096 4.83154C3.5096 4.10747 4.12497 3.42887 4.88474 3.31493C5.66135 3.19847 5.98341 2.61989 5.52624 2.16272C5.28313 1.91961 4.57287 1.89965 3.97403 2.11916Z" fill="url(#paint0_linear_264_511)"/>
<defs>
<linearGradient id="paint0_linear_264_511" x1="9" y1="0" x2="9" y2="15.5734" gradientUnits="userSpaceOnUse">
<stop stop-color="#F77433"/>
<stop offset="1" stop-color="#FEAF38"/>
</linearGradient>
</defs>
</svg>
