<svg width="10" height="11" viewBox="0 0 10 11" fill="none" xmlns="http://www.w3.org/2000/svg">
<path fill-rule="evenodd" clip-rule="evenodd" d="M5.1605 1.03824C4.65505 1.1446 3.92786 1.57352 3.51252 2.01021C3.1646 2.37598 2.59929 3.37754 2.59929 3.62817C2.59929 3.67649 2.4393 3.77671 2.24381 3.8509C-0.092819 4.73742 -0.764011 7.94101 0.993495 9.81845C2.751 11.6959 5.74994 10.9789 6.57983 8.48281C6.64928 8.27398 6.7431 8.10307 6.78833 8.10307C6.83357 8.10307 7.10709 7.97667 7.39618 7.82222C9.47812 6.70956 9.9224 3.79396 8.27777 2.03709C7.45414 1.15726 6.32063 0.794067 5.1605 1.03824ZM7.07196 1.83394C7.64432 2.11844 8.20708 2.7168 8.46678 3.31702C8.65064 3.74206 8.67194 3.876 8.67194 4.60705C8.67194 5.33119 8.64984 5.47313 8.47537 5.8709C8.24097 6.40533 7.63647 7.07361 7.18105 7.30194C7.00106 7.39213 6.84549 7.4577 6.83531 7.44753C6.82513 7.43743 6.78477 7.1586 6.7455 6.82795C6.55168 5.19524 5.33751 3.88586 3.82233 3.67572C3.52968 3.63508 3.26648 3.60082 3.23747 3.5995C3.15427 3.5957 3.30678 3.22854 3.54539 2.85811C3.83811 2.40355 4.32414 1.99002 4.8341 1.76169C5.19562 1.5997 5.34959 1.57671 5.94471 1.59535C6.52164 1.61353 6.70761 1.65284 7.07196 1.83394ZM4.50763 4.47312C4.71803 4.57707 4.97199 4.73594 5.07199 4.82622C5.13616 4.88413 5.09534 4.99067 5.0089 4.99088L4.14473 4.99294L3.43528 4.99458C3.21472 4.99509 3.03565 4.81643 3.03565 4.59587C3.03565 4.38053 3.21942 4.21102 3.43406 4.22837L3.58037 4.24021C3.93135 4.26856 4.26116 4.35138 4.50763 4.47312ZM2.52577 5.02759C2.72147 6.67654 3.93469 7.97255 5.47831 8.18161C5.78784 8.22356 6.04885 8.26668 6.0583 8.27756C6.06783 8.28843 6.00645 8.45461 5.92202 8.64689C5.70827 9.13338 5.08268 9.77913 4.5824 10.0295C4.21004 10.2159 4.07717 10.2395 3.39928 10.2395C2.71544 10.2395 2.59006 10.2168 2.1993 10.0221C1.62658 9.73679 1.06404 9.13843 0.804479 8.53852C0.620627 8.11348 0.599318 7.97954 0.599318 7.24849C0.599318 6.52435 0.621427 6.38241 0.795897 5.98464C1.02709 5.4576 1.62832 4.78823 2.08621 4.54801C2.26402 4.45478 2.41966 4.38921 2.43195 4.40242C2.44431 4.41563 2.48649 4.69694 2.52577 5.02759ZM5.92311 5.88893C6.01365 6.05984 6.08834 6.22672 6.08899 6.25974C6.08965 6.29275 5.51024 6.31023 4.80152 6.29858L3.86444 6.28316C3.64753 6.27959 3.44973 6.15831 3.34816 5.96661C3.25761 5.7957 3.18292 5.62882 3.18227 5.5958C3.18161 5.56279 3.76102 5.54531 4.46974 5.55696L5.40682 5.57238C5.62373 5.57595 5.82154 5.69723 5.92311 5.88893ZM6.23561 7.25967C6.23561 7.47502 6.05184 7.64452 5.8372 7.62717L5.69089 7.61534C5.12457 7.56958 4.54596 7.34226 4.19927 7.02933C4.1351 6.97141 4.17592 6.86487 4.26236 6.86466L5.12653 6.8626L5.83598 6.86096C6.05654 6.86045 6.23561 7.03911 6.23561 7.25967Z" fill="#FD9149"/>
</svg>
