<svg width="26" height="20" viewBox="0 0 26 20" fill="none" xmlns="http://www.w3.org/2000/svg">
<path fill-rule="evenodd" clip-rule="evenodd" d="M12.3664 0.174577C11.984 0.360111 11.5129 0.833512 9.84826 2.70468C9.2479 3.37953 8.63738 4.06496 8.49163 4.22789C7.52375 5.30919 2.66117 10.7782 2.35959 11.1245C1.83092 11.7316 1.56895 12.3374 1.55922 12.9751C1.54441 13.9501 2.00765 14.7958 2.84865 15.3291L3.22827 15.5699H6.67251H10.1167L11.3324 13.5243C12.001 12.3992 12.5607 11.447 12.5762 11.4082C12.5918 11.3694 11.5561 11.3378 10.2747 11.3378C8.99338 11.3378 7.92766 11.3092 7.90641 11.2743C7.88517 11.2394 8.34274 10.6205 8.92339 9.89888C9.50394 9.17731 10.6121 7.79892 11.3859 6.8357C12.2569 5.75153 12.8299 5.10673 12.8901 5.14287C12.9798 5.1967 13.6816 5.95221 17.2228 9.80738C17.9318 10.5793 18.5126 11.2388 18.5135 11.273C18.5145 11.3073 17.3725 11.3454 15.9757 11.3577L13.4363 11.3801L14.8336 13.475L16.2309 15.5699H19.4317C22.996 15.5699 23.1153 15.5545 23.7496 15.0116C23.9536 14.837 24.2083 14.4851 24.3731 14.1505C24.6181 13.6532 24.6518 13.5025 24.6518 12.9056C24.6518 11.7523 25.2185 12.4215 17.5899 4.56646C16.1658 3.10004 14.6772 1.56329 14.2821 1.15151C13.8735 0.725594 13.3915 0.314997 13.1644 0.199292C12.9449 0.087396 12.7544 -0.00232407 12.7412 4.58939e-05C12.728 0.00233122 12.5593 0.0808786 12.3664 0.174577ZM12.6136 7.86418C11.5141 8.12877 11.1418 9.48295 11.947 10.2882C12.6499 10.9911 13.7384 10.8008 14.2009 9.89423C14.7419 8.83375 13.7668 7.58673 12.6136 7.86418ZM0.740479 15.5397C0.740479 15.5683 1.26424 16.5187 1.9043 17.6516L3.06813 19.7116L13.325 19.7144L23.5819 19.7173L23.9149 19.1037C24.747 17.5699 25.7133 15.6553 25.6511 15.663C25.6135 15.6676 25.1448 16.1415 24.6094 16.716L23.6361 17.7606L13.606 17.7635L3.57598 17.7664L2.15823 16.627C1.37842 16.0004 0.740479 15.511 0.740479 15.5397Z" fill="url(#paint0_linear_263_355)"/>
<defs>
<linearGradient id="paint0_linear_263_355" x1="13.1972" y1="0" x2="13.1972" y2="19.7173" gradientUnits="userSpaceOnUse">
<stop stop-color="#F77433"/>
<stop offset="1" stop-color="#FEAF38"/>
</linearGradient>
</defs>
</svg>
