<svg width="25" height="22" viewBox="0 0 25 22" fill="none" xmlns="http://www.w3.org/2000/svg">
<path fill-rule="evenodd" clip-rule="evenodd" d="M5.78473 0.061423C2.69227 0.541333 0.316411 3.04813 0.0266589 6.13681C-0.0817356 7.2917 0.139675 8.43438 0.704474 9.63547C1.08624 10.4474 1.6747 11.0806 6.60357 15.9829C11.428 20.7813 12.1296 21.4286 12.5069 21.4286C12.8841 21.4286 13.5858 20.7813 18.4102 15.9829C23.3598 11.0599 23.9272 10.4489 24.3223 9.61702C25.2446 7.67518 25.2252 5.62513 24.2661 3.70271C23.1081 1.38128 20.9025 0.0381144 18.2487 0.0381144C16.1069 0.0381144 14.8106 0.637898 12.8363 2.54283C11.7181 3.62155 11.5964 3.78929 11.5964 4.2513C11.5966 4.62355 11.6817 4.82292 11.9079 4.9797C12.5097 5.39745 12.8175 5.25774 14.1913 3.94329C15.8759 2.33152 16.6539 1.95095 18.2659 1.94998C19.2642 1.94929 19.5151 2.00368 20.3165 2.39451C21.3813 2.91383 22.1243 3.6708 22.6412 4.76284C22.9491 5.41368 23.0102 5.73765 23.0102 6.72189C23.0102 8.73309 22.958 8.80427 17.4285 14.318C14.8075 16.9317 12.5927 19.07 12.5069 19.07C12.421 19.07 10.2062 16.9317 7.58528 14.318C2.02145 8.77 2.00157 8.74267 2.00633 6.65251C2.00899 5.50082 2.04596 5.33627 2.48248 4.5342C2.74268 4.05581 3.20651 3.43994 3.51307 3.1655C5.32678 1.54208 8.12571 1.51503 9.95147 3.10321C10.5906 3.65915 11.2145 3.65374 11.6385 3.08878C11.8793 2.76773 11.8947 2.66021 11.7499 2.3139C11.5796 1.90656 10.6147 1.10005 9.84602 0.722391C8.65186 0.135928 7.01824 -0.130041 5.78473 0.061423ZM5.51948 2.91591C4.2336 3.38278 3.1855 4.7258 2.98076 6.169C2.90766 6.68456 2.94519 6.86271 3.19307 7.17488C3.74036 7.86415 4.87444 7.50869 4.87444 6.64808C4.87444 5.65177 5.72913 4.71803 6.78437 4.56125C7.86299 4.40101 8.31029 3.6049 7.67533 2.97584C7.33768 2.64134 6.35121 2.61387 5.51948 2.91591Z" fill="#A09D9D"/>
</svg>
