<svg width="23" height="22" viewBox="0 0 23 22" fill="none" xmlns="http://www.w3.org/2000/svg">
<path d="M22.5 11C22.5 16.7783 17.5963 21.5 11.5 21.5C5.40369 21.5 0.5 16.7783 0.5 11C0.5 5.22172 5.40369 0.5 11.5 0.5C17.5963 0.5 22.5 5.22172 22.5 11Z" fill="white" stroke="#EEEEEE"/>
<path d="M9.20804 5.23351C9.1132 5.25804 8.93617 5.33865 8.81605 5.40524C8.07632 5.81879 7.59266 6.57229 7.50414 7.44144C7.46937 7.80242 7.51363 8.62952 7.59582 9.11666C7.73175 9.91222 8.07948 10.8935 8.46831 11.5524C9.11636 12.6599 10.0426 13.5886 11.0668 14.1599C11.9456 14.6505 12.8403 14.8853 13.8329 14.8923C14.2059 14.8923 14.326 14.8818 14.5347 14.8152C15.2207 14.605 15.7296 14.1353 16.0521 13.4274C16.2797 12.9192 16.305 12.5232 16.1279 12.1342C16.0173 11.8888 15.8877 11.7522 15.1985 11.1669C14.3703 10.4625 14.2818 10.4134 13.9024 10.4134C13.5136 10.4134 13.3619 10.494 12.9509 10.9286L12.638 11.2615L12.5083 11.216C11.7781 10.9776 11.0226 10.14 10.8076 9.33045L10.7697 9.18676L11.0605 8.8433C11.4525 8.38419 11.5315 8.20896 11.5315 7.7849C11.5315 7.51153 11.5189 7.44495 11.4462 7.27672C11.3513 7.06644 10.3682 5.62603 10.2259 5.49636C9.96673 5.25103 9.5368 5.13888 9.20804 5.23351ZM9.64112 6.19729C9.67906 6.23234 9.88454 6.52673 10.482 7.39238C10.6148 7.58864 10.6938 7.73583 10.6938 7.79191C10.6938 7.862 10.6021 7.98817 10.3176 8.30709C10.1121 8.5419 9.92563 8.7662 9.90667 8.80826C9.85925 8.9134 9.86241 9.05008 9.91931 9.32694C10.2133 10.7253 11.2502 11.8748 12.5115 12.2008C12.7612 12.2638 12.8845 12.2673 12.9794 12.2148C13.0173 12.1938 13.2196 11.987 13.4314 11.7592C13.7223 11.4438 13.8329 11.3421 13.8961 11.3421C13.9783 11.3421 14.089 11.4262 14.933 12.1517C15.3756 12.5302 15.423 12.6073 15.3566 12.8211C15.2112 13.2977 14.8445 13.6937 14.3893 13.869C14.2186 13.9321 14.1237 13.9461 13.7886 13.9426C12.4262 13.9286 11.1364 13.3328 10.1027 12.2393C9.04049 11.1143 8.46199 9.78605 8.35451 8.22648C8.31657 7.65873 8.35135 7.35733 8.49044 7.0314C8.72437 6.48117 9.41035 5.98351 9.64112 6.19729Z" fill="#FFD588"/>
</svg>
