<svg width="21" height="23" viewBox="0 0 21 23" fill="none" xmlns="http://www.w3.org/2000/svg">
<path d="M9.69456 0.944859C7.87443 1.13738 6.27713 2.2525 5.46346 3.90518C5.13548 4.57275 4.97776 5.18532 4.91016 6.07292L4.89514 6.26794H3.78103H2.66943L2.47915 6.33045C2.00096 6.49046 1.66798 6.873 1.58286 7.35806C1.56283 7.46557 1.24738 10.5759 0.879346 14.2663C0.248436 20.6045 0.213386 20.987 0.243429 21.1496C0.331055 21.6471 0.751662 22.0897 1.24738 22.2072C1.38758 22.2397 2.44661 22.2447 10.2203 22.2447C19.9844 22.2447 19.1832 22.2572 19.5237 22.0797C19.7315 21.9697 19.9844 21.7121 20.0795 21.5171C20.1622 21.3471 20.2222 21.1171 20.2222 20.9695C20.2222 20.907 20.047 19.1193 19.8342 16.9941C19.6214 14.8689 19.3234 11.8886 19.1732 10.3684C19.023 8.84822 18.8878 7.51558 18.8728 7.40556C18.8377 7.14554 18.7101 6.88301 18.5248 6.68799C18.347 6.50296 18.1893 6.40295 17.9565 6.32795C17.7687 6.26794 17.7562 6.26794 16.6796 6.26794H15.5931L15.5805 6.16043C15.573 6.10292 15.563 5.95291 15.5555 5.83039C15.5155 5.15282 15.2926 4.39774 14.9371 3.73766C14.1835 2.34001 12.8616 1.3474 11.3344 1.02987C10.8487 0.927357 10.1803 0.894854 9.69456 0.944859ZM10.9589 2.31751C12.7364 2.63504 14.1285 4.20771 14.2311 6.01041L14.2461 6.26794H10.2454H6.24458L6.25961 5.98541C6.29716 5.31783 6.53751 4.62526 6.94559 4.00519C7.17092 3.66516 7.67415 3.1651 8.01714 2.93758C8.91844 2.34251 9.91738 2.13249 10.9589 2.31751ZM4.90515 8.01063C4.91517 8.48068 4.94271 8.57819 5.10294 8.73821C5.24564 8.88072 5.36331 8.93073 5.57612 8.93073C5.78893 8.93073 5.9066 8.88072 6.0493 8.73821C6.20953 8.58069 6.23457 8.48068 6.24709 8.01063L6.2571 7.59308H10.2479H14.2386V7.94312C14.2386 8.13314 14.2511 8.34817 14.2662 8.41817C14.3037 8.59819 14.4264 8.76071 14.5891 8.85322C14.7093 8.92073 14.7493 8.93073 14.9146 8.93073C15.1374 8.92823 15.2551 8.87822 15.4003 8.71821C15.5555 8.54569 15.573 8.48068 15.5856 8.01063L15.5956 7.59308L16.5745 7.59808L17.5559 7.60559L17.5985 8.06814C17.6235 8.32316 17.6761 8.86322 17.7186 9.26827C17.8413 10.4734 17.9189 11.251 17.969 11.7685C18.0366 12.4661 18.4822 16.8941 18.5699 17.7692C18.7526 19.5569 18.8703 20.762 18.8703 20.837V20.9195H10.2203H1.57034V20.862C1.57034 20.7945 2.86721 7.7856 2.88724 7.67309L2.89976 7.59308H3.8962H4.89514L4.90515 8.01063Z" fill="url(#paint0_linear_263_1015)"/>
<path d="M7.84167 10.296C7.21827 10.381 6.68751 10.6386 6.24437 11.0761C5.78621 11.5287 5.48828 12.0562 5.36059 12.6338C5.30802 12.8738 5.30051 13.4564 5.34808 13.6939C5.4357 14.144 5.65852 14.649 5.94394 15.0516C6.16676 15.3666 6.97793 16.1642 9.20614 18.2594C9.52911 18.5644 9.82954 18.8295 9.8721 18.852C10.0974 18.967 10.3453 18.952 10.5456 18.812C10.6057 18.767 11.0588 18.3744 11.5495 17.9344C13.5199 16.1742 13.978 15.7141 14.4111 15.0691C14.9619 14.2465 15.2148 13.4689 15.1823 12.6938C15.1397 11.6637 14.689 10.8786 13.9254 10.5036C13.5975 10.3435 13.3646 10.2885 12.9991 10.2885C12.3532 10.286 12.0252 10.4486 10.9962 11.2786C10.2952 11.8437 9.36136 12.7138 9.27874 12.8763C9.11851 13.1863 9.2462 13.5839 9.55915 13.7564C9.67181 13.8189 9.72188 13.8314 9.8696 13.8314C10.1225 13.8314 10.2101 13.7764 10.7409 13.2789C11.3843 12.6738 12.2656 11.9462 12.6286 11.7187C12.7487 11.6437 12.7938 11.6312 12.9515 11.6237C13.1568 11.6112 13.252 11.6362 13.4222 11.7437C13.7252 11.9362 13.9154 12.5263 13.8403 13.0488C13.7577 13.6139 13.4498 14.209 12.9115 14.8315C12.7237 15.0516 11.9977 15.7441 11.2841 16.3842C10.6657 16.9393 10.2476 17.3093 10.2126 17.3293C10.1901 17.3418 10.1325 17.3043 10.0373 17.2143C8.31235 15.5991 7.23329 14.554 7.07807 14.349C6.94037 14.1665 6.78014 13.8714 6.72005 13.6939C6.65246 13.4964 6.62492 13.2114 6.65246 13.0188C6.70503 12.6438 6.85525 12.3638 7.1657 12.0512C7.49868 11.7162 7.79661 11.6012 8.2798 11.6262C8.50513 11.6362 8.58524 11.6537 8.84312 11.7437C9.1761 11.8612 9.25371 11.8637 9.48154 11.7662C9.62424 11.7037 9.74191 11.5837 9.81201 11.4237C9.85207 11.3386 9.85958 11.2711 9.85207 11.1311C9.83705 10.8036 9.67181 10.6261 9.23869 10.4686C8.80306 10.311 8.23975 10.241 7.84167 10.296Z" fill="url(#paint1_linear_263_1015)"/>
<defs>
<linearGradient id="paint0_linear_263_1015" x1="9.66441" y1="2.5" x2="9.66441" y2="21" gradientUnits="userSpaceOnUse">
<stop stop-color="#F77433"/>
<stop offset="1" stop-color="#FEAF38"/>
</linearGradient>
<linearGradient id="paint1_linear_263_1015" x1="9.97186" y1="10.9178" x2="9.97186" y2="18.4236" gradientUnits="userSpaceOnUse">
<stop stop-color="#F77433"/>
<stop offset="1" stop-color="#FEAF38"/>
</linearGradient>
</defs>
</svg>
