<svg width="34" height="28" viewBox="0 0 34 28" fill="none" xmlns="http://www.w3.org/2000/svg">
<path fill-rule="evenodd" clip-rule="evenodd" d="M25.4604 0.278731C25.345 0.432095 25.0759 0.979152 24.8624 1.49462L24.4744 2.43165L25.0648 4.37571C25.3895 5.44492 25.6551 6.34045 25.6551 6.36585C25.6551 6.39125 25.0121 6.38518 24.2261 6.35247C19.9964 6.17607 16.2495 8.14378 14.3557 11.5363C12.3915 15.0547 13.0219 19.3951 15.9207 22.313C16.6628 23.06 18.3688 24.2806 18.6707 24.2806C18.8445 24.2806 20.338 23.07 20.338 22.9292C20.338 22.8781 20.0239 22.7014 19.6401 22.5365C19.2101 22.3516 18.5573 21.8799 17.9396 21.3075C16.3428 19.828 15.6855 18.3829 15.6855 16.3522C15.6855 14.4638 16.3209 12.9583 17.6971 11.5862C19.1015 10.186 20.981 9.40402 22.9965 9.38135C25.6555 9.3515 27.923 10.4476 29.3684 12.4616C31.2358 15.0636 31.0758 18.3274 28.9594 20.8045C28.2948 21.5826 26.878 22.5354 25.826 22.9118C25.0979 23.1725 25.0157 23.2468 24.283 24.3093L23.5091 25.4316L24.3555 25.3508C25.611 25.2309 27.0422 24.8246 28.2436 24.2469C29.7438 23.5255 31.6242 21.7731 32.3983 20.375C34.0841 17.33 34.0003 13.8844 32.171 11.0147C31.5543 10.0475 30.3266 8.76542 29.5148 8.24115C29.2197 8.05063 28.9786 7.86047 28.9788 7.8186C28.9791 7.77673 29.9064 7.30747 31.0396 6.77565C33.3052 5.71238 33.2526 5.76119 33.7742 4.2413C34.0437 3.45639 34.0584 3.31938 33.8901 3.16849C33.6715 2.97251 26.1301 0 25.8512 0C25.7516 0 25.5757 0.125367 25.4604 0.278731ZM3.02238 7.60874C1.35999 9.20445 0 10.5935 0 10.6955C0 10.9725 1.4444 12.4769 1.84531 12.6175C2.03672 12.6846 3.14561 12.8 4.30939 12.8738C5.47331 12.9478 6.44395 13.0253 6.46641 13.0462C6.48888 13.0672 6.23818 13.5826 5.90918 14.1918C5.11228 15.6675 4.78514 16.9254 4.78634 18.509C4.78833 21.2341 5.85428 23.5708 7.93062 25.402C8.89939 26.2564 9.27944 26.5049 10.4628 27.0584C12.4492 27.9875 15.128 28.2534 17.3956 27.7469C20.497 27.0539 23.1938 24.8638 24.4149 22.0464C25.8569 18.7195 25.0997 14.827 22.4858 12.1279L21.7756 11.3947L21.0071 11.7765C20.5844 11.9863 20.055 12.3353 19.8306 12.5518L19.4225 12.9455L20.1721 13.503C21.0603 14.1636 22.0311 15.4433 22.4551 16.5128C22.8324 17.4637 22.9677 19.3142 22.7363 20.3535C22.3086 22.273 20.69 24.2366 18.8423 25.0773C15.7017 26.5062 12.5129 26.0356 10.1003 23.7872C7.75143 21.5981 7.21134 18.6087 8.65095 15.7643C8.97211 15.1295 9.35547 14.6697 10.2388 13.8593C11.0795 13.088 11.4297 12.6747 11.4983 12.3727C11.5505 12.1427 11.7962 11.4451 12.0442 10.8225C12.6068 9.41046 12.6155 9.25958 12.1297 9.36773C11.3923 9.53199 10.0224 10.0532 9.52535 10.3585C9.24448 10.5311 8.9959 10.6542 8.9729 10.6321C8.94991 10.6099 8.83147 9.78347 8.70957 8.79552C8.58781 7.80757 8.4283 6.81888 8.35519 6.59838C8.20976 6.16021 6.59057 4.70746 6.24762 4.70746C6.13596 4.70746 4.68465 6.01304 3.02238 7.60874Z" fill="url(#paint0_linear_264_36)"/>
<defs>
<linearGradient id="paint0_linear_264_36" x1="16.7463" y1="8.2963" x2="17" y2="28" gradientUnits="userSpaceOnUse">
<stop stop-color="#F77433"/>
<stop offset="1" stop-color="#FEAF38"/>
</linearGradient>
</defs>
</svg>
