<svg width="21" height="20" viewBox="0 0 21 20" fill="none" xmlns="http://www.w3.org/2000/svg">
<path fill-rule="evenodd" clip-rule="evenodd" d="M3.93657 1.02467C2.6163 1.34497 1.4592 2.21132 0.923528 3.28069C-0.268283 5.65985 0.686084 8.90031 3.6781 12.6338C4.53367 13.7015 6.72135 15.8769 7.61374 16.5474C10.4175 18.6545 13.3638 19.8842 15.6479 19.9006C17.1634 19.9114 18.1742 19.4752 19.2417 18.3496C19.9635 17.5886 20.3473 16.8015 20.4021 15.9704C20.4692 14.9512 20.1561 14.2962 19.4239 13.9236C18.9971 13.7066 17.5745 13.3603 15.6128 12.9961L14.0626 12.7084L13.4092 13.3379C13.0497 13.6841 12.6253 14.0838 12.4661 14.2261L12.1767 14.485L11.3787 14.1115C9.47022 13.2184 7.67801 11.5035 6.43249 9.3786L6.0025 8.64503L7.06062 7.65113C7.64257 7.10443 8.11874 6.59634 8.11874 6.52198C8.11874 6.15666 6.9407 2.55619 6.61612 1.92926C6.16584 1.05961 5.17346 0.724644 3.93657 1.02467ZM5.30917 1.94146C5.47775 2.01179 5.68443 2.16657 5.76854 2.28532C5.91196 2.48806 6.91913 5.46389 7.05548 6.08816C7.11479 6.35967 7.0653 6.42368 6.05722 7.37961L4.99653 8.38543L5.44451 9.2947C6.05557 10.5349 6.86504 11.6338 7.92096 12.6565C8.94052 13.644 9.88589 14.3101 11.086 14.8866C12.437 15.5358 12.3465 15.5498 13.4346 14.5227C13.9475 14.0386 14.4094 13.6425 14.4611 13.6425C14.7023 13.6425 18.2298 14.3899 18.6694 14.5341C19.3495 14.7572 19.5508 15.043 19.5482 15.7811C19.5465 16.2338 19.4912 16.448 19.2727 16.8482C18.6473 17.9936 17.4408 18.8564 16.1962 19.0487C14.5642 19.3008 11.9656 18.421 9.51549 16.7867C7.73659 15.6 5.53303 13.6527 4.40273 12.2683C2.2841 9.67341 1.03986 6.51868 1.41641 4.69657C1.67718 3.43501 2.43101 2.5892 3.79333 2.02949C4.38446 1.78667 4.87055 1.75843 5.30917 1.94146Z" fill="url(#paint0_linear_263_1031)"/>
<defs>
<linearGradient id="paint0_linear_263_1031" x1="10.4179" y1="0.916992" x2="10.4179" y2="19.9008" gradientUnits="userSpaceOnUse">
<stop stop-color="#F77433"/>
<stop offset="1" stop-color="#FEAF38"/>
<stop offset="1" stop-color="#FEAF38"/>
</linearGradient>
</defs>
</svg>
