<svg width="33" height="19" viewBox="0 0 33 19" fill="none" xmlns="http://www.w3.org/2000/svg">
<path d="M6.29092 0.321304C6.09066 0.407015 5.83319 0.707003 5.71876 0.949848L5.50419 1.42126H3.25844C0.597869 1.42126 0.240266 1.50697 0.311786 2.16408L0.354699 2.63549L2.97236 2.67834L5.59002 2.70691L5.54711 4.10685L5.50419 5.4925H3.77339C1.97107 5.4925 1.57055 5.60678 1.57055 6.13533C1.57055 6.64959 1.95676 6.76388 3.75909 6.76388L5.50419 6.77816L5.54711 8.16381L5.59002 9.56375H4.35986C3.18692 9.56375 3.1297 9.57803 2.97236 9.93516C2.81501 10.2637 2.82932 10.3494 3.1297 10.578C3.38718 10.7923 3.70187 10.8494 4.51721 10.8494H5.57571V12.2065V13.5636H5.10368C4.54582 13.5636 4.28834 13.7778 4.28834 14.235C4.28834 14.5921 4.66025 14.8492 5.20381 14.8492C5.44698 14.8492 5.57571 14.9349 5.57571 15.0778C5.57571 15.1921 5.76167 15.4921 5.99053 15.7206C6.37675 16.092 6.50548 16.1349 7.33513 16.1349C8.26489 16.1349 8.2792 16.1349 8.42224 16.6063C8.65111 17.2777 9.38062 18.0919 10.0529 18.4491C10.8969 18.8776 12.3559 18.8633 13.0568 18.4348C13.7291 18.0205 14.3728 17.2777 14.6016 16.6491L14.7876 16.1349H19.2362H23.6848L23.8707 16.6491C24.7004 18.9348 27.8044 19.4919 29.4207 17.6491C29.6639 17.3777 29.9357 16.9348 30.0358 16.6491L30.2075 16.1349H31.1801H32.1528L32.2243 12.8065L32.2816 9.49232L29.5495 6.82102L26.8174 4.14971L24.8577 4.13542H22.8837V2.57835C22.8837 1.12127 22.8551 0.978418 22.5404 0.607006L22.1971 0.207024L14.4157 0.178453C8.42224 0.149885 6.5627 0.178453 6.29092 0.321304ZM21.5964 8.13524V14.8492H18.2063H14.8019L14.5444 14.2064C13.8149 12.4636 11.6979 11.7351 9.9957 12.6493C9.28049 13.035 8.59389 13.8636 8.35072 14.5921C8.2935 14.7921 8.12185 14.8492 7.49247 14.8492H6.72005V8.23524C6.72005 4.59254 6.76296 1.56411 6.82018 1.52125C6.86309 1.46411 10.2103 1.42126 14.2583 1.42126H21.5964V8.13524ZM28.7055 7.73526L31.0371 10.0637V12.4493V14.8492H30.6223C30.279 14.8492 30.1789 14.7635 30.0501 14.3921C29.621 13.1779 28.2764 12.2351 26.9461 12.2351C25.6158 12.2351 24.2712 13.1779 23.8707 14.3778C23.742 14.7635 23.6419 14.8492 23.2986 14.8492H22.8837V10.1352V5.42108H24.6288H26.3883L28.7055 7.73526ZM12.6134 13.8064C13.5431 14.3492 13.8578 15.692 13.257 16.5777C12.3273 17.9777 10.2818 17.792 9.6524 16.2492C9.35201 15.5063 9.45214 14.8778 9.96709 14.2635C10.668 13.435 11.6836 13.2636 12.6134 13.8064ZM28.0761 13.8064C28.6054 14.0778 29.0917 15.1349 28.9916 15.792C28.7484 17.2491 27.0319 18.0205 25.8161 17.2206C24.9435 16.6491 24.6575 15.5063 25.1724 14.6064C25.7875 13.5064 26.9032 13.2064 28.0761 13.8064Z" fill="url(#paint0_linear_263_1021)"/>
<path d="M11.0685 15.2078C10.8394 15.5506 10.8394 15.5935 11.0828 15.8506C11.3691 16.1792 11.7269 16.222 11.9846 15.9649C12.2279 15.7221 12.1993 15.3364 11.9273 15.0792C11.6124 14.7507 11.3404 14.7935 11.0685 15.2078Z" fill="url(#paint1_linear_263_1021)"/>
<path d="M26.5457 15.1218C26.102 15.6075 26.5887 16.2932 27.2185 16.0503C27.562 15.9217 27.6336 15.5646 27.3902 15.1932C27.1183 14.7789 26.8749 14.7647 26.5457 15.1218Z" fill="url(#paint2_linear_263_1021)"/>
<defs>
<linearGradient id="paint0_linear_263_1021" x1="16.9791" y1="2" x2="16.4774" y2="15.9999" gradientUnits="userSpaceOnUse">
<stop stop-color="#F77433"/>
<stop offset="1" stop-color="#FEAF38"/>
</linearGradient>
<linearGradient id="paint1_linear_263_1021" x1="11.5514" y1="14.9863" x2="11.4917" y2="15.9401" gradientUnits="userSpaceOnUse">
<stop stop-color="#F77433"/>
<stop offset="1" stop-color="#FEAF38"/>
</linearGradient>
<linearGradient id="paint2_linear_263_1021" x1="26.979" y1="14.9888" x2="26.9182" y2="15.9147" gradientUnits="userSpaceOnUse">
<stop stop-color="#F77433"/>
<stop offset="1" stop-color="#FEAF38"/>
</linearGradient>
</defs>
</svg>
