<svg width="34" height="34" viewBox="0 0 34 34" fill="none" xmlns="http://www.w3.org/2000/svg">
<circle cx="16.6902" cy="16.6902" r="16.6902" fill="#FD9149"/>
<circle cx="16.6902" cy="16.6902" r="16.1902" fill="url(#paint0_radial_264_412)" stroke="#FFD588"/>
<path fill-rule="evenodd" clip-rule="evenodd" d="M17.3178 9.69839C16.3295 9.8648 15.5527 10.3998 15.105 11.2226C14.7975 11.7874 14.6978 12.3538 14.6978 13.5354V14.5978H13.7298C13.0585 14.5978 12.7392 14.6203 12.6882 14.6713C12.5842 14.7753 12.5842 17.2386 12.6882 17.3426C12.7392 17.3936 13.0585 17.4161 13.7298 17.4161H14.6978V20.3548C14.6978 23.1975 14.7017 23.2956 14.8163 23.357C14.8867 23.3946 15.4326 23.4204 16.1598 23.4204C17.1918 23.4204 17.4 23.4052 17.4811 23.3241C17.5659 23.2393 17.5774 22.8819 17.5774 20.322V17.4161H18.6759C19.5927 17.4161 19.7902 17.4002 19.8706 17.3199C20.014 17.1764 20.014 14.8375 19.8706 14.6941C19.7902 14.6137 19.5927 14.5978 18.6759 14.5978H17.5774L17.5775 13.7554C17.5776 12.4102 17.6556 12.3303 19.0132 12.2838C19.4872 12.2676 19.9094 12.2268 19.9515 12.1932C20.0081 12.1481 20.0281 11.8216 20.0281 10.947C20.0281 9.83808 20.0205 9.75788 19.9096 9.69851C19.7713 9.6245 17.7571 9.62438 17.3178 9.69839Z" fill="#FD9149"/>
<defs>
<radialGradient id="paint0_radial_264_412" cx="0" cy="0" r="1" gradientUnits="userSpaceOnUse" gradientTransform="translate(16.6902 16.6902) rotate(90.7162) scale(29.6738)">
<stop stop-color="white"/>
<stop offset="1" stop-color="#FFD588" stop-opacity="0"/>
</radialGradient>
</defs>
</svg>
