<svg width="21" height="18" viewBox="0 0 21 18" fill="none" xmlns="http://www.w3.org/2000/svg">
<path fill-rule="evenodd" clip-rule="evenodd" d="M15.0727 0.723483L14.7667 1.44697L15.0712 2.57559C15.2385 3.19635 15.3964 3.77996 15.4219 3.87251C15.4612 4.01504 15.3413 4.03439 14.6404 3.99889C12.5686 3.89374 10.2983 4.95425 9.41274 6.44091C9.27685 6.66891 9.12698 6.85556 9.07966 6.85556C9.03235 6.85556 8.86718 7.14172 8.71258 7.49136C8.15272 8.75798 8.01418 9.77581 8.23282 11.0174C8.38577 11.886 8.81921 13.0477 8.99042 13.0477C9.0362 13.0477 9.07361 13.1257 9.07361 13.2211C9.07361 13.3165 9.29644 13.6091 9.56878 13.8712C9.84112 14.1335 10.0667 14.3914 10.07 14.4442C10.0773 14.5581 10.5255 14.9163 11.0281 15.2095L11.3871 15.419L11.826 14.9781L12.2648 14.5371L11.373 13.9383C10.5425 13.3806 10.4552 13.2844 10.1021 12.5368C9.36466 10.9756 9.35222 9.68315 10.0612 8.28107C10.4942 7.4249 11.0887 6.86839 12.1389 6.33597C12.8825 5.95903 13.026 5.92519 13.8995 5.92066C14.577 5.91712 15.0088 5.97606 15.4007 6.12566C15.9561 6.33763 17.1284 7.04995 17.2 7.21901C17.2214 7.26933 17.3587 7.43087 17.5052 7.57805C17.6516 7.72522 17.7727 7.87074 17.7741 7.90125C17.7755 7.93177 17.9034 8.24392 18.0582 8.59488C18.412 9.39621 18.5116 10.6448 18.2855 11.4444C18.1996 11.7484 18.1096 12.0719 18.0855 12.1631C18.0613 12.2543 18.0147 12.3538 17.9818 12.3842C17.9489 12.4146 17.7756 12.6759 17.5967 12.965C17.2532 13.5197 16.5081 14.1027 15.6628 14.4781C15.1299 14.7147 14.8577 14.953 14.9798 15.0758C15.0197 15.1158 14.9945 15.1486 14.9239 15.1486C14.8533 15.1486 14.7955 15.2146 14.7955 15.2952C14.7955 15.3758 14.6717 15.5586 14.5204 15.7014C14.3691 15.8443 14.2453 15.994 14.2453 16.0342C14.2453 16.142 15.5408 15.9465 16.1365 15.7489C17.0441 15.4477 18.5031 14.3896 18.6795 13.9046C18.7182 13.7981 18.8039 13.7111 18.8699 13.7111C18.9359 13.7111 18.9593 13.6614 18.9219 13.6005C18.8845 13.5397 18.9043 13.49 18.9658 13.49C19.1384 13.49 19.6387 12.5635 19.8782 11.7997C20.4062 10.1173 19.9921 7.67148 18.9992 6.60677C18.8433 6.43958 18.7536 6.30269 18.8 6.30269C18.9072 6.30269 18.0209 5.41611 17.6565 5.15892C17.3851 4.96752 17.3844 4.96265 17.6014 4.80829C17.7225 4.72215 17.8782 4.60318 17.9473 4.54391C18.0165 4.48475 18.091 4.45412 18.1128 4.47602C18.1346 4.49802 18.5458 4.30839 19.0265 4.05473L19.9005 3.59364L20.1737 2.83511C20.4407 2.09305 20.442 2.07381 20.2345 1.95074C19.8005 1.69343 15.7489 0 15.5673 0C15.4396 0 15.2799 0.233642 15.0727 0.723483ZM3.6838 3.25816C3.60392 3.4081 3.49652 3.50474 3.44514 3.47278C3.39375 3.44083 3.35172 3.45763 3.35172 3.51016C3.35172 3.56268 2.68423 4.27466 1.86831 5.09235C1.0525 5.91005 0.384031 6.66338 0.382821 6.76633C0.38172 6.86938 0.490767 7.03104 0.625341 7.12569C0.759806 7.22034 0.838922 7.29785 0.801179 7.29785C0.763437 7.29785 0.879525 7.45586 1.05899 7.64904C1.37766 7.99181 1.41727 8.00265 2.72616 8.10261C3.46362 8.15889 4.11339 8.24901 4.17006 8.30286C4.23289 8.36257 4.17688 8.50355 4.02624 8.66476C3.66268 9.05354 3.22616 10.4271 3.16058 11.3882C3.11745 12.0211 3.1597 12.4474 3.33455 13.1423C3.5599 14.0375 4.14596 15.2591 4.35008 15.2591C4.40619 15.2591 4.44053 15.2965 4.42633 15.3421C4.38089 15.4887 5.36571 16.4739 5.90588 16.8222C7.68121 17.967 10.1314 18.0378 12.0772 17.0005C12.6589 16.6902 14.1584 15.2373 14.1727 14.9699C14.1757 14.9161 14.2568 14.7871 14.3532 14.6832C14.9773 14.01 15.313 11.6321 14.9726 10.2966C14.7522 9.43203 14.3504 8.60903 13.9221 8.14474C13.745 7.95267 13.5047 7.67447 13.3884 7.52663C13.193 7.27861 13.1504 7.26877 12.8349 7.40013C12.6468 7.47831 12.341 7.68829 12.1554 7.86664L11.8177 8.19096L12.1787 8.48707C12.3773 8.64995 12.6388 8.90559 12.7598 9.05509C12.8809 9.20447 13.0542 9.40937 13.145 9.51021C13.2357 9.61105 13.3221 9.73921 13.3369 9.79494C13.3516 9.85067 13.4681 10.1949 13.5958 10.5598C13.7831 11.0946 13.8194 11.4083 13.7833 12.1787C13.7435 13.0291 13.6884 13.2359 13.2826 14.0584C12.9521 14.7286 12.715 15.0587 12.4206 15.2591C12.1973 15.4112 11.8852 15.6229 11.727 15.7297C10.3522 16.658 8.36201 16.5958 6.83063 15.5764C6.3885 15.282 5.20066 13.9323 5.38376 13.9323C5.41919 13.9323 5.37198 13.7845 5.27911 13.604C5.03307 13.1257 4.91203 12.0282 5.02537 11.3019C5.21221 10.1048 5.74567 9.18103 6.67174 8.45125C6.87288 8.29268 7.0638 7.91917 7.29333 7.23494C7.47555 6.6918 7.65986 6.15784 7.70289 6.04826C7.77045 5.8761 7.73821 5.85896 7.46444 5.92132C7.21917 5.97727 6.09448 6.47043 5.65313 6.71546C5.61781 6.73515 5.52406 6.16713 5.44483 5.45316L5.3009 4.15513L4.7505 3.57031C4.14057 2.92224 3.90014 2.85191 3.6838 3.25816Z" fill="#302F2F"/>
</svg>
