<svg width="3" height="6" viewBox="0 0 3 6" fill="none" xmlns="http://www.w3.org/2000/svg">
<path fill-rule="evenodd" clip-rule="evenodd" d="M1.93908 0.00624529C1.8649 0.0180534 1.74743 0.0623545 1.68001 0.103951C1.31414 0.329675 1.24798 0.81402 1.54206 1.11379C1.67411 1.24841 1.8262 1.31766 2.01421 1.32877C2.34689 1.34846 2.6481 1.14055 2.73451 0.83156C2.75782 0.748153 2.75782 0.58241 2.73451 0.499003C2.66784 0.260637 2.46525 0.0728638 2.21389 0.0164805C2.13846 -0.000439214 2.01094 -0.0051815 1.93908 0.00624529ZM1.70743 1.59085C1.42101 1.61421 0.938449 1.73803 0.526003 1.894C0.341549 1.96375 0.0805007 2.08475 0.0329941 2.12251L0 2.14874L0.0120458 2.27385C0.0186821 2.34266 0.0263953 2.40525 0.0292001 2.41295C0.0325309 2.4221 0.0616057 2.41285 0.113307 2.38622C0.199993 2.34158 0.412346 2.27205 0.553187 2.24221C0.688632 2.21352 0.960712 2.21384 1.05347 2.2428C1.15486 2.27446 1.23209 2.34181 1.25643 2.41981C1.26689 2.45332 1.27544 2.49746 1.27544 2.51792C1.27544 2.5744 1.21222 2.80916 0.903151 3.90029C0.606028 4.94922 0.591128 5.01475 0.624172 5.12704C0.698362 5.3792 1.12267 5.42605 1.81047 5.25802C2.20489 5.16166 2.71312 4.97268 2.9321 4.84097C2.99617 4.80242 3.00405 4.79351 2.99857 4.76581C2.99516 4.74851 2.98871 4.68745 2.98424 4.6301C2.97977 4.57277 2.97085 4.52584 2.9644 4.52584C2.95797 4.52584 2.9148 4.54397 2.86849 4.56611C2.768 4.61416 2.57401 4.67467 2.43443 4.7015C2.28545 4.73013 2.04132 4.72893 1.94534 4.69908C1.7836 4.64879 1.70463 4.51892 1.73651 4.35565C1.75536 4.259 2.08825 3.051 2.2575 2.46498C2.39645 1.98388 2.40896 1.91429 2.37557 1.80822C2.34406 1.70817 2.23525 1.63153 2.08032 1.60029C2.00304 1.58472 1.83495 1.58045 1.70743 1.59085Z" fill="#F77433"/>
</svg>
