<svg width="34" height="34" viewBox="0 0 34 34" fill="none" xmlns="http://www.w3.org/2000/svg">
<circle cx="17.0319" cy="16.6902" r="16.6902" fill="#FD9149"/>
<circle cx="17.0319" cy="16.6902" r="16.1902" fill="url(#paint0_radial_264_420)" stroke="#FFD588"/>
<path fill-rule="evenodd" clip-rule="evenodd" d="M13.2304 10.5503C12.0971 10.94 11.2728 11.7717 10.8881 12.9136C10.7358 13.3658 10.7264 13.5835 10.7264 16.6827C10.7264 19.6879 10.7395 20.0136 10.8768 20.455C11.2399 21.6215 12.1824 22.543 13.3571 22.8799C13.7451 22.9912 14.2654 23.0053 17.2461 22.9853L20.687 22.9623L21.224 22.7087C21.9814 22.3512 22.6446 21.6962 23.0138 20.9412L23.3062 20.3432L23.3292 16.9022C23.3492 13.9215 23.3351 13.4012 23.2238 13.0132C22.8869 11.8386 21.9653 10.896 20.7989 10.533C20.3566 10.3953 20.036 10.3828 17.0092 10.3852C13.8884 10.3877 13.6762 10.397 13.2304 10.5503ZM20.8458 11.5705C21.356 11.8224 21.959 12.4249 22.1802 12.9037C22.3486 13.2683 22.3545 13.3781 22.3769 16.5814C22.3995 19.8194 22.3965 19.8925 22.225 20.3508C21.9857 20.9906 21.3344 21.6418 20.6947 21.8812C20.2363 22.0527 20.1633 22.0556 16.9253 22.033L13.6233 22.0099L13.2265 21.8149C12.7209 21.5664 12.1655 21.0106 11.9144 20.5019L11.7185 20.1051V16.6923V13.2795L11.9324 12.8742C12.2258 12.3179 12.5048 12.0042 12.9249 11.758C13.6476 11.3345 13.6187 11.3372 17.1552 11.3566L20.4489 11.3747L20.8458 11.5705ZM20.6651 12.411C20.4555 12.5576 20.4282 12.93 20.6133 13.1151C20.7985 13.3002 21.1708 13.2729 21.3175 13.0634C21.4946 12.8105 21.4707 12.6397 21.2319 12.4519C20.9814 12.2549 20.8966 12.2487 20.6651 12.411ZM16.0033 13.4619C15.0527 13.7907 14.3794 14.3909 13.9539 15.2891C13.7191 15.7848 13.7027 15.8762 13.7027 16.6964C13.7027 17.5504 13.7106 17.5894 14.0011 18.1772C14.6735 19.5379 16.0968 20.2922 17.5534 20.0598C18.2798 19.9439 18.8315 19.667 19.3818 19.1421C21.6108 17.016 20.1058 13.3088 17.0188 13.3218C16.6453 13.3233 16.244 13.3787 16.0033 13.4619ZM18.1473 14.5293C18.9506 14.9429 19.3979 15.6388 19.4444 16.5474C19.4866 17.3709 19.3092 17.8448 18.7497 18.4038C18.2248 18.9281 17.7678 19.1134 17.0022 19.1122C15.7336 19.1103 14.7254 18.1643 14.6346 16.8907C14.5894 16.2572 14.698 15.8321 15.0332 15.3306C15.3005 14.9306 15.8825 14.4856 16.3111 14.3533C16.7676 14.2125 17.7069 14.3025 18.1473 14.5293Z" fill="#FD9149"/>
<circle cx="17.032" cy="16.6899" r="1.85447" fill="#FD9149"/>
<defs>
<radialGradient id="paint0_radial_264_420" cx="0" cy="0" r="1" gradientUnits="userSpaceOnUse" gradientTransform="translate(17.0319 16.6902) rotate(90.7538) scale(28.1903)">
<stop stop-color="white"/>
<stop offset="1" stop-color="#FFD588" stop-opacity="0"/>
</radialGradient>
</defs>
</svg>
