<svg width="6" height="11" viewBox="0 0 6 11" fill="none" xmlns="http://www.w3.org/2000/svg">
<path fill-rule="evenodd" clip-rule="evenodd" d="M5.49016 0.0665071C5.66611 0.156687 5.84408 0.344478 5.92922 0.529761C5.98527 0.651752 5.99434 0.698475 5.99354 0.86113C5.99178 1.22575 6.12125 1.06738 3.90378 3.41741L1.93839 5.5003L3.89496 7.58319C6.0084 9.83302 5.96152 9.77764 5.99527 10.0654C6.03455 10.4003 5.82537 10.7683 5.50796 10.9227C5.26063 11.0431 4.95884 11.0214 4.74519 10.868C4.69484 10.8318 3.63654 9.7214 2.39341 8.40044C-0.170075 5.67637 0.0024271 5.88575 0.0024271 5.49821C0.0024271 5.11858 -0.16341 5.31885 2.4181 2.58094C4.98863 -0.145332 4.81624 0.0161152 5.17206 0.00193736C5.33239 -0.00445333 5.36441 0.00205581 5.49016 0.0665071Z" fill="#FEAA6F"/>
</svg>
