<svg width="23" height="23" viewBox="0 0 23 23" fill="none" xmlns="http://www.w3.org/2000/svg">
<path d="M10.5812 1.66883C10.2094 2.08863 9.77879 2.57676 9.62222 2.75249L9.33844 3.0649L7.78252 2.66463L6.2266 2.26435L5.97217 2.45961C5.72753 2.63534 5.70796 2.7232 5.55139 4.18761C5.46332 5.0272 5.36546 5.73988 5.34589 5.75941C5.32632 5.7887 4.69025 5.8668 3.94654 5.9449C2.22427 6.13039 2.18512 6.14016 1.98941 6.43304C1.84263 6.65758 1.8622 6.73568 2.38084 8.19033C2.68419 9.02992 2.92883 9.73284 2.92883 9.7426C2.92883 9.76213 2.49827 10.0941 1.97963 10.4846C0.736849 11.4023 0.482422 11.6463 0.482422 11.9002C0.482422 12.154 0.736849 12.3981 1.96984 13.3158C2.49827 13.7063 2.92883 14.0382 2.92883 14.048C2.92883 14.0577 2.68419 14.7509 2.39062 15.5709C1.64691 17.6211 1.5882 17.5235 3.89761 17.9921C4.67068 18.1581 5.31653 18.3045 5.3361 18.324C5.36546 18.3436 5.44375 18.9098 5.52203 19.5737C5.71774 21.1455 5.72753 21.1943 6.01131 21.3798C6.24617 21.5262 6.31467 21.5164 7.78252 20.9795C8.6143 20.6768 9.33844 20.4523 9.36779 20.4914C9.40693 20.5206 9.80815 21.0381 10.2681 21.6336C10.728 22.2389 11.1781 22.7661 11.2662 22.8246C11.5696 23.0004 11.8925 22.727 12.9004 21.4286C13.4484 20.7257 13.9083 20.1497 13.9279 20.1497C13.9475 20.1497 14.564 20.4621 15.3077 20.8428C17.1865 21.8191 17.2061 21.7996 17.4507 19.476C17.529 18.7048 17.6171 18.0507 17.6465 18.0312C17.666 18.0116 18.3608 17.9238 19.1926 17.8359C20.4354 17.709 20.7289 17.6504 20.9149 17.4844C21.0323 17.377 21.1301 17.2306 21.1301 17.1623C21.1301 17.0842 20.8855 16.3617 20.5919 15.5514C20.2984 14.7411 20.0537 14.0577 20.0537 14.048C20.0537 14.0382 20.5626 13.6379 21.1791 13.1791C21.8054 12.7105 22.3631 12.2223 22.4219 12.0954C22.5784 11.744 22.3827 11.5097 20.9834 10.4455C20.3081 9.91833 19.7602 9.47901 19.7602 9.45948C19.7602 9.43996 20.0537 8.87372 20.406 8.21961C21.1791 6.76497 21.2182 6.599 20.9149 6.32565C20.7289 6.14992 20.4549 6.09134 19.1926 5.97419C18.3706 5.89609 17.6758 5.80822 17.6465 5.77893C17.6171 5.74965 17.529 5.04673 17.441 4.22666C17.2844 2.69391 17.2061 2.44985 16.8147 2.3327C16.707 2.29364 16.0122 2.49866 15.1511 2.81107C14.3389 3.11371 13.6637 3.35778 13.6539 3.35778C13.6343 3.35778 13.3016 2.92822 12.9102 2.40103C11.9806 1.16117 11.7457 0.917099 11.4815 0.917099C11.3249 0.917099 11.0411 1.15141 10.5812 1.66883ZM12.2643 3.60185C12.7047 4.19737 13.1157 4.64646 13.2429 4.68551C13.3701 4.7148 13.9866 4.53907 14.7695 4.25595C15.9144 3.83615 16.1003 3.78734 16.1492 3.93378C16.1786 4.02164 16.2667 4.6367 16.3254 5.31032C16.3939 5.97419 16.4917 6.599 16.5407 6.68687C16.6581 6.92117 16.8049 6.96022 18.1259 7.07738C18.7816 7.14572 19.3589 7.22382 19.3981 7.26287C19.447 7.30192 19.2122 7.83887 18.8892 8.45392C18.488 9.23494 18.3217 9.64497 18.3608 9.79141C18.3902 9.91833 18.9382 10.4065 19.6329 10.9434C20.2984 11.4608 20.8072 11.9099 20.7681 11.949C20.7289 11.988 20.2592 12.3395 19.7308 12.73C19.2024 13.1303 18.7522 13.5305 18.7229 13.6477C18.6935 13.7648 18.8794 14.4092 19.1534 15.1707C19.5742 16.3129 19.6232 16.4984 19.4764 16.5472C19.3883 16.5765 18.7718 16.6644 18.0966 16.7229C16.844 16.8499 16.5896 16.9182 16.5015 17.1623C16.4722 17.2404 16.3939 17.8457 16.3254 18.5095C16.2569 19.1636 16.1786 19.7494 16.1395 19.7884C16.1003 19.8373 15.6013 19.6322 15.0435 19.3296C13.5561 18.5388 13.605 18.529 12.4601 20.013C11.9414 20.6866 11.4815 21.204 11.4424 21.1552C11.4032 21.1162 11.0509 20.6476 10.6595 20.1204C10.2583 19.5932 9.85707 19.1441 9.73965 19.1246C9.62222 19.0953 8.95679 19.2808 8.21309 19.5541C7.48895 19.8177 6.88224 20.0227 6.86267 20.0032C6.85288 19.9935 6.77459 19.437 6.68652 18.7731C6.57888 17.914 6.49081 17.5137 6.37338 17.3966C6.26574 17.2892 5.69817 17.1232 4.80768 16.9377C4.03461 16.7913 3.38876 16.6448 3.36919 16.6156C3.33983 16.596 3.54533 15.9615 3.81933 15.2195C4.1129 14.4092 4.28904 13.7746 4.25968 13.6477C4.23033 13.5305 3.79976 13.14 3.25176 12.73C2.72334 12.3395 2.26341 11.988 2.22427 11.9587C2.17534 11.9197 2.60591 11.5487 3.17348 11.1289C3.76061 10.6896 4.22054 10.2795 4.25968 10.1526C4.28904 10.0355 4.1129 9.4009 3.82911 8.62965C3.5649 7.90721 3.3594 7.29216 3.37897 7.27263C3.39855 7.25311 3.99547 7.175 4.70982 7.10666C5.42418 7.02856 6.0896 6.9407 6.17767 6.91141C6.45167 6.82355 6.52995 6.599 6.6376 5.50558C6.69631 4.93934 6.76481 4.295 6.79417 4.08022L6.85288 3.67019L8.14459 4.00212C8.85894 4.17785 9.53415 4.33405 9.65158 4.33405C9.80815 4.33405 10.0919 4.08022 10.6301 3.45541C11.0509 2.97703 11.413 2.57676 11.4424 2.57676C11.4717 2.57676 11.8436 3.03561 12.2643 3.60185Z" fill="url(#paint0_linear_263_1026)"/>
<path d="M7.67744 8.37147C7.0218 8.66435 6.7478 9.21106 6.7478 10.2361C6.7478 11.0269 7.04137 11.6127 7.57958 11.886C8.12758 12.1692 9.30186 12.1692 9.78135 11.886C10.4566 11.4955 10.7403 10.7536 10.6229 9.75778C10.4859 8.69364 9.889 8.23479 8.656 8.24455C8.28415 8.24455 7.8438 8.30313 7.67744 8.37147ZM9.19422 10.0214C9.19422 10.8903 9.07679 11.0953 8.60708 11.0465L8.26458 11.0172L8.23522 10.2947C8.21565 9.89445 8.22544 9.51371 8.25479 9.43561C8.28415 9.3575 8.47008 9.30869 8.75386 9.30869H9.19422V10.0214Z" fill="url(#paint1_linear_263_1026)"/>
<path d="M12.7931 8.45565C12.5876 8.62162 8.89844 15.026 8.89844 15.2212C8.89844 15.436 10.0923 15.436 10.2782 15.2115C10.5914 14.8405 14.1533 8.5728 14.1142 8.46542C14.0457 8.29945 12.9986 8.29945 12.7931 8.45565Z" fill="url(#paint2_linear_263_1026)"/>
<path d="M13.4785 11.7579C13.0186 11.8946 12.5587 12.4023 12.4119 12.9392C12.2749 13.4664 12.3629 14.4134 12.5978 14.8137C13.0871 15.6728 15.0638 15.8388 15.7683 15.0968C16.1304 14.7063 16.2674 14.1693 16.2185 13.3981C16.1598 12.5975 15.9249 12.1582 15.4161 11.9044C14.9757 11.6896 13.9874 11.6213 13.4785 11.7579ZM14.7506 13.5738L14.7213 14.4329L14.3103 14.4622L13.8895 14.4915V13.6714C13.8895 13.2224 13.9189 12.8221 13.958 12.7928C13.9874 12.7537 14.1929 12.7245 14.3984 12.7245H14.78L14.7506 13.5738Z" fill="url(#paint3_linear_263_1026)"/>
<defs>
<linearGradient id="paint0_linear_263_1026" x1="10.398" y1="3" x2="10.398" y2="23" gradientUnits="userSpaceOnUse">
<stop stop-color="#F77433"/>
<stop offset="1" stop-color="#FEAF38"/>
</linearGradient>
<linearGradient id="paint1_linear_263_1026" x1="8.5072" y1="8.61003" x2="8.5072" y2="12.1208" gradientUnits="userSpaceOnUse">
<stop stop-color="#F77433"/>
<stop offset="1" stop-color="#FEAF38"/>
</linearGradient>
<linearGradient id="paint2_linear_263_1026" x1="11.251" y1="9.00771" x2="11.251" y2="15.422" gradientUnits="userSpaceOnUse">
<stop stop-color="#F77433"/>
<stop offset="1" stop-color="#FEAF38"/>
</linearGradient>
<linearGradient id="paint3_linear_263_1026" x1="14.0974" y1="12.0554" x2="14.0974" y2="15.5899" gradientUnits="userSpaceOnUse">
<stop stop-color="#F77433"/>
<stop offset="1" stop-color="#FEAF38"/>
</linearGradient>
</defs>
</svg>
