<svg width="11" height="11" viewBox="0 0 11 11" fill="none" xmlns="http://www.w3.org/2000/svg">
<path fill-rule="evenodd" clip-rule="evenodd" d="M4.90801 0.0535881C3.05402 0.232876 1.29729 1.48763 0.504391 3.19897C-0.16813 4.65037 -0.16813 6.38307 0.504391 7.83447C1.02961 8.96811 2.04318 9.97658 3.18691 10.5036C4.33728 11.0336 5.794 11.1483 6.99632 10.8038C9.19213 10.1744 10.7843 8.26775 10.9783 6.03507C11.2101 3.36712 9.56732 0.973746 6.99385 0.230052C6.63962 0.127726 5.50727 -0.0295352 5.3714 0.00481287C5.35724 0.00835549 5.14872 0.03033 4.90801 0.0535881ZM6.4744 1.60967C6.89366 1.85468 7.06912 2.47407 6.83306 2.87583C6.41849 3.58153 5.45264 3.5366 5.10861 2.79558C4.98272 2.52449 4.98674 2.30685 5.12282 2.01815C5.35605 1.52337 5.99583 1.33001 6.4744 1.60967ZM5.75755 3.84378C5.99511 3.94744 6.26413 4.23229 6.37549 4.49804C6.48933 4.76974 6.47285 5.05428 6.24667 6.72327C6.03779 8.26431 6.01287 8.55332 6.08011 8.65374C6.16522 8.78081 6.37158 8.83662 6.70207 8.82194C7.09682 8.80443 7.11763 8.84694 6.85 9.12434C6.14169 9.85859 4.95131 9.59942 4.67473 8.65076C4.59353 8.37213 4.59672 8.32931 4.82888 6.58413C5.02499 5.1103 5.05552 4.77678 5.00538 4.65607C4.93664 4.49054 4.66706 4.33467 4.36498 4.28584C3.94413 4.21776 3.9172 4.20744 3.97605 4.13674C4.0315 4.0701 4.56938 3.84738 4.90801 3.75085C5.13219 3.68693 5.48709 3.72575 5.75755 3.84378Z" fill="url(#paint0_linear_264_115)"/>
<defs>
<linearGradient id="paint0_linear_264_115" x1="5.5" y1="0" x2="5.5" y2="11" gradientUnits="userSpaceOnUse">
<stop stop-color="#F77433"/>
<stop offset="1" stop-color="#FEAF38"/>
</linearGradient>
</defs>
</svg>
