<svg width="11" height="12" viewBox="0 0 11 12" fill="none" xmlns="http://www.w3.org/2000/svg">
<path fill-rule="evenodd" clip-rule="evenodd" d="M4.89173 0.889234C4.27021 0.928732 3.6879 1.14951 3.16963 1.54215C3.03813 1.64178 2.7232 1.95425 2.62359 2.08394C2.17621 2.66639 1.95745 3.30156 1.95741 4.01826C1.95738 4.53025 2.05583 4.96014 2.27477 5.40403C2.41158 5.68142 2.55766 5.89745 2.76811 6.13364C2.94757 6.33504 3.22782 6.56688 3.4605 6.70643C3.52086 6.74264 3.57024 6.77382 3.57024 6.77573C3.57024 6.77765 3.53863 6.78949 3.5 6.80207C3.36197 6.84697 3.08361 6.96121 2.9199 7.04016C2.11165 7.42993 1.40967 8.03495 0.89369 8.78647C0.615283 9.19198 0.389152 9.67636 0.246421 10.173C0.162159 10.4662 0.0889773 10.8496 0.0967606 10.957C0.108123 11.1139 0.244403 11.2415 0.400401 11.2415C0.475996 11.2415 0.526868 11.2215 0.584701 11.1694C0.655999 11.105 0.673043 11.0637 0.708182 10.87C0.840622 10.1397 1.12186 9.48929 1.56236 8.89464C2.06026 8.22249 2.77836 7.66963 3.54943 7.3648C5.03721 6.77663 6.68166 7.07399 7.93531 8.1579C8.7433 8.85649 9.2937 9.82758 9.475 10.8744C9.51267 11.0919 9.54979 11.1582 9.66539 11.2147C9.83652 11.2983 10.048 11.1834 10.0844 10.9871C10.0929 10.9408 10.0908 10.9025 10.0735 10.7912C9.96302 10.0815 9.69876 9.39674 9.31387 8.82284C8.68863 7.89061 7.7884 7.19172 6.73157 6.81804L6.60998 6.77506L6.72096 6.70784C7.13049 6.45982 7.52436 6.06575 7.77507 5.65318C8.40584 4.61524 8.37873 3.2951 7.70596 2.28657C7.53481 2.03002 7.26324 1.73507 7.03467 1.55751C6.50873 1.14895 5.93487 0.931454 5.27126 0.889182C5.09184 0.877751 5.07226 0.877751 4.89173 0.889234ZM5.43281 1.43488C5.88632 1.50207 6.32361 1.6962 6.698 1.99651C7.24879 2.43834 7.62148 3.1099 7.69173 3.78715C7.7071 3.93527 7.69846 4.25575 7.67547 4.39071C7.58885 4.89926 7.35887 5.34925 6.99362 5.72483C6.52165 6.21013 5.91891 6.48877 5.24905 6.53129C4.5041 6.57859 3.76586 6.29698 3.22461 5.75908C3.02204 5.55775 2.85805 5.32874 2.73225 5.0715C2.61158 4.82475 2.53819 4.58517 2.50345 4.32459C2.47919 4.14258 2.48618 3.79527 2.5176 3.62188C2.65735 2.85058 3.12905 2.17947 3.82133 1.76697C4.14378 1.57485 4.49619 1.45916 4.88132 1.41899C5.00126 1.40649 5.29911 1.41507 5.43281 1.43488Z" fill="url(#paint0_linear_263_1012)"/>
<defs>
<linearGradient id="paint0_linear_263_1012" x1="5.09273" y1="0.880615" x2="5.09273" y2="11.2423" gradientUnits="userSpaceOnUse">
<stop stop-color="#FD9149"/>
<stop offset="1" stop-color="#FFD588"/>
</linearGradient>
</defs>
</svg>
