<svg width="21" height="21" viewBox="0 0 21 21" fill="none" xmlns="http://www.w3.org/2000/svg">
<path fill-rule="evenodd" clip-rule="evenodd" d="M0.164551 3.25185V5.59085H0.789118H1.41369V3.87558V2.16031H3.13125H4.84881V1.53658V0.912842H2.50668H0.164551V3.25185ZM15.4665 1.53658V2.16031H17.184H18.9016V3.87558V5.59085H19.5261H20.1507V3.25185V0.912842H17.8086H15.4665V1.53658ZM2.54228 6.1756L2.58475 9.09936H5.47337H8.362L8.40619 7.34511L8.45038 5.59085H8.99172H9.53306V6.76035V7.92986H10.1576H10.7822V6.76035V5.59085H10.1576H9.53306V4.96712C9.53306 4.3582 9.5201 4.34338 8.98657 4.34338C8.46615 4.34338 8.44007 4.31734 8.44007 3.79761V3.25185H5.46994H2.49981L2.54228 6.1756ZM9.56273 3.8366C9.60863 4.39172 9.63877 4.42135 10.1576 4.42135C10.6765 4.42135 10.7066 4.39172 10.7525 3.8366L10.8011 3.25185H10.1576H9.51417L9.56273 3.8366ZM11.9108 6.1756L11.9533 9.09936L13.0853 9.1452L14.2173 9.19105V9.72995V10.2689H12.5091H10.8011L10.7525 9.68411C10.7066 9.12899 10.6765 9.09936 10.1576 9.09936H9.61113V10.2689V11.4384L11.9142 11.4816L14.2173 11.5246V10.8968V10.2689H14.8419H15.4665V10.8995V11.5301L16.5985 11.4842L17.7305 11.4384L17.7789 10.8536L17.8275 10.2689H16.6469H15.4665V9.72995V9.19105L16.5985 9.1452L17.7305 9.09936L17.773 6.1756L17.8155 3.25185H14.8419H11.8683L11.9108 6.1756ZM7.19093 6.21459V7.92986H5.47337H3.75581V6.21459V4.49932H5.47337H7.19093V6.21459ZM16.5594 6.21459V7.92986H14.8419H13.1243V6.21459V4.49932H14.8419H16.5594V6.21459ZM4.87847 6.1756C4.92438 6.73073 4.95451 6.76035 5.47337 6.76035C5.99223 6.76035 6.02237 6.73073 6.06827 6.1756L6.11683 5.59085H5.47337H4.82991L4.87847 6.1756ZM14.247 6.1756C14.2929 6.73073 14.323 6.76035 14.8419 6.76035C15.3607 6.76035 15.3909 6.73073 15.4368 6.1756L15.4853 5.59085H14.8419H14.1984L14.247 6.1756ZM2.53635 10.8536L2.58475 11.4384L3.71678 11.4842L4.84881 11.5301V12.069C4.84881 12.5809 4.82148 12.6079 4.30231 12.6079C3.76877 12.6079 3.75581 12.6227 3.75581 13.2316C3.75581 13.8405 3.76877 13.8553 4.30231 13.8553H4.84881V14.9469V16.0384H4.30231C3.76877 16.0384 3.75581 16.0532 3.75581 16.6621V17.2859H3.12188H2.48779L2.53635 17.8706C2.58225 18.4258 2.61239 18.4554 3.13125 18.4554C3.65011 18.4554 3.68024 18.4258 3.72615 17.8706C3.7719 17.3199 3.80531 17.2859 4.30231 17.2859C4.79931 17.2859 4.83272 17.3199 4.87847 17.8706L4.92688 18.4554H7.8155H10.7041L10.7525 17.8706L10.8011 17.2859H10.167H9.53306V16.6621C9.53306 16.0532 9.5201 16.0384 8.98657 16.0384C8.45303 16.0384 8.44007 16.0532 8.44007 16.6621V17.2859H7.26901H6.09794V16.7401C6.09794 16.2204 6.12402 16.1943 6.64444 16.1943C7.17798 16.1943 7.19093 16.1795 7.19093 15.5706V14.9469H7.8155H8.44007V13.7774V12.6079H8.98657C9.5201 12.6079 9.53306 12.5931 9.53306 11.9841C9.53306 11.3752 9.5201 11.3604 8.98657 11.3604C8.45303 11.3604 8.44007 11.3752 8.44007 11.9841V12.6079H7.8155H7.19093V13.7774V14.9469H6.64444H6.09794V13.2385V11.5301L7.22997 11.4842L8.362 11.4384L8.4104 10.8536L8.45896 10.2689H5.47337H2.48779L2.53635 10.8536ZM14.3288 11.4569C14.2674 11.5182 14.2173 11.8022 14.2173 12.0881V12.6079H12.4998H10.7822V13.2316C10.7822 13.8405 10.7952 13.8553 11.3287 13.8553C11.8491 13.8553 11.8752 13.8814 11.8752 14.4011C11.8752 14.9191 11.8479 14.9469 11.3381 14.9469C10.8303 14.9469 10.7984 14.9151 10.7525 14.3621C10.7066 13.807 10.6765 13.7774 10.1576 13.7774C9.63877 13.7774 9.60863 13.807 9.56273 14.3621L9.51417 14.9469H10.1483H10.7822V15.5706C10.7822 16.178 10.7964 16.1943 11.3218 16.1943H11.8615L11.9074 17.3249L11.9533 18.4554H14.8419H17.7305L17.773 15.5316L17.8155 12.6079H16.6503H15.4853L15.4368 12.0231C15.3934 11.4987 15.3395 11.4335 14.9143 11.3921C14.6536 11.3665 14.3902 11.3958 14.3288 11.4569ZM2.57569 13.9007C2.52885 14.0225 2.51183 14.5708 2.53775 15.1192L2.58475 16.1164H3.13125H3.67774V14.9469V13.7774L3.16919 13.7284C2.83817 13.6966 2.63097 13.7568 2.57569 13.9007ZM16.5594 15.5706V17.2859H14.8419H13.1243V15.5706V13.8553H14.8419H16.5594V15.5706ZM14.247 15.5316C14.2929 16.0867 14.323 16.1164 14.8419 16.1164C15.3607 16.1164 15.3909 16.0867 15.4368 15.5316L15.4853 14.9469H14.8419H14.1984L14.247 15.5316ZM0.164551 18.5333V20.8724H2.50668H4.84881V20.2486V19.6249H3.13125H1.41369V17.9096V16.1943H0.789118H0.164551V18.5333ZM18.9016 17.9096V19.6249H17.184H15.4665V20.2486V20.8724H17.8086H20.1507V18.5333V16.1943H19.5261H18.9016V17.9096Z" fill="url(#paint0_linear_263_1033)"/>
<defs>
<linearGradient id="paint0_linear_263_1033" x1="10.1576" y1="0.912842" x2="10.1576" y2="20.8724" gradientUnits="userSpaceOnUse">
<stop stop-color="#F77433"/>
<stop offset="1" stop-color="#FEAF38"/>
</linearGradient>
</defs>
</svg>
