<svg width="6" height="11" viewBox="0 0 6 11" fill="none" xmlns="http://www.w3.org/2000/svg">
<path fill-rule="evenodd" clip-rule="evenodd" d="M0.509838 10.9335C0.333892 10.8433 0.155925 10.6555 0.0707846 10.4702C0.0147281 10.3482 0.00566267 10.3015 0.00646252 10.1389C0.00821776 9.77425 -0.121248 9.93262 2.09622 7.58259L4.06161 5.4997L2.10504 3.41681C-0.00840149 1.16698 0.0384789 1.22237 0.00472944 0.934618C-0.0345523 0.599699 0.174632 0.231667 0.492041 0.0772724C0.739374 -0.0430622 1.04116 -0.0213823 1.25481 0.132042C1.30516 0.168208 2.36346 1.2786 3.60659 2.59956C6.17007 5.32363 5.99757 5.11425 5.99757 5.50179C5.99757 5.88142 6.16341 5.68115 3.5819 8.41906C1.01137 11.1453 1.18376 10.9839 0.827935 10.9981C0.667609 11.0045 0.635593 10.9979 0.509838 10.9335Z" fill="#FEAA6F"/>
</svg>
