<svg width="19" height="20" viewBox="0 0 19 20" fill="none" xmlns="http://www.w3.org/2000/svg">
<path fill-rule="evenodd" clip-rule="evenodd" d="M4.98435 0.984617C3.90261 1.18306 2.70213 1.92136 1.92652 2.86508C0.262167 4.89029 -0.12538 8.09458 1.00172 10.5118C1.50379 11.5885 1.7451 11.8564 5.36187 15.3518C7.31576 17.2401 9.00695 18.8574 9.12016 18.9458C9.28919 19.0777 9.35918 19.0883 9.51183 19.0049C9.61412 18.9492 11.3246 17.3296 13.313 15.406C17.1851 11.66 17.3372 11.4856 17.8461 10.2058C18.2271 9.24804 18.347 8.58233 18.3474 7.42392C18.3478 5.87914 18.0316 4.73221 17.2592 3.47718C16.587 2.38465 15.3637 1.42716 14.2242 1.10146C13.5515 0.909109 12.3208 0.907519 11.6564 1.09801C11.0516 1.27146 10.2265 1.72354 9.73433 2.15115L9.37429 2.46387L8.95998 2.12801C7.75286 1.14985 6.32391 0.73884 4.98435 0.984617ZM6.85232 2.17058C7.49703 2.36681 8.2708 2.84927 8.75532 3.35699C9.0116 3.62555 9.25099 3.80306 9.35682 3.80306C9.46264 3.80306 9.70203 3.62555 9.95831 3.35699C11.0665 2.19575 12.6147 1.76566 14.0759 2.21315C15.6411 2.69252 16.9164 4.23597 17.3205 6.13984C17.4629 6.81032 17.4621 8.012 17.3189 8.73953C17.184 9.42476 16.7756 10.3801 16.3979 10.894C16.151 11.2299 9.56294 17.6699 9.39391 17.7406C9.29295 17.7828 2.51481 11.1955 2.25964 10.8072C1.22023 9.22535 0.991022 7.03243 1.67393 5.20425C2.21724 3.7499 3.42133 2.55351 4.72085 2.17676C5.29977 2.00897 6.31182 2.00605 6.85232 2.17058Z" fill="url(#paint0_linear_263_1032)"/>
<defs>
<linearGradient id="paint0_linear_263_1032" x1="9.35363" y1="0.915039" x2="9.35363" y2="19.0582" gradientUnits="userSpaceOnUse">
<stop stop-color="#F77433"/>
<stop offset="1" stop-color="#FEAF38"/>
</linearGradient>
</defs>
</svg>
