<svg width="24" height="22" viewBox="0 0 24 22" fill="none" xmlns="http://www.w3.org/2000/svg">
<path d="M23.5 11C23.5 16.7589 18.3931 21.5 12 21.5C5.60688 21.5 0.5 16.7589 0.5 11C0.5 5.24107 5.60688 0.5 12 0.5C18.3931 0.5 23.5 5.24107 23.5 11Z" fill="white" stroke="#EEEEEE"/>
<path d="M11.6823 4.32008C10.0105 4.50948 8.52691 5.50856 7.61407 7.06164C7.13948 7.87132 6.84232 8.81358 6.76322 9.77242C6.72902 10.1962 6.7504 10.9846 6.80812 11.3468C6.91287 12.0026 7.10313 12.6418 7.34043 13.1343C7.38746 13.2313 7.42808 13.3308 7.42808 13.3521C7.42808 13.3734 7.32547 13.7782 7.19934 14.2517C6.97487 15.0922 6.97059 15.1158 6.97059 15.3479C6.97059 15.542 6.97914 15.6059 7.01762 15.6983C7.08176 15.8545 7.23354 16.025 7.37891 16.1055C7.52856 16.1883 7.78082 16.2096 7.95184 16.1575C8.0117 16.141 8.38796 16.0202 8.78986 15.8924L9.51885 15.658L9.78394 15.8024C10.2992 16.0842 10.7353 16.238 11.3403 16.3564C11.6609 16.4203 12.422 16.444 12.7854 16.4038C14.066 16.2593 15.2439 15.6225 16.1503 14.5879C16.4325 14.2659 16.5693 14.0765 16.8024 13.693C17.215 13.0064 17.5164 12.1375 17.6382 11.2876C17.6853 10.9538 17.7024 10.0849 17.6703 9.74164C17.5613 8.61708 17.1978 7.59906 16.5757 6.6781C16.3556 6.35376 15.8104 5.75241 15.509 5.50619C14.7137 4.85277 13.8565 4.4716 12.8795 4.33665C12.6593 4.30587 11.8961 4.2964 11.6823 4.32008ZM13.0078 5.00192C13.88 5.17711 14.6624 5.56775 15.3102 6.15252C16.0883 6.85803 16.6527 7.80266 16.9306 8.87277C17.0568 9.36047 17.0952 9.64931 17.1059 10.2341C17.1166 10.6839 17.1102 10.8046 17.0717 11.1053C16.9135 12.3127 16.4389 13.3663 15.6736 14.2067C14.9232 15.0306 14.0253 15.5373 12.9757 15.7314C12.6187 15.7953 11.7422 15.7906 11.4129 15.7196C10.808 15.5917 10.3975 15.4355 9.85449 15.1206C9.64071 14.9998 9.59154 14.9785 9.52954 14.9927C9.48892 14.9998 9.07847 15.1301 8.6167 15.2792C8.1528 15.426 7.74661 15.5491 7.71027 15.5491C7.6269 15.5491 7.53497 15.4473 7.53497 15.355C7.53497 15.3171 7.64614 14.8673 7.77868 14.3535C7.91336 13.8398 8.03094 13.3828 8.03736 13.3402C8.05018 13.2716 8.03094 13.2171 7.92191 12.9804C7.63972 12.379 7.49649 11.9268 7.37891 11.2545C7.34043 11.0296 7.33402 10.9041 7.33402 10.3761C7.33188 9.70613 7.34257 9.59012 7.46015 9.06217C7.93902 6.92195 9.53168 5.32153 11.522 4.98771C11.8619 4.93089 12.6978 4.93799 13.0078 5.00192Z" fill="#EEA09C"/>
<path d="M10.8361 7.11264C10.772 7.12921 10.6523 7.18366 10.5711 7.22864C10.0708 7.50801 9.74372 8.01702 9.68387 8.60416C9.66035 8.84801 9.69028 9.40674 9.74586 9.73582C9.83779 10.2732 10.0729 10.9361 10.3359 11.3812C10.7741 12.1294 11.4005 12.7567 12.0932 13.1426C12.6875 13.4741 13.2925 13.6327 13.9638 13.6375C14.216 13.6375 14.2972 13.6303 14.4383 13.5854C14.9022 13.4433 15.2464 13.1261 15.4645 12.6478C15.6184 12.3046 15.6355 12.037 15.5158 11.7742C15.441 11.6085 15.3533 11.5162 14.8873 11.1208C14.3272 10.6449 14.2673 10.6118 14.0108 10.6118C13.7478 10.6118 13.6452 10.6662 13.3673 10.9598L13.1557 11.1847L13.068 11.1539C12.5742 10.993 12.0632 10.4271 11.9179 9.88024L11.8922 9.78317L12.0889 9.55116C12.354 9.24101 12.4074 9.12264 12.4074 8.83617C12.4074 8.65151 12.3989 8.60653 12.3497 8.49289C12.2856 8.35084 11.6207 7.3778 11.5245 7.2902C11.3492 7.12447 11.0585 7.04872 10.8361 7.11264ZM11.129 7.7637C11.1547 7.78737 11.2936 7.98624 11.6977 8.57101C11.7875 8.70359 11.8409 8.80303 11.8409 8.84091C11.8409 8.88826 11.7789 8.97349 11.5865 9.18893C11.4476 9.34755 11.3214 9.49907 11.3086 9.52748C11.2765 9.59851 11.2787 9.69084 11.3171 9.87787C11.516 10.8225 12.2172 11.599 13.0701 11.8192C13.239 11.8618 13.3224 11.8642 13.3865 11.8287C13.4122 11.8145 13.549 11.6748 13.6923 11.5209C13.8889 11.3078 13.9638 11.2392 14.0065 11.2392C14.0621 11.2392 14.1369 11.296 14.7077 11.7861C15.007 12.0418 15.0391 12.0938 14.9942 12.2383C14.8958 12.5602 14.6478 12.8278 14.34 12.9461C14.2246 12.9888 14.1604 12.9982 13.9338 12.9959C13.0124 12.9864 12.1402 12.5839 11.4411 11.8453C10.7228 11.0853 10.3316 10.188 10.2589 9.13448C10.2333 8.75094 10.2568 8.54734 10.3509 8.32716C10.5091 7.95547 10.973 7.61928 11.129 7.7637Z" fill="#EEA09C"/>
</svg>
