<svg width="34" height="34" viewBox="0 0 34 34" fill="none" xmlns="http://www.w3.org/2000/svg">
<circle cx="17.3098" cy="16.6902" r="16.6902" fill="#FD9149"/>
<circle cx="17.3098" cy="16.6902" r="16.1902" fill="url(#paint0_radial_264_416)" stroke="#FFD588"/>
<path fill-rule="evenodd" clip-rule="evenodd" d="M10.6638 11.3724C10.3801 11.5158 10.042 11.8143 9.8498 12.0908L9.52112 12.5638V16.3086V20.0533L9.8498 20.5263C10.042 20.8028 10.3801 21.1013 10.6638 21.2447C11.1489 21.49 11.1512 21.4902 16.939 21.4902C22.7268 21.4902 22.7291 21.49 23.2142 21.2447C23.4979 21.1013 23.836 20.8028 24.0282 20.5263L24.3569 20.0533V16.3086V12.5638L24.0282 12.0908C23.836 11.8143 23.4979 11.5158 23.2142 11.3724C22.7291 11.1271 22.7268 11.127 16.939 11.127C11.1512 11.127 11.1489 11.1271 10.6638 11.3724ZM19.6116 16.037C19.6116 16.1019 15.8043 18.6438 15.5558 18.7448C15.5066 18.7648 15.4663 17.5252 15.4663 15.99V13.1989L17.539 14.5802C18.6789 15.3399 19.6116 15.9955 19.6116 16.037Z" fill="#FD9149"/>
<defs>
<radialGradient id="paint0_radial_264_416" cx="0" cy="0" r="1" gradientUnits="userSpaceOnUse" gradientTransform="translate(17.3098 16.6902) rotate(90.7639) scale(27.8195)">
<stop stop-color="white"/>
<stop offset="1" stop-color="#FFD588" stop-opacity="0"/>
</radialGradient>
</defs>
</svg>
