<svg width="7" height="14" viewBox="0 0 7 14" fill="none" xmlns="http://www.w3.org/2000/svg">
<path fill-rule="evenodd" clip-rule="evenodd" d="M4.41331 0.546055C3.4999 0.700391 2.78191 1.19664 2.36808 1.95968C2.08386 2.4836 1.99173 3.00889 1.99173 4.10481V5.09015H1.097C0.476588 5.09015 0.181444 5.11106 0.134329 5.15834C0.0382315 5.25477 0.0382315 7.53946 0.134329 7.63589C0.181444 7.68317 0.476588 7.70408 1.097 7.70408H1.99173V10.4297C1.99173 13.0662 1.99529 13.1571 2.10124 13.2141C2.16631 13.249 2.67086 13.2729 3.34304 13.2729C4.29682 13.2729 4.4893 13.2588 4.56428 13.1836C4.64265 13.1049 4.65324 12.7735 4.65324 10.3992V7.70408H5.66852C6.51596 7.70408 6.69847 7.6893 6.77277 7.61481C6.90533 7.48172 6.90533 5.3125 6.77277 5.17942C6.69847 5.10492 6.51596 5.09015 5.66852 5.09015H4.65324L4.65335 4.30881C4.65347 3.06122 4.7255 2.98713 5.98031 2.944C6.41839 2.92894 6.80867 2.89109 6.84757 2.8599C6.89984 2.81807 6.91836 2.51531 6.91836 1.70414C6.91836 0.675615 6.91133 0.601232 6.80884 0.546169C6.68103 0.477525 4.81939 0.477411 4.41331 0.546055Z" fill="url(#paint0_linear_263_429)"/>
<defs>
<linearGradient id="paint0_linear_263_429" x1="3.49031" y1="0.494629" x2="3.49031" y2="13.2729" gradientUnits="userSpaceOnUse">
<stop stop-color="#FD9149"/>
<stop offset="1" stop-color="#FFDE6A" stop-opacity="0.98"/>
</linearGradient>
</defs>
</svg>
