<svg width="16" height="13" viewBox="0 0 16 13" fill="none" xmlns="http://www.w3.org/2000/svg">
<path fill-rule="evenodd" clip-rule="evenodd" d="M5.98836 0.133344C5.85776 0.384413 5.35531 2.9828 5.40155 3.16788L5.4478 3.35266H8.21647H10.9851L11.0319 3.16552C11.0789 2.97762 10.5773 0.385098 10.4452 0.133344C10.381 0.0111247 10.1951 0 8.21647 0C6.23758 0 6.05192 0.0111247 5.98836 0.133344ZM9.9608 0.857213C10.1323 1.61682 10.3046 2.49323 10.3046 2.60616C10.3046 2.73462 10.1753 2.74308 8.21647 2.74308C6.25762 2.74308 6.12831 2.73462 6.12831 2.60616C6.12831 2.49323 6.3006 1.61682 6.47213 0.857213L6.51086 0.685771H8.21647H9.92208L9.9608 0.857213ZM2.64647 4.32416C2.60782 4.39754 2.4454 5.09642 2.28549 5.87736C2.03909 7.08028 2.01023 7.31595 2.09649 7.42034C2.18677 7.52946 2.50243 7.54348 4.86949 7.54348C7.692 7.54348 7.7229 7.53967 7.7229 7.18977C7.7229 6.96461 7.21248 4.5827 7.11703 4.36226L7.04277 4.19082H4.87974C2.89705 4.19082 2.71079 4.20195 2.64647 4.32416ZM9.32881 4.32416C9.24703 4.48022 8.71003 6.98214 8.71003 7.20737C8.71003 7.50439 8.84763 7.54348 9.89292 7.54348C10.988 7.54348 11.125 7.49319 11.0331 7.12539C10.9859 6.93687 10.9734 6.9339 10.2273 6.9339C9.51781 6.9339 9.46937 6.92407 9.46937 6.78021C9.46937 6.63933 9.73088 5.32242 9.82086 5.00994C9.85548 4.8897 9.98548 4.87659 11.14 4.87659C12.5464 4.87659 12.8104 4.82508 12.8104 4.55085C12.8104 4.20819 12.7237 4.19082 11.0135 4.19082C9.55289 4.19082 9.39207 4.20355 9.32881 4.32416ZM6.61975 5.04803C6.79128 5.80764 6.96357 6.68405 6.96357 6.79698C6.96357 6.92545 6.83426 6.9339 4.87541 6.9339C2.91657 6.9339 2.78725 6.92545 2.78725 6.79698C2.78725 6.68405 2.95955 5.80764 3.13108 5.04803L3.1698 4.87659H4.87541H6.58102L6.61975 5.04803ZM13.5304 5.10671C13.4208 5.22816 13.4099 5.29369 13.4751 5.43717C13.5391 5.57821 13.656 5.63574 14.0281 5.70919C14.2876 5.76047 14.47 5.83103 14.4335 5.86601C14.3181 5.97649 9.40095 9.21981 9.34886 9.21981C9.32152 9.21981 8.66485 8.97857 7.88958 8.68369C7.1143 8.3888 6.43326 8.16555 6.37623 8.18749C6.31913 8.20944 5.02698 9.05469 3.50475 10.0657C1.21962 11.5835 0.737061 11.9341 0.737061 12.0765C0.737061 12.2887 0.917402 12.4503 1.10063 12.4022C1.17573 12.3825 2.40842 11.5898 3.84007 10.6407C5.27163 9.69154 6.48763 8.91502 6.54237 8.91502C6.59704 8.91502 7.26396 9.15466 8.02428 9.44748C9.19654 9.89895 9.43178 9.96669 9.57096 9.89255C9.66125 9.84447 10.1281 9.54136 10.6084 9.21897C11.0886 8.89658 12.2465 8.12882 13.1814 7.51277L14.8813 6.39268L14.8293 6.72048C14.8008 6.90068 14.7595 7.12043 14.7376 7.20867C14.6963 7.37524 14.8755 7.62059 15.0369 7.61853C15.2538 7.61571 15.3464 7.43566 15.5121 6.69487C15.7181 5.77396 15.7334 5.53607 15.5941 5.4201C15.5382 5.37347 15.1537 5.26672 14.7399 5.18275C14.326 5.09886 13.9153 5.01336 13.8272 4.99272C13.7272 4.96932 13.6156 5.01222 13.5304 5.10671Z" fill="black"/>
</svg>
