<svg width="114" height="31" viewBox="0 0 114 31" fill="none" xmlns="http://www.w3.org/2000/svg">
<path d="M72.111 15.4798C72.111 23.7545 65.4267 30.4596 57.1848 30.4596C48.9429 30.4596 42.2585 23.7545 42.2585 15.4798C42.2585 7.20505 48.9429 0.5 57.1848 0.5C65.4267 0.5 72.111 7.20505 72.111 15.4798Z" fill="white" stroke="#F77433"/>
<path d="M112.811 15.4798C112.811 23.7545 106.127 30.4596 97.8847 30.4596C89.6428 30.4596 82.9585 23.7545 82.9585 15.4798C82.9585 7.20505 89.6428 0.5 97.8847 0.5C106.127 0.5 112.811 7.20505 112.811 15.4798Z" fill="white" stroke="#F77433"/>
<path d="M31.0549 15.4798C31.0549 23.7545 24.3705 30.4596 16.1286 30.4596C7.88673 30.4596 1.20239 23.7545 1.20239 15.4798C1.20239 7.20505 7.88673 0.5 16.1286 0.5C24.3705 0.5 31.0549 7.20505 31.0549 15.4798Z" fill="white" fill-opacity="0.74" stroke="#F77433"/>
<path fill-rule="evenodd" clip-rule="evenodd" d="M53.671 9.78518C52.6236 10.1466 51.8617 10.9181 51.5061 11.9771C51.3653 12.3965 51.3567 12.5985 51.3567 15.4728C51.3567 18.2601 51.3687 18.5622 51.4957 18.9716C51.8312 20.0535 52.7024 20.9082 53.7881 21.2206C54.1467 21.3238 54.6276 21.3369 57.3826 21.3184L60.563 21.2971L61.0593 21.0619C61.7593 20.7302 62.3723 20.1228 62.7135 19.4225L62.9837 18.8679L63.005 15.6764C63.0235 12.9119 63.0104 12.4294 62.9076 12.0695C62.5962 10.98 61.7444 10.1058 60.6663 9.76913C60.2576 9.64141 59.9612 9.62986 57.1637 9.63206C54.2792 9.63442 54.0831 9.64303 53.671 9.78518ZM60.7097 10.7315C61.1812 10.965 61.7386 11.5238 61.943 11.9679C62.0987 12.3061 62.1041 12.4079 62.1248 15.3789C62.1457 18.3821 62.143 18.4498 61.9845 18.8749C61.7632 19.4683 61.1613 20.0723 60.57 20.2943C60.1464 20.4534 60.0789 20.4561 57.0861 20.4351L54.0342 20.4137L53.6674 20.2329C53.2001 20.0024 52.6868 19.4869 52.4547 19.0151L52.2736 18.647V15.4817V12.3165L52.4713 11.9405C52.7425 11.4247 53.0004 11.1337 53.3887 10.9053C54.0566 10.5125 54.03 10.515 57.2986 10.533L60.3429 10.5498L60.7097 10.7315ZM60.5426 11.5109C60.349 11.647 60.3237 11.9923 60.4948 12.164C60.666 12.3357 61.0101 12.3103 61.1456 12.116C61.3094 11.8815 61.2873 11.7231 61.0666 11.5489C60.835 11.3661 60.7566 11.3605 60.5426 11.5109ZM56.234 12.4857C55.3553 12.7906 54.733 13.3473 54.3397 14.1803C54.1227 14.6401 54.1076 14.7249 54.1076 15.4856C54.1076 16.2776 54.1148 16.3139 54.3833 16.859C55.0049 18.121 56.3204 18.8206 57.6666 18.605C58.3381 18.4975 58.848 18.2407 59.3565 17.7539C61.4168 15.782 60.0257 12.3436 57.1726 12.3557C56.8273 12.3571 56.4564 12.4085 56.234 12.4857ZM58.2155 13.4756C58.958 13.8592 59.3714 14.5046 59.4144 15.3473C59.4534 16.1111 59.2895 16.5507 58.7723 17.0691C58.2872 17.5554 57.8648 17.7273 57.1572 17.7262C55.9847 17.7244 55.0528 16.847 54.9688 15.6658C54.9271 15.0782 55.0275 14.6839 55.3373 14.2188C55.5843 13.8479 56.1222 13.4351 56.5184 13.3124C56.9403 13.1818 57.8085 13.2653 58.2155 13.4756Z" fill="url(#paint0_linear_263_361)"/>
<path fill-rule="evenodd" clip-rule="evenodd" d="M92.0388 10.5475C91.7766 10.6805 91.4641 10.9573 91.2865 11.2138L90.9827 11.6525V15.1256V18.5988L91.2865 19.0375C91.4641 19.294 91.7766 19.5708 92.0388 19.7038C92.4872 19.9314 92.4893 19.9315 97.8388 19.9315C103.188 19.9315 103.19 19.9314 103.639 19.7038C103.901 19.5708 104.213 19.294 104.391 19.0375L104.695 18.5988V15.1256V11.6525L104.391 11.2138C104.213 10.9573 103.901 10.6805 103.639 10.5475C103.19 10.3199 103.188 10.3198 97.8388 10.3198C92.4893 10.3198 92.4872 10.3199 92.0388 10.5475ZM100.309 14.8738C100.309 14.934 96.79 17.2915 96.5603 17.3852C96.5148 17.4038 96.4776 16.254 96.4776 14.8302V12.2415L98.3933 13.5226C99.4469 14.2272 100.309 14.8353 100.309 14.8738Z" fill="url(#paint1_linear_263_361)"/>
<ellipse cx="57.1847" cy="15.4797" rx="1.71403" ry="1.71998" fill="url(#paint2_linear_263_361)"/>
<path fill-rule="evenodd" clip-rule="evenodd" d="M17.0119 9.05143C16.0985 9.20576 15.3805 9.70201 14.9667 10.4651C14.6825 10.989 14.5904 11.5143 14.5904 12.6102V13.5955H13.6956C13.0752 13.5955 12.7801 13.6164 12.733 13.6637C12.6369 13.7601 12.6369 16.0448 12.733 16.1413C12.7801 16.1885 13.0752 16.2094 13.6956 16.2094H14.5904V18.935C14.5904 21.5716 14.5939 21.6625 14.6999 21.7194C14.7649 21.7543 15.2695 21.7783 15.9417 21.7783C16.8955 21.7783 17.0879 21.7642 17.1629 21.689C17.2413 21.6103 17.2519 21.2789 17.2519 18.9046V16.2094H18.2672C19.1146 16.2094 19.2971 16.1947 19.3714 16.1202C19.504 15.9871 19.504 13.8179 19.3714 13.6848C19.2971 13.6103 19.1146 13.5955 18.2672 13.5955H17.2519L17.252 12.8142C17.2521 11.5666 17.3241 11.4925 18.5789 11.4494C19.017 11.4343 19.4073 11.3965 19.4462 11.3653C19.4985 11.3234 19.517 11.0207 19.517 10.2095C19.517 9.18099 19.51 9.1066 19.4075 9.05154C19.2797 8.9829 17.418 8.98278 17.0119 9.05143Z" fill="url(#paint3_linear_263_361)"/>
<defs>
<linearGradient id="paint0_linear_263_361" x1="57.1844" y1="9.63184" x2="57.1844" y2="21.3255" gradientUnits="userSpaceOnUse">
<stop stop-color="#F77433"/>
<stop offset="1" stop-color="#FEAF38"/>
</linearGradient>
<linearGradient id="paint1_linear_263_361" x1="97.8388" y1="10.3198" x2="97.8388" y2="19.9315" gradientUnits="userSpaceOnUse">
<stop stop-color="#F77433"/>
<stop offset="1" stop-color="#FEAF38"/>
</linearGradient>
<linearGradient id="paint2_linear_263_361" x1="57.1847" y1="13.7598" x2="57.1847" y2="17.1997" gradientUnits="userSpaceOnUse">
<stop stop-color="#FD9149"/>
<stop offset="1" stop-color="#FFDE6A" stop-opacity="0.74"/>
</linearGradient>
<linearGradient id="paint3_linear_263_361" x1="16.0889" y1="9" x2="16.0889" y2="21.7783" gradientUnits="userSpaceOnUse">
<stop stop-color="#F77433"/>
<stop offset="1" stop-color="#FEAF38"/>
</linearGradient>
</defs>
</svg>
