<svg width="13" height="12" viewBox="0 0 13 12" fill="none" xmlns="http://www.w3.org/2000/svg">
<path fill-rule="evenodd" clip-rule="evenodd" d="M3.07239 0.279805C2.02493 0.641237 1.26304 1.41269 0.907484 2.47173C0.766713 2.89117 0.758057 3.09309 0.758057 5.96747C0.758057 8.75477 0.770087 9.05679 0.897068 9.46622C1.2326 10.5481 2.10379 11.4028 3.18947 11.7153C3.54811 11.8185 4.02896 11.8316 6.78395 11.813L9.96433 11.7917L10.4607 11.5565C11.1607 11.2249 11.7737 10.6174 12.1149 9.91716L12.3851 9.3625L12.4064 6.17108C12.4249 3.40653 12.4118 2.924 12.309 2.56412C11.9976 1.47467 11.1458 0.600456 10.0677 0.263757C9.65895 0.136042 9.36259 0.124485 6.56505 0.126693C3.68059 0.129048 3.48443 0.137661 3.07239 0.279805ZM10.111 1.22608C10.5826 1.45965 11.1399 2.01843 11.3444 2.46253C11.5001 2.8007 11.5055 2.90251 11.5262 5.87354C11.5471 8.87674 11.5444 8.94446 11.3858 9.36957C11.1646 9.96295 10.5627 10.5669 9.97137 10.7889C9.54774 10.948 9.48025 10.9507 6.48744 10.9298L3.43558 10.9083L3.06879 10.7275C2.60151 10.497 2.08816 9.9815 1.85606 9.50973L1.67502 9.14167V5.97638V2.81108L1.87271 2.43515C2.14391 1.91928 2.40176 1.62829 2.79004 1.39995C3.45795 1.00716 3.43132 1.00966 6.69995 1.02762L9.74426 1.04441L10.111 1.22608ZM9.94401 2.00555C9.75035 2.14159 9.72511 2.4869 9.89618 2.65863C10.0673 2.83029 10.4114 2.80497 10.547 2.61064C10.7107 2.37611 10.6887 2.2177 10.4679 2.04354C10.2364 1.86076 10.158 1.85509 9.94401 2.00555ZM5.63533 2.98031C4.75666 3.28521 4.13438 3.84194 3.74111 4.67492C3.52405 5.1347 3.50894 5.2195 3.50894 5.9802C3.50894 6.77226 3.5162 6.80848 3.78468 7.35365C4.40624 8.61564 5.72174 9.31524 7.06799 9.09964C7.73942 8.99216 8.24932 8.73533 8.75791 8.24854C10.8181 6.27664 9.42707 2.83824 6.57393 2.85032C6.22864 2.85172 5.85775 2.9031 5.63533 2.98031ZM7.61691 3.97024C8.35936 4.35383 8.7728 4.99926 8.81578 5.84196C8.85481 6.60575 8.69086 7.04529 8.17369 7.56373C7.68858 8.05001 7.26612 8.22189 6.55852 8.22079C5.38606 8.21902 4.45414 7.34165 4.37022 6.1604C4.32848 5.57284 4.42883 5.17857 4.73869 4.71342C4.98568 4.3425 5.52361 3.92976 5.91981 3.80705C6.34168 3.67646 7.20986 3.75993 7.61691 3.97024Z" fill="url(#paint0_linear_263_422)"/>
<defs>
<linearGradient id="paint0_linear_263_422" x1="6.58574" y1="0.126465" x2="6.58574" y2="11.8201" gradientUnits="userSpaceOnUse">
<stop stop-color="#FD9149"/>
<stop offset="1" stop-color="#FFDE6A"/>
</linearGradient>
</defs>
</svg>
