<svg width="15" height="11" viewBox="0 0 15 11" fill="none" xmlns="http://www.w3.org/2000/svg">
<path fill-rule="evenodd" clip-rule="evenodd" d="M1.44018 1.0421C1.17793 1.17514 0.865473 1.45196 0.687819 1.70844L0.384033 2.14713V5.62027V9.09341L0.687819 9.53211C0.865473 9.78858 1.17793 10.0654 1.44018 10.1984C1.88854 10.426 1.89066 10.4261 7.24013 10.4261C12.5896 10.4261 12.5917 10.426 13.0401 10.1984C13.3023 10.0654 13.6148 9.78858 13.7924 9.53211L14.0962 9.09341V5.62027V2.14713L13.7924 1.70844C13.6148 1.45196 13.3023 1.17514 13.0401 1.0421C12.5917 0.814554 12.5896 0.814453 7.24013 0.814453C1.89066 0.814453 1.88854 0.814554 1.44018 1.0421ZM9.71035 5.36845C9.71035 5.42865 6.19135 7.78613 5.96167 7.87981C5.9162 7.89843 5.879 6.74868 5.879 5.32484V2.73617L7.79467 4.01725C8.84829 4.72184 9.71035 5.3299 9.71035 5.36845Z" fill="url(#paint0_linear_263_423)"/>
<defs>
<linearGradient id="paint0_linear_263_423" x1="7.24013" y1="0.814453" x2="7.24013" y2="10.4261" gradientUnits="userSpaceOnUse">
<stop stop-color="#FD9149"/>
<stop offset="1" stop-color="#FFDE6A" stop-opacity="0.74"/>
</linearGradient>
</defs>
</svg>
