<svg width="54" height="54" viewBox="0 0 54 54" fill="none" xmlns="http://www.w3.org/2000/svg">
<circle cx="20" cy="20" r="19.5" transform="matrix(-1 0 0 1 47 7)" fill="white" stroke="#DED5D5"/>
<g filter="url(#filter0_d_263_83)">
<circle cx="20" cy="20" r="20" transform="matrix(-1 0 0 1 47 7)" fill="url(#paint0_linear_263_83)" shape-rendering="crispEdges"/>
<circle cx="20" cy="20" r="19.5" transform="matrix(-1 0 0 1 47 7)" stroke="#FFD588" shape-rendering="crispEdges"/>
</g>
<path fill-rule="evenodd" clip-rule="evenodd" d="M28.3308 19.0971C28.6035 19.2288 28.8794 19.503 29.0114 19.7736C29.0983 19.9517 29.1123 20.0199 29.1111 20.2574C29.1084 20.7898 29.309 20.5586 25.8716 23.9901L22.8249 27.0315L25.8579 30.0729C29.1341 33.3581 29.0614 33.2772 29.1138 33.6974C29.1747 34.1864 28.8504 34.7238 28.3583 34.9493C27.9749 35.125 27.5071 35.0933 27.1759 34.8693C27.0979 34.8165 25.4573 33.1951 23.5303 31.2663C19.5564 27.2886 19.8238 27.5943 19.8238 27.0284C19.8238 26.4741 19.5667 26.7665 23.5685 22.7687C27.5533 18.7878 27.2861 19.0235 27.8377 19.0028C28.0862 18.9935 28.1358 19.003 28.3308 19.0971Z" fill="#F77433"/>
<g filter="url(#filter1_f_263_83)">
<ellipse cx="8.66667" cy="2" rx="8.66667" ry="2" transform="matrix(-1 0 0 1 35 39)" fill="#FFE6C2"/>
</g>
<defs>
<filter id="filter0_d_263_83" x="0" y="0" width="54" height="54" filterUnits="userSpaceOnUse" color-interpolation-filters="sRGB">
<feFlood flood-opacity="0" result="BackgroundImageFix"/>
<feColorMatrix in="SourceAlpha" type="matrix" values="0 0 0 0 0 0 0 0 0 0 0 0 0 0 0 0 0 0 127 0" result="hardAlpha"/>
<feMorphology radius="2" operator="dilate" in="SourceAlpha" result="effect1_dropShadow_263_83"/>
<feOffset/>
<feGaussianBlur stdDeviation="2.5"/>
<feComposite in2="hardAlpha" operator="out"/>
<feColorMatrix type="matrix" values="0 0 0 0 0.566667 0 0 0 0 0.532194 0 0 0 0 0.532194 0 0 0 0.55 0"/>
<feBlend mode="normal" in2="BackgroundImageFix" result="effect1_dropShadow_263_83"/>
<feBlend mode="normal" in="SourceGraphic" in2="effect1_dropShadow_263_83" result="shape"/>
</filter>
<filter id="filter1_f_263_83" x="11.6667" y="33" width="29.3333" height="16" filterUnits="userSpaceOnUse" color-interpolation-filters="sRGB">
<feFlood flood-opacity="0" result="BackgroundImageFix"/>
<feBlend mode="normal" in="SourceGraphic" in2="BackgroundImageFix" result="shape"/>
<feGaussianBlur stdDeviation="3" result="effect1_foregroundBlur_263_83"/>
</filter>
<linearGradient id="paint0_linear_263_83" x1="20" y1="0" x2="20" y2="40" gradientUnits="userSpaceOnUse">
<stop stop-color="#FFE3B9"/>
<stop offset="0.666667" stop-color="#FFE3B9" stop-opacity="0"/>
</linearGradient>
</defs>
</svg>
