<svg width="54" height="54" viewBox="0 0 54 54" fill="none" xmlns="http://www.w3.org/2000/svg">
<circle cx="27" cy="27" r="19.5" fill="white" stroke="#DED5D5"/>
<g filter="url(#filter0_d_263_78)">
<circle cx="27" cy="27" r="20" fill="url(#paint0_linear_263_78)" shape-rendering="crispEdges"/>
<circle cx="27" cy="27" r="19.5" stroke="#FFD588" shape-rendering="crispEdges"/>
</g>
<path fill-rule="evenodd" clip-rule="evenodd" d="M21.7454 19.0971C21.4727 19.2288 21.1968 19.503 21.0648 19.7736C20.9779 19.9517 20.9639 20.0199 20.9651 20.2574C20.9678 20.7898 20.7671 20.5586 24.2046 23.9901L27.2513 27.0315L24.2182 30.0729C20.9421 33.3581 21.0147 33.2772 20.9624 33.6974C20.9015 34.1864 21.2258 34.7238 21.7178 34.9493C22.1012 35.125 22.5691 35.0933 22.9003 34.8693C22.9783 34.8165 24.6188 33.1951 26.5459 31.2663C30.5198 27.2886 30.2524 27.5943 30.2524 27.0284C30.2524 26.4741 30.5094 26.7665 26.5076 22.7687C22.5229 18.7878 22.7901 19.0235 22.2385 19.0028C21.99 18.9935 21.9404 19.003 21.7454 19.0971Z" fill="#F77433"/>
<g filter="url(#filter1_f_263_78)">
<ellipse cx="27.6667" cy="41" rx="8.66667" ry="2" fill="#FFE6C2"/>
</g>
<defs>
<filter id="filter0_d_263_78" x="0" y="0" width="54" height="54" filterUnits="userSpaceOnUse" color-interpolation-filters="sRGB">
<feFlood flood-opacity="0" result="BackgroundImageFix"/>
<feColorMatrix in="SourceAlpha" type="matrix" values="0 0 0 0 0 0 0 0 0 0 0 0 0 0 0 0 0 0 127 0" result="hardAlpha"/>
<feMorphology radius="2" operator="dilate" in="SourceAlpha" result="effect1_dropShadow_263_78"/>
<feOffset/>
<feGaussianBlur stdDeviation="2.5"/>
<feComposite in2="hardAlpha" operator="out"/>
<feColorMatrix type="matrix" values="0 0 0 0 0.566667 0 0 0 0 0.532194 0 0 0 0 0.532194 0 0 0 0.55 0"/>
<feBlend mode="normal" in2="BackgroundImageFix" result="effect1_dropShadow_263_78"/>
<feBlend mode="normal" in="SourceGraphic" in2="effect1_dropShadow_263_78" result="shape"/>
</filter>
<filter id="filter1_f_263_78" x="13" y="33" width="29.3333" height="16" filterUnits="userSpaceOnUse" color-interpolation-filters="sRGB">
<feFlood flood-opacity="0" result="BackgroundImageFix"/>
<feBlend mode="normal" in="SourceGraphic" in2="BackgroundImageFix" result="shape"/>
<feGaussianBlur stdDeviation="3" result="effect1_foregroundBlur_263_78"/>
</filter>
<linearGradient id="paint0_linear_263_78" x1="27" y1="7" x2="27" y2="47" gradientUnits="userSpaceOnUse">
<stop stop-color="#FFE3B9"/>
<stop offset="0.666667" stop-color="#FFE3B9" stop-opacity="0"/>
</linearGradient>
</defs>
</svg>
