<svg width="15" height="15" viewBox="0 0 15 15" fill="none" xmlns="http://www.w3.org/2000/svg">
<path fill-rule="evenodd" clip-rule="evenodd" d="M7.08442 0.00710517C7.02937 0.0136729 6.8567 0.0339626 6.70072 0.0521705C4.82921 0.270842 3.09872 1.47998 2.39561 3.06026C2.1161 3.68848 2.01754 4.15866 2.01567 4.87249C2.0138 5.58811 2.1483 6.16394 2.46507 6.79652C2.6358 7.13743 2.63674 7.13881 3.72659 8.63916C4.224 9.32396 4.61998 9.89295 4.6065 9.9036C4.59302 9.91424 4.43187 9.94602 4.24835 9.9742C3.01577 10.1636 1.75342 10.5551 1.02702 10.9733C0.296285 11.3939 -0.0902534 11.9998 0.0179508 12.5549C0.130459 13.1321 0.664773 13.6378 1.57912 14.0325C3.96281 15.0614 8.31994 15.3049 11.5979 14.5925C13.0216 14.2831 14.136 13.7921 14.6143 13.2635C15.2654 12.544 15.0823 11.7005 14.1394 11.0761C13.4555 10.6232 12.0964 10.1808 10.7546 9.97429C10.5711 9.94605 10.4099 9.91418 10.3963 9.90348C10.3828 9.89278 10.8081 9.2842 11.3414 8.55108C11.8748 7.81795 12.3761 7.09937 12.4555 6.95424C12.6578 6.58445 12.7936 6.2292 12.8971 5.79907C12.9745 5.4779 12.9862 5.36056 12.9866 4.90181C12.9868 4.61154 12.968 4.26849 12.9448 4.13948C12.5684 2.04883 10.7556 0.4219 8.40235 0.0630484C8.12075 0.0201234 7.2762 -0.0157354 7.08442 0.00710517ZM8.39348 0.956263C10.1003 1.26375 11.4401 2.4007 11.868 3.90492C12.127 4.81523 11.9959 5.82851 11.5143 6.63769C11.3597 6.89759 7.53485 12.1867 7.50149 12.1868C7.49231 12.1868 6.77162 11.2021 5.89994 9.99851C5.02827 8.79491 4.14536 7.578 3.93792 7.29423C3.73049 7.01047 3.50694 6.67936 3.44115 6.55841C2.51996 4.86463 3.09094 2.80998 4.79662 1.68094C5.45658 1.24407 6.197 0.985759 7.06774 0.888592C7.33035 0.859301 8.06263 0.896684 8.39348 0.956263ZM7.18451 2.67514C7.14781 2.68259 7.03587 2.70331 6.93578 2.7212C6.21031 2.85065 5.50413 3.37809 5.19387 4.0222C5.057 4.30632 5.01646 4.49725 5.01646 4.85783C5.01646 5.21841 5.057 5.40935 5.19387 5.69346C5.50296 6.33514 6.16076 6.82927 6.93427 7.00085C7.1725 7.05372 7.83047 7.05372 8.0687 7.00085C8.84221 6.82927 9.50001 6.33514 9.80911 5.69346C9.94597 5.40935 9.98651 5.21841 9.98651 4.85783C9.98651 4.66713 9.96639 4.4506 9.94017 4.35939C9.71385 3.57155 9.01468 2.94489 8.11875 2.72692C7.94978 2.68581 7.3071 2.65019 7.18451 2.67514ZM7.77205 3.56835C8.5554 3.69889 9.10399 4.37413 8.97644 5.0507C8.86797 5.62588 8.37549 6.05865 7.72096 6.15397C6.75617 6.29444 5.86668 5.51279 6.02653 4.66496C6.16623 3.92407 6.95042 3.43143 7.77205 3.56835ZM6.18429 12.0262C6.8594 12.957 7.15055 13.3338 7.23189 13.382C7.3094 13.4279 7.39345 13.4487 7.50149 13.4487C7.60952 13.4487 7.69357 13.4279 7.77108 13.382C7.85239 13.3338 8.14431 12.9563 8.81962 12.0259L9.75552 10.7366L9.88805 10.7448C9.96092 10.7493 10.2008 10.7797 10.421 10.8123C11.9819 11.0431 13.1487 11.4377 13.7124 11.9254C14.1028 12.2631 14.1028 12.4694 13.7126 12.8036C12.987 13.425 11.3227 13.8774 9.05298 14.07C8.4833 14.1184 6.48164 14.1182 5.93331 14.0697C4.715 13.9619 3.80096 13.8098 2.98047 13.5784C2.1862 13.3543 1.64215 13.1049 1.29041 12.8036C0.925825 12.4914 0.908475 12.2858 1.22084 11.9802C1.66847 11.5422 2.72522 11.139 4.05013 10.9005C4.59793 10.8019 5.1213 10.7254 5.19927 10.7325C5.2268 10.7351 5.67006 11.3172 6.18429 12.0262Z" fill="#AA6F01"/>
</svg>
